<?xml version="1.0" encoding="UTF-8"?> <svg xmlns="http://www.w3.org/2000/svg" width="575" height="380" viewBox="0 0 575 380"><defs><style>.a,.c,.d,.e,.h{fill:none;}.b{fill:#88cac9;}.c,.d,.e{stroke:#e07525;}.c{stroke-miterlimit:10;}.d,.e,.h{stroke-linecap:round;stroke-linejoin:round;}.e{stroke-width:0.723px;}.f{fill:#fff;}.g{fill:#c4c4c4;}.h{stroke:#fff;stroke-width:2px;}.i{fill:#e07525;}.j{fill:#fed03d;}.k,.l{stroke:none;}.l{fill:#e07525;}</style></defs><g transform="translate(-730 -39)"><g class="a" transform="translate(868 39)"><path class="k" d="M15,0H285a15,15,0,0,1,15,15V99a15,15,0,0,1-15,15H15A15,15,0,0,1,0,99V15A15,15,0,0,1,15,0Z"></path><path class="l" d="M 15 1 C 11.26046752929688 1 7.744781494140625 2.456268310546875 5.100494384765625 5.100502014160156 C 2.456268310546875 7.744766235351562 1 11.26045989990234 1 15 L 1 99 C 1 102.7395401000977 2.456268310546875 106.2552337646484 5.100494384765625 108.8994979858398 C 7.744781494140625 111.5437316894531 11.26046752929688 113 15 113 L 285 113 C 288.7395324707031 113 292.2552185058594 111.5437316894531 294.8995056152344 108.8994979858398 C 297.5437316894531 106.2552337646484 299 102.7395401000977 299 99 L 299 15 C 299 11.26045989990234 297.5437316894531 7.744766235351562 294.8995056152344 5.100502014160156 C 292.2552185058594 2.456268310546875 288.7395324707031 1 285 1 L 15 1 M 15 0 L 285 0 C 293.2842712402344 0 300 6.715728759765625 300 15 L 300 99 C 300 107.2842712402344 293.2842712402344 114 285 114 L 15 114 C 6.715728759765625 114 0 107.2842712402344 0 99 L 0 15 C 0 6.715728759765625 6.715728759765625 0 15 0 Z"></path></g><path class="b" d="M15,0H124a15,15,0,0,1,15,15V132a15,15,0,0,1-15,15H15A15,15,0,0,1,0,132V15A15,15,0,0,1,15,0Z" transform="translate(1021 272)"></path><line class="c" y2="13.901" transform="translate(1018.5 152.889)"></line><line class="d" y2="16.087" transform="translate(1017.5 234.136)"></line><path class="d" d="M258.681,282.285a18.1,18.1,0,0,1,18.1-18.1H539.949a18.1,18.1,0,0,1,18.1,18.1" transform="translate(609.818 -82.406)"></path><path class="d" d="M196.212,350.735a18.1,18.1,0,0,1,18.1-18.1h399.4a18.1,18.1,0,0,1,18.1,18.1" transform="translate(604.288 -82.406)"></path><path d="M.619,0H3.824L5.454-4.386h9.278L16.391,0h3.177L11.64-20.524H8.547Zm9.475-16.7L13.636-7.31H6.551ZM21.93,0h3.065V-22.155H21.93Zm6.663,0h3.065V-22.155H28.594ZM42.23,0H55.669V-2.952H45.238V-8.828H55.669v-2.924H45.238V-17.6H55.669v-2.924H42.23ZM57.665,0h3.711l3.992-5.4L69.446,0h3.739L67.253-7.732l5.6-7.451h-3.6L65.4-10.009l-3.824-5.173H57.918l5.6,7.479ZM83.56.309a7.666,7.666,0,0,0,7.591-7.9,7.6,7.6,0,0,0-7.591-7.9,6.541,6.541,0,0,0-5.23,2.559v-2.249H75.378V6.073H78.33v-8.1A6.405,6.405,0,0,0,83.56.309Zm-.422-2.783a5.012,5.012,0,0,1-5-5.145,5.005,5.005,0,0,1,5-5.117,4.982,4.982,0,0,1,4.976,5.117A5.007,5.007,0,0,1,83.138-2.474ZM101.582.309a7.856,7.856,0,0,0,6.945-3.655l-2.5-1.49a4.906,4.906,0,0,1-4.442,2.446,4.894,4.894,0,0,1-5.145-4.077H109.2V-7.732a7.542,7.542,0,0,0-7.788-7.76,7.814,7.814,0,0,0-7.9,7.957A7.681,7.681,0,0,0,101.582.309Zm-.169-13.13a4.455,4.455,0,0,1,4.723,3.767H96.549A4.957,4.957,0,0,1,101.413-12.821ZM112.125,0h3.036V-8.547c0-2.727,1.378-3.8,3.543-3.8a3.417,3.417,0,0,1,1.912.45l1.181-2.924a5.061,5.061,0,0,0-2.559-.59,4.087,4.087,0,0,0-4.133,2.868v-2.643h-2.98Zm12.062,0h3.065V-15.182h-3.065Zm-.619-19.737a2.075,2.075,0,0,0,2.137,2.165,2.1,2.1,0,0,0,2.165-2.165A2.1,2.1,0,0,0,125.7-21.9,2.091,2.091,0,0,0,123.568-19.737ZM138.245.309a7.856,7.856,0,0,0,6.945-3.655l-2.5-1.49a4.906,4.906,0,0,1-4.442,2.446A4.894,4.894,0,0,1,133.1-6.467h12.764V-7.732a7.542,7.542,0,0,0-7.788-7.76,7.814,7.814,0,0,0-7.9,7.957A7.681,7.681,0,0,0,138.245.309Zm-.169-13.13A4.455,4.455,0,0,1,142.8-9.053h-9.587A4.957,4.957,0,0,1,138.076-12.821ZM148.816,0h3.036V-8.378c0-2.727,1.771-4.442,4.077-4.442,2.53,0,3.88,1.659,3.88,4.245V0h3.065V-8.8c0-4.161-2.39-6.692-6.242-6.692a5.784,5.784,0,0,0-4.836,2.418v-2.109h-2.98ZM173.7.309a7.628,7.628,0,0,0,7.254-4.78L178.2-5.623a4.8,4.8,0,0,1-4.47,3.093,4.992,4.992,0,0,1-5-5.061,4.928,4.928,0,0,1,4.948-5.061,4.706,4.706,0,0,1,4.47,2.98l2.727-1.181a7.669,7.669,0,0,0-7.2-4.639,7.808,7.808,0,0,0-7.929,7.9A7.832,7.832,0,0,0,173.7.309Zm17.207,0a7.856,7.856,0,0,0,6.945-3.655l-2.5-1.49a4.906,4.906,0,0,1-4.442,2.446,4.894,4.894,0,0,1-5.145-4.077h12.764V-7.732a7.542,7.542,0,0,0-7.788-7.76,7.814,7.814,0,0,0-7.9,7.957A7.681,7.681,0,0,0,190.905.309Zm-.169-13.13a4.455,4.455,0,0,1,4.723,3.767h-9.587A4.957,4.957,0,0,1,190.736-12.821ZM206.959.309c4.189.028,6.185-2.587,6.185-4.808,0-3.149-2.868-4.021-5.4-4.555-2.305-.506-3.683-.787-3.683-2,0-1.068.9-1.94,2.755-1.94a3.922,3.922,0,0,1,3.486,1.8l2.615-1.49a7.043,7.043,0,0,0-6.1-2.84c-3.571-.028-5.848,2.165-5.848,4.527,0,3.093,2.727,3.936,5.286,4.47,2,.422,3.852.731,3.852,2.052,0,1.153-1.04,2.137-3.008,2.137a4.574,4.574,0,0,1-4.1-2.249l-2.727,1.546C201.561-.843,203.754.309,206.959.309Z" transform="translate(914 108.5)"></path><path d="M1.279,0h2.8V-10.129L8.331-4.355l4.375-5.874V0h2.757V-14.584H12.846l-4.5,6.014L4.016-14.584H1.279ZM23.015.22a5.669,5.669,0,0,0,4.975-2.5L25.732-3.6a2.941,2.941,0,0,1-2.677,1.438,2.994,2.994,0,0,1-3.1-2.278h8.571V-5.474a5.374,5.374,0,0,0-5.574-5.534A5.569,5.569,0,0,0,17.3-5.374,5.435,5.435,0,0,0,23.015.22Zm-.06-8.89a2.722,2.722,0,0,1,2.837,2.078H20.038A3,3,0,0,1,22.955-8.671ZM30.327,0h2.737V-5.694c0-1.818.919-2.537,2.337-2.537a2.525,2.525,0,0,1,1.438.38l1-2.717a4,4,0,0,0-1.818-.42A2.954,2.954,0,0,0,33.044-9.13v-1.658H30.327ZM41.995.22A4.8,4.8,0,0,0,45.95-1.658V0h2.657V-6.633c0-2.717-1.818-4.375-4.995-4.375a6.03,6.03,0,0,0-5.094,2.457l2.537,1.259a2.688,2.688,0,0,1,2.537-1.418c1.558,0,2.337.8,2.337,1.958v.14H43.093c-3,0-4.855,1.379-4.855,3.616C38.239-1.1,39.637.22,41.995.22Zm.8-2.278c-1.139,0-1.678-.4-1.678-1.179,0-.839.659-1.359,2.3-1.359H45.95v.579A3.557,3.557,0,0,1,42.794-2.058ZM58.177,0h3.157L57.078-6.193l4.056-4.6h-3.3L53.462-5.774v-9.969H50.725V0h2.737V-2.6L55.12-4.455Zm4.355,0h2.817V-10.788H62.532Zm-.36-13.825a1.689,1.689,0,0,0,1.758,1.758,1.694,1.694,0,0,0,1.778-1.758,1.715,1.715,0,0,0-1.778-1.8A1.722,1.722,0,0,0,62.173-13.825ZM72.382,0h2.837V-3.976h2.9A5.269,5.269,0,0,0,83.61-9.29a5.225,5.225,0,0,0-5.474-5.294H72.382Zm5.574-12.007a2.633,2.633,0,0,1,2.8,2.717,2.629,2.629,0,0,1-2.8,2.7H75.219v-5.414ZM85.608,0h2.757V-15.743H85.608Zm8.271.22a4.8,4.8,0,0,0,3.956-1.878V0h2.657V-6.633c0-2.717-1.818-4.375-4.995-4.375A6.03,6.03,0,0,0,90.4-8.551L92.94-7.292a2.688,2.688,0,0,1,2.537-1.418c1.558,0,2.337.8,2.337,1.958v.14H94.977c-3,0-4.855,1.379-4.855,3.616C90.123-1.1,91.521.22,93.879.22Zm.8-2.278c-1.139,0-1.678-.4-1.678-1.179,0-.839.659-1.359,2.3-1.359h2.537v.579A3.557,3.557,0,0,1,94.678-2.058Zm6.952-6.293h2v4.535C103.628-.879,104.947.2,107.2.2a4.266,4.266,0,0,0,2.577-.819l-1.259-2.158a1.42,1.42,0,0,1-1,.4c-.7,0-1.179-.4-1.179-1.538V-8.351h2.837v-2.437h-2.837v-3.936l-2.717,1.6v2.337h-2Zm8.87.04h1.778V0h2.737V-8.311h2.6v-2.477h-2.6v-.519c0-1.638.22-1.918,2.138-1.918h.46v-2.517h-.719c-3.516,0-4.615,1.079-4.615,4.575v.38H110.5ZM123.946.22a5.6,5.6,0,0,0,5.714-5.614,5.616,5.616,0,0,0-5.714-5.614,5.587,5.587,0,0,0-5.694,5.614A5.6,5.6,0,0,0,123.946.22Zm.02-2.617a2.964,2.964,0,0,1-2.957-3.017,2.964,2.964,0,0,1,2.957-3.017,2.976,2.976,0,0,1,2.957,3.017A2.976,2.976,0,0,1,123.966-2.4ZM131.478,0h2.737V-5.694c0-1.818.919-2.537,2.337-2.537a2.525,2.525,0,0,1,1.438.38l1-2.717a4,4,0,0,0-1.818-.42A2.954,2.954,0,0,0,134.2-9.13v-1.658h-2.717Zm8.93,0h2.777V-5.994c0-1.738.819-2.6,2.118-2.6,1.339,0,1.938.839,1.938,2.278V0h2.817V-6.053c0-1.7.819-2.537,2.058-2.537,1.4,0,2,.9,2,2.357V0h2.837V-6.633c0-2.7-1.379-4.375-4.116-4.375a3.846,3.846,0,0,0-3.376,1.818,3.387,3.387,0,0,0-3.3-1.818,3.532,3.532,0,0,0-3,1.5v-1.279h-2.757Z" transform="translate(939 215.831)"></path><line class="e" y2="18.3" transform="translate(945.895 250.222)"></line><line class="e" y2="18.3" transform="translate(1092.764 250.222)"></line><g transform="translate(605.639 -85.118)"><g transform="translate(-2.589 -2.712)"><path class="f" d="M503.989,413.578a2.707,2.707,0,0,0-1.729.634l-2.313-1.788a32.037,32.037,0,0,0,1.509-3.728c.034,0,.065.009.1.009a2.74,2.74,0,0,0,.541-5.426,15.619,15.619,0,0,0-1.97-6.343l1.476-1.085a2.716,2.716,0,0,0,1.78.674,2.741,2.741,0,1,0-2.741-2.741,2.715,2.715,0,0,0,.23,1.092l-1.393,1.025a13.028,13.028,0,0,0-10.716-5.9,12.286,12.286,0,0,0-5.112,1.118,2.731,2.731,0,1,0-4.393,3.245,15.379,15.379,0,0,0-3.878,9.724l-1.62.018a2.732,2.732,0,1,0,.018,1.218l1.6-.019c.18,3.075,1.732,6.278,3.237,9.38l.052.112-1.974,2.186a2.7,2.7,0,0,0-1.331-.361,2.754,2.754,0,1,0,2.239,1.171l1.636-1.811c.521,1.1,1.022,2.208,1.436,3.292H480.5a.609.609,0,0,0,0,1.218h.662a1.76,1.76,0,0,1,0,2.188H480.5a.609.609,0,0,0,0,1.218h.661a1.794,1.794,0,0,1,0,2.189H480.5a.609.609,0,1,0,0,1.217h1.918a3.5,3.5,0,0,0,3.437,2.887h5.8a3.5,3.5,0,0,0,3.439-2.887h1.85a.609.609,0,1,0,0-1.217h-.594a1.794,1.794,0,0,1,0-2.189h.594a.609.609,0,1,0,0-1.218h-.6a1.764,1.764,0,0,1,0-2.188h.6a.609.609,0,1,0,0-1.218H496.8c.6-1.594,1.378-3.214,2.149-4.792.153-.311.306-.623.457-.936l2.1,1.623a2.736,2.736,0,1,0,2.48-1.592Zm-.608-21.318a1.522,1.522,0,1,1-1.522,1.522A1.524,1.524,0,0,1,503.381,392.26Zm-28.016,28.626a1.523,1.523,0,1,1,1.521-1.524A1.525,1.525,0,0,1,475.365,420.886Zm23.6-9.227-4.556-3.521a6.65,6.65,0,0,0,.92-2.253l3.52.391a2.723,2.723,0,0,0,1.439,2.1A29.81,29.81,0,0,1,498.961,411.659Zm-15.68-7.115a5.481,5.481,0,1,1,5.481,5.481A5.487,5.487,0,0,1,483.28,404.544Zm19.8,1.421a1.522,1.522,0,1,1-1.524-1.524A1.526,1.526,0,0,1,503.077,405.964Zm-2.217-2.641a2.739,2.739,0,0,0-1.883,1.742l-3.522-.392c0-.044.006-.086.006-.129a6.649,6.649,0,0,0-.972-3.459l4.645-3.421A14.4,14.4,0,0,1,500.86,403.323Zm-12.1-12.106a11.812,11.812,0,0,1,9.731,5.408l-4.728,3.48a6.647,6.647,0,0,0-7.993-1.547l-2.4-3.869a2.691,2.691,0,0,0,.765-2.459A11.081,11.081,0,0,1,488.761,391.217Zm-7.308,0a1.523,1.523,0,1,1-1.522,1.522A1.524,1.524,0,0,1,481.453,391.217Zm-1.276,3.934a2.693,2.693,0,0,0,1.276.331,2.722,2.722,0,0,0,.882-.16l2.4,3.878a6.694,6.694,0,0,0-2.648,4.81l-5.492.062A14.17,14.17,0,0,1,480.177,395.151ZM471.1,406.268a1.523,1.523,0,1,1,1.521-1.522A1.523,1.523,0,0,1,471.1,406.268Zm5.5-.977,5.5-.062a6.666,6.666,0,0,0,1.747,3.847l-4.29,4.745C478.164,410.951,476.778,408.007,476.6,405.292Zm5.945,15.2h12.419a3.016,3.016,0,0,0,0,2.188H482.545A3.022,3.022,0,0,0,482.545,420.493Zm9.108,8.482h-5.8a2.28,2.28,0,0,1-2.194-1.668h10.188A2.281,2.281,0,0,1,491.653,428.975Zm-9.108-2.885a3.025,3.025,0,0,0,0-2.189h12.419a3.019,3.019,0,0,0,0,2.189Zm15.315-12.143a51.032,51.032,0,0,0-2.352,5.328H481.976c-.512-1.416-1.174-2.855-1.852-4.268l4.622-5.113a6.658,6.658,0,0,0,8.912-.794l4.767,3.686C498.24,413.171,498.051,413.557,497.86,413.947Zm6.129,3.893a1.522,1.522,0,1,1,1.524-1.522A1.525,1.525,0,0,1,503.989,417.84Z" transform="translate(0)"></path><path class="f" d="M486.266,405.431l2.346-4.344a.527.527,0,1,0-.927-.5l-1.986,3.677-1.38-1.575a.527.527,0,0,0-.793.7l1.88,2.145a.532.532,0,0,0,.4.179.587.587,0,0,0,.059,0A.525.525,0,0,0,486.266,405.431Z" transform="translate(2.789 1.904)"></path></g></g><rect class="g" width="139" height="147" rx="15" transform="translate(1166 272)"></rect><g transform="translate(603.495 -85.125)"><g transform="translate(622.087 415.569)"><path class="h" d="M621.65,416.938v-3.68h17.173V426.75H621.65" transform="translate(-621.037 -413.258)"></path><path class="h" d="M621.037,423.071l5.52-4.906,5.52,5.52" transform="translate(-621.037 -413.258)"></path><path class="h" d="M630.85,422.457,633.3,420l5.52,5.52" transform="translate(-621.037 -413.258)"></path><circle class="h" cx="1.227" cy="1.227" r="1.227" transform="translate(12.879 2.453)"></circle></g><g transform="translate(633.162 400.237)"><path class="h" d="M642.5,425.524h6.745a.615.615,0,0,0,.615-.613v-20.24l-7.36-6.746H631.463a.613.613,0,0,0-.613.613v11.04" transform="translate(-630.85 -397.925)"></path><path class="h" d="M649.862,404.671h-6.133a.612.612,0,0,1-.613-.613v-1.226" transform="translate(-630.85 -397.925)"></path><line class="h" x2="7.973" transform="translate(5.519 11.04)"></line><line class="h" x2="1.84" transform="translate(11.652 15.333)"></line></g><g transform="translate(611.837 388.725)"><path class="h" d="M621.209,409.578a9.831,9.831,0,0,1,5.961-10.94" transform="translate(-611.089 -387.758)"></path><path class="h" d="M648.316,398.366a1.307,1.307,0,0,0,0-1.85l-3.7-3.7a1.309,1.309,0,0,0-1.851,0l-.651.651a1.309,1.309,0,0,1-1.426.284l-3.83-1.586a1.308,1.308,0,0,1-.809-1.209v-.921a1.309,1.309,0,0,0-1.308-1.309H629.5a1.309,1.309,0,0,0-1.308,1.309v.921a1.309,1.309,0,0,1-.808,1.209l-3.831,1.586a1.309,1.309,0,0,1-1.426-.284l-.651-.651a1.309,1.309,0,0,0-1.851,0l-3.7,3.7a1.307,1.307,0,0,0,0,1.85l.651.651a1.308,1.308,0,0,1,.284,1.426l-1.586,3.831a1.31,1.31,0,0,1-1.21.808h-.92a1.309,1.309,0,0,0-1.309,1.309v5.233a1.309,1.309,0,0,0,1.309,1.309h.92a1.31,1.31,0,0,1,1.21.808l1.586,3.831a1.306,1.306,0,0,1-.284,1.425l-.651.651a1.309,1.309,0,0,0,0,1.851l3.7,3.7a1.539,1.539,0,0,0,2.024.164" transform="translate(-611.837 -388.725)"></path></g></g><path d="M-53.063,0h-3.38V-9.535h3.408a5.071,5.071,0,0,1,2.477.57,3.892,3.892,0,0,1,1.6,1.636A5.412,5.412,0,0,1-48.4-4.777a5.451,5.451,0,0,1-.561,2.561A3.889,3.889,0,0,1-50.566-.573,5.125,5.125,0,0,1-53.063,0Zm-1.364-1.727h1.28a3.232,3.232,0,0,0,1.506-.319,2.039,2.039,0,0,0,.922-.992,4.184,4.184,0,0,0,.31-1.739,4.14,4.14,0,0,0-.31-1.727,2.031,2.031,0,0,0-.919-.987,3.237,3.237,0,0,0-1.5-.317h-1.285ZM-45.145,0h-2.16l3.291-9.535h2.6L-38.129,0h-2.16l-2.388-7.356h-.074Zm-.135-3.748h5.1v1.574h-5.1Zm7.415-4.125V-9.535h7.831v1.662h-2.919V0h-1.993V-7.873ZM-27.614,0h-2.16l3.291-9.535h2.6L-20.6,0h-2.16l-2.388-7.356h-.074Zm-.135-3.748h5.1v1.574h-5.1Zm13.37-1.806V-3.98h-4.348V-5.554ZM-12,0V-9.535h3.762a3.844,3.844,0,0,1,1.848.412A2.839,2.839,0,0,1-5.221-7.982a3.412,3.412,0,0,1,.4,1.678,3.353,3.353,0,0,1-.41,1.676A2.828,2.828,0,0,1-6.413-3.5a4,4,0,0,1-1.874.405h-2.4V-4.707h2.072a2.029,2.029,0,0,0,.961-.2,1.327,1.327,0,0,0,.568-.563A1.768,1.768,0,0,0-6.894-6.3a1.751,1.751,0,0,0-.189-.831,1.3,1.3,0,0,0-.57-.554,2.1,2.1,0,0,0-.968-.2H-9.981V0ZM5.912-4.767a5.532,5.532,0,0,1-.589,2.654,4.1,4.1,0,0,1-1.6,1.669A4.524,4.524,0,0,1,1.447.13,4.515,4.515,0,0,1-.834-.447a4.11,4.11,0,0,1-1.6-1.671,5.539,5.539,0,0,1-.587-2.649,5.55,5.55,0,0,1,.587-2.654A4.094,4.094,0,0,1-.834-9.09a4.53,4.53,0,0,1,2.281-.575,4.524,4.524,0,0,1,2.274.575,4.1,4.1,0,0,1,1.6,1.669A5.532,5.532,0,0,1,5.912-4.767Zm-2.044,0a4.289,4.289,0,0,0-.3-1.7,2.32,2.32,0,0,0-.845-1.052,2.267,2.267,0,0,0-1.276-.358,2.267,2.267,0,0,0-1.276.358A2.32,2.32,0,0,0-.673-6.471a4.289,4.289,0,0,0-.3,1.7,4.289,4.289,0,0,0,.3,1.7A2.32,2.32,0,0,0,.172-2.011a2.267,2.267,0,0,0,1.276.358,2.267,2.267,0,0,0,1.276-.358,2.32,2.32,0,0,0,.845-1.052A4.289,4.289,0,0,0,3.868-4.767ZM9.845,0,7.117-9.535h2.2L10.9-2.91h.079l1.741-6.625H14.6L16.34-2.9h.084L18-9.535h2.2L17.476,0H15.511L13.7-6.234h-.074L11.81,0ZM21.935,0V-9.535h6.425v1.662H23.95V-5.6h4.078v1.662H23.95v2.277h4.427V0Zm8.686,0V-9.535h3.762a4.08,4.08,0,0,1,1.846.384A2.712,2.712,0,0,1,37.4-8.066a3.246,3.246,0,0,1,.4,1.646,3.111,3.111,0,0,1-.41,1.632,2.654,2.654,0,0,1-1.185,1.045,4.392,4.392,0,0,1-1.874.363H31.813V-5h2.193a2.518,2.518,0,0,0,.959-.158,1.152,1.152,0,0,0,.57-.475,1.515,1.515,0,0,0,.189-.787,1.576,1.576,0,0,0-.189-.8,1.2,1.2,0,0,0-.573-.5A2.394,2.394,0,0,0,34-7.886H32.637V0ZM35.77-4.339,38.14,0H35.914L33.6-4.339ZM39.88,0V-9.535H46.3v1.662H41.9V-5.6h4.078v1.662H41.9v2.277h4.427V0ZM51.946,0h-3.38V-9.535h3.408a5.071,5.071,0,0,1,2.477.57,3.892,3.892,0,0,1,1.6,1.636,5.412,5.412,0,0,1,.561,2.551,5.451,5.451,0,0,1-.561,2.561A3.889,3.889,0,0,1,54.444-.573,5.125,5.125,0,0,1,51.946,0ZM50.582-1.727h1.28a3.232,3.232,0,0,0,1.506-.319,2.039,2.039,0,0,0,.922-.992,4.184,4.184,0,0,0,.31-1.739A4.14,4.14,0,0,0,54.29-6.5a2.031,2.031,0,0,0-.919-.987,3.237,3.237,0,0,0-1.5-.317H50.582ZM-38.291,13.335V3.8h3.762a3.844,3.844,0,0,1,1.848.412,2.839,2.839,0,0,1,1.166,1.141,3.412,3.412,0,0,1,.4,1.678,3.353,3.353,0,0,1-.41,1.676,2.828,2.828,0,0,1-1.185,1.131,4,4,0,0,1-1.874.405h-2.4V8.629h2.072a2.029,2.029,0,0,0,.961-.2,1.327,1.327,0,0,0,.568-.563,1.768,1.768,0,0,0,.189-.831,1.751,1.751,0,0,0-.189-.831,1.3,1.3,0,0,0-.57-.554,2.1,2.1,0,0,0-.968-.2h-1.359v7.886Zm9.147,0V3.8h3.762a4.08,4.08,0,0,1,1.846.384A2.712,2.712,0,0,1-22.368,5.27a3.246,3.246,0,0,1,.4,1.646,3.111,3.111,0,0,1-.41,1.632,2.654,2.654,0,0,1-1.185,1.045,4.392,4.392,0,0,1-1.874.363h-2.519V8.335h2.193a2.518,2.518,0,0,0,.959-.158,1.152,1.152,0,0,0,.57-.475,1.515,1.515,0,0,0,.189-.787,1.576,1.576,0,0,0-.189-.8,1.2,1.2,0,0,0-.573-.5,2.394,2.394,0,0,0-.966-.17h-1.359v7.886ZM-23.995,9l2.37,4.339H-23.85L-26.169,9Zm12.872-.428a5.532,5.532,0,0,1-.589,2.654,4.1,4.1,0,0,1-1.6,1.669,4.524,4.524,0,0,1-2.274.575,4.515,4.515,0,0,1-2.281-.577,4.11,4.11,0,0,1-1.6-1.671,5.539,5.539,0,0,1-.587-2.649,5.55,5.55,0,0,1,.587-2.654,4.094,4.094,0,0,1,1.6-1.669,4.53,4.53,0,0,1,2.281-.575,4.524,4.524,0,0,1,2.274.575,4.1,4.1,0,0,1,1.6,1.669A5.532,5.532,0,0,1-11.123,8.568Zm-2.044,0a4.289,4.289,0,0,0-.3-1.7,2.32,2.32,0,0,0-.845-1.052,2.267,2.267,0,0,0-1.276-.358,2.267,2.267,0,0,0-1.276.358,2.32,2.32,0,0,0-.845,1.052,4.289,4.289,0,0,0-.3,1.7,4.289,4.289,0,0,0,.3,1.7,2.32,2.32,0,0,0,.845,1.052,2.267,2.267,0,0,0,1.276.358,2.267,2.267,0,0,0,1.276-.358,2.32,2.32,0,0,0,.845-1.052A4.289,4.289,0,0,0-13.167,8.568ZM-5.6,13.335h-3.38V3.8H-5.57a5.071,5.071,0,0,1,2.477.57,3.892,3.892,0,0,1,1.6,1.636A5.412,5.412,0,0,1-.933,8.559a5.451,5.451,0,0,1-.561,2.561A3.889,3.889,0,0,1-3.1,12.763,5.125,5.125,0,0,1-5.6,13.335Zm-1.364-1.727h1.28a3.232,3.232,0,0,0,1.506-.319,2.039,2.039,0,0,0,.922-.992,4.184,4.184,0,0,0,.31-1.739,4.14,4.14,0,0,0-.31-1.727,2.031,2.031,0,0,0-.919-.987,3.237,3.237,0,0,0-1.5-.317H-6.962ZM7.1,3.8H9.117V9.993a3.242,3.242,0,0,1-1.881,3.042,4.659,4.659,0,0,1-2.072.435,4.67,4.67,0,0,1-2.076-.435,3.316,3.316,0,0,1-1.383-1.217,3.347,3.347,0,0,1-.493-1.825V3.8H3.228V9.82a1.932,1.932,0,0,0,.24.968,1.715,1.715,0,0,0,.677.666,2.072,2.072,0,0,0,1.02.242,2.069,2.069,0,0,0,1.022-.242,1.719,1.719,0,0,0,.675-.666A1.932,1.932,0,0,0,7.1,9.82ZM19.843,7.139H17.8a2.017,2.017,0,0,0-.228-.705,1.8,1.8,0,0,0-.442-.528,1.951,1.951,0,0,0-.622-.335,2.408,2.408,0,0,0-.761-.116,2.274,2.274,0,0,0-1.29.365,2.366,2.366,0,0,0-.852,1.061,4.223,4.223,0,0,0-.3,1.688,4.257,4.257,0,0,0,.3,1.713,2.206,2.206,0,0,0,2.125,1.4,2.537,2.537,0,0,0,.752-.107,1.947,1.947,0,0,0,.617-.314,1.8,1.8,0,0,0,.449-.505,2.007,2.007,0,0,0,.249-.68l2.039.009a3.7,3.7,0,0,1-.393,1.264,3.818,3.818,0,0,1-.843,1.085,3.944,3.944,0,0,1-1.257.754,4.6,4.6,0,0,1-1.646.277,4.486,4.486,0,0,1-2.279-.577,4.078,4.078,0,0,1-1.583-1.671,5.6,5.6,0,0,1-.58-2.649,5.55,5.55,0,0,1,.587-2.654,4.1,4.1,0,0,1,1.592-1.669A4.476,4.476,0,0,1,15.7,3.67a4.912,4.912,0,0,1,1.539.233,3.925,3.925,0,0,1,1.259.677,3.553,3.553,0,0,1,.9,1.087A4.072,4.072,0,0,1,19.843,7.139Zm1.74-1.676V3.8h7.831V5.463H26.495v7.873H24.5V5.463Zm14.953,1.08a1.178,1.178,0,0,0-.48-.875,1.9,1.9,0,0,0-1.15-.312,2.23,2.23,0,0,0-.833.137,1.172,1.172,0,0,0-.519.379.9.9,0,0,0-.179.549.773.773,0,0,0,.109.447,1.068,1.068,0,0,0,.328.328,2.344,2.344,0,0,0,.484.237,4.732,4.732,0,0,0,.587.17l.857.2a6.042,6.042,0,0,1,1.145.372,3.479,3.479,0,0,1,.9.573,2.408,2.408,0,0,1,.594.8,2.554,2.554,0,0,1,.216,1.057,2.635,2.635,0,0,1-.445,1.515,2.833,2.833,0,0,1-1.266.992,5.073,5.073,0,0,1-1.99.351,5.227,5.227,0,0,1-2.009-.354,2.924,2.924,0,0,1-1.331-1.05,3.108,3.108,0,0,1-.5-1.725h1.951a1.441,1.441,0,0,0,.277.8,1.485,1.485,0,0,0,.656.48,2.554,2.554,0,0,0,.933.161,2.433,2.433,0,0,0,.892-.149,1.364,1.364,0,0,0,.589-.414.957.957,0,0,0,.209-.61.8.8,0,0,0-.189-.54,1.472,1.472,0,0,0-.549-.372,5.675,5.675,0,0,0-.882-.279l-1.038-.261A4.353,4.353,0,0,1,32,8.237a2.128,2.128,0,0,1-.694-1.681,2.49,2.49,0,0,1,.463-1.513,3.092,3.092,0,0,1,1.287-1.01A4.552,4.552,0,0,1,34.92,3.67a4.422,4.422,0,0,1,1.855.363,2.934,2.934,0,0,1,1.236,1.01,2.673,2.673,0,0,1,.456,1.5Z" transform="translate(1236 373.507)"></path><rect class="i" width="139" height="147" rx="15" transform="translate(730 272)"></rect><g transform="translate(603.818 -89.098)"><g transform="translate(175.794 391.113)"><path class="h" d="M216.141,425.941v-32.7a2.11,2.11,0,0,0-2.087-2.132H177.881a2.11,2.11,0,0,0-2.087,2.132v32.7" transform="translate(-175.794 -391.113)"></path><circle class="h" cx="1.227" cy="1.227" r="1.227" transform="translate(3.067 2.454)"></circle><circle class="h" cx="1.227" cy="1.227" r="1.227" transform="translate(9.123 2.454)"></circle><line class="h" x2="40.348" transform="translate(0 8.53)"></line><line class="h" y2="7.36" transform="translate(35.441 0)"></line></g><circle class="h" cx="3.067" cy="3.067" r="3.067" transform="translate(192.901 412.498)"></circle><rect class="h" width="11.04" height="4.906" rx="1.227" transform="translate(190.448 403.163)"></rect><rect class="h" width="6.133" height="6.133" rx="1.227" transform="translate(205.715 412.498)"></rect><rect class="h" width="6.133" height="6.133" rx="1.227" transform="translate(180.087 412.498)"></rect><rect class="h" width="6.133" height="6.133" rx="1.227" transform="translate(192.901 425.328)"></rect><rect class="h" width="6.133" height="6.133" rx="1.227" transform="translate(205.715 425.328)"></rect><rect class="h" width="6.133" height="6.133" rx="1.227" transform="translate(180.087 425.328)"></rect><line class="h" y2="3.067" transform="translate(195.968 408.699)"></line><line class="h" x1="4.293" transform="translate(187.812 415.461)"></line><line class="h" x2="4.293" transform="translate(199.83 415.461)"></line><line class="h" y2="4.906" transform="translate(184.141 419.466)"></line><line class="h" y2="4.906" transform="translate(207.794 419.466)"></line><line class="h" y2="4.906" transform="translate(195.968 419.466)"></line></g><path d="M-38.378-3.636a7.994,7.994,0,0,1,.353-2.433,6.688,6.688,0,0,1,1.081-2.06H-35.5a4.428,4.428,0,0,0-.515.858,7.739,7.739,0,0,0-.415,1.11,9.613,9.613,0,0,0-.277,1.248,8.363,8.363,0,0,0-.1,1.277,8.613,8.613,0,0,0,.172,1.7,8.973,8.973,0,0,0,.469,1.593A4.912,4.912,0,0,0-35.5.859h-1.445A6.688,6.688,0,0,1-38.025-1.2,8.007,8.007,0,0,1-38.378-3.636ZM-32.839,0h-1.648l2.511-7.273h1.982L-27.487,0h-1.648l-1.822-5.611h-.057Zm-.1-2.859h3.892v1.2h-3.892ZM-26.114,0V-7.273h2.869a2.932,2.932,0,0,1,1.41.314,2.166,2.166,0,0,1,.89.87,2.6,2.6,0,0,1,.307,1.28A2.557,2.557,0,0,1-20.95-3.53a2.157,2.157,0,0,1-.9.863,3.053,3.053,0,0,1-1.429.309h-1.829V-3.59h1.58a1.548,1.548,0,0,0,.733-.154,1.012,1.012,0,0,0,.433-.43,1.349,1.349,0,0,0,.144-.634,1.335,1.335,0,0,0-.144-.634,1,1,0,0,0-.435-.423,1.6,1.6,0,0,0-.739-.151h-1.037V0ZM-17.6-7.273V0h-1.538V-7.273Zm3.007,0v.767a1.9,1.9,0,0,1-.126.666,2.843,2.843,0,0,1-.336.639,2.629,2.629,0,0,1-.458.51l-.668-.394a3.813,3.813,0,0,0,.314-.621,2.118,2.118,0,0,0,.137-.792v-.774Zm5.486,2.092a.9.9,0,0,0-.366-.668,1.45,1.45,0,0,0-.877-.238,1.7,1.7,0,0,0-.636.1.894.894,0,0,0-.4.289.686.686,0,0,0-.137.419.59.59,0,0,0,.083.341.814.814,0,0,0,.25.25,1.788,1.788,0,0,0,.369.181,3.61,3.61,0,0,0,.447.13l.653.156a4.609,4.609,0,0,1,.874.284,2.654,2.654,0,0,1,.689.437,1.836,1.836,0,0,1,.453.611,1.948,1.948,0,0,1,.165.806A2.01,2.01,0,0,1-7.872-.922a2.161,2.161,0,0,1-.966.756A3.87,3.87,0,0,1-10.356.1a3.987,3.987,0,0,1-1.532-.27,2.23,2.23,0,0,1-1.016-.8,2.371,2.371,0,0,1-.382-1.316H-11.8a1.1,1.1,0,0,0,.211.609,1.133,1.133,0,0,0,.5.366,1.948,1.948,0,0,0,.712.123,1.856,1.856,0,0,0,.68-.114,1.041,1.041,0,0,0,.449-.316.73.73,0,0,0,.16-.465.609.609,0,0,0-.144-.412,1.123,1.123,0,0,0-.419-.284,4.329,4.329,0,0,0-.673-.213l-.792-.2a3.321,3.321,0,0,1-1.452-.7,1.623,1.623,0,0,1-.529-1.282,1.9,1.9,0,0,1,.353-1.154,2.359,2.359,0,0,1,.982-.771,3.472,3.472,0,0,1,1.42-.277A3.373,3.373,0,0,1-8.923-7.1a2.238,2.238,0,0,1,.943.771,2.039,2.039,0,0,1,.348,1.143ZM-.982.107a2.908,2.908,0,0,1-1.3-.27A2.025,2.025,0,0,1-3.122-.9a1.9,1.9,0,0,1-.293-1.035,1.626,1.626,0,0,1,.17-.756A2.179,2.179,0,0,1-2.768-3.3a6.484,6.484,0,0,1,.71-.556l1.41-.927a1.318,1.318,0,0,0,.4-.368.748.748,0,0,0,.128-.421.575.575,0,0,0-.174-.4.635.635,0,0,0-.494-.181.7.7,0,0,0-.369.094.679.679,0,0,0-.243.245.66.66,0,0,0-.087.336.959.959,0,0,0,.128.462,3.277,3.277,0,0,0,.341.5q.213.261.465.563L2.9,0H1.319L-1.558-3.2q-.284-.323-.566-.676a3.792,3.792,0,0,1-.471-.753A2.011,2.011,0,0,1-2.783-5.5a1.852,1.852,0,0,1,.247-.952,1.783,1.783,0,0,1,.694-.669A2.127,2.127,0,0,1-.8-7.369a2.039,2.039,0,0,1,1.007.236,1.7,1.7,0,0,1,.653.625,1.652,1.652,0,0,1,.229.854,1.758,1.758,0,0,1-.254.932,2.586,2.586,0,0,1-.712.748L-1.359-2.9a1.694,1.694,0,0,0-.446.449.828.828,0,0,0-.144.439.864.864,0,0,0,.128.465.888.888,0,0,0,.362.325,1.2,1.2,0,0,0,.55.119A1.769,1.769,0,0,0-.15-1.284a2.253,2.253,0,0,0,.682-.5,2.5,2.5,0,0,0,.492-.772,2.573,2.573,0,0,0,.185-.991H2.462a4.576,4.576,0,0,1-.146,1.2,3.243,3.243,0,0,1-.4.93,2.553,2.553,0,0,1-.593.648l-.206.128L.907-.511A2.573,2.573,0,0,1,0-.039,3.505,3.505,0,0,1-.982.107ZM8.129,0H6.481L8.991-7.273h1.982L13.48,0H11.832L10.011-5.611H9.954Zm-.1-2.859h3.892v1.2H8.026ZM14.854,0V-7.273h2.869a2.932,2.932,0,0,1,1.41.314,2.166,2.166,0,0,1,.89.87,2.6,2.6,0,0,1,.307,1.28,2.557,2.557,0,0,1-.312,1.278,2.157,2.157,0,0,1-.9.863,3.053,3.053,0,0,1-1.429.309H15.855V-3.59h1.58a1.548,1.548,0,0,0,.733-.154,1.012,1.012,0,0,0,.433-.43,1.349,1.349,0,0,0,.144-.634,1.335,1.335,0,0,0-.144-.634,1,1,0,0,0-.435-.423,1.6,1.6,0,0,0-.739-.151H16.391V0Zm6.977,0V-7.273H24.7a2.932,2.932,0,0,1,1.41.314,2.166,2.166,0,0,1,.89.87,2.6,2.6,0,0,1,.307,1.28,2.557,2.557,0,0,1-.312,1.278,2.157,2.157,0,0,1-.9.863,3.053,3.053,0,0,1-1.429.309H22.832V-3.59h1.58a1.548,1.548,0,0,0,.733-.154,1.012,1.012,0,0,0,.433-.43,1.349,1.349,0,0,0,.144-.634,1.335,1.335,0,0,0-.144-.634,1,1,0,0,0-.435-.423,1.6,1.6,0,0,0-.739-.151H23.369V0ZM32.754-5.181a.9.9,0,0,0-.366-.668,1.45,1.45,0,0,0-.877-.238,1.7,1.7,0,0,0-.636.1.894.894,0,0,0-.4.289.686.686,0,0,0-.137.419.59.59,0,0,0,.083.341.814.814,0,0,0,.25.25,1.788,1.788,0,0,0,.369.181,3.61,3.61,0,0,0,.447.13l.653.156a4.609,4.609,0,0,1,.874.284,2.654,2.654,0,0,1,.689.437,1.836,1.836,0,0,1,.453.611,1.948,1.948,0,0,1,.165.806,2.01,2.01,0,0,1-.339,1.156,2.161,2.161,0,0,1-.966.756A3.87,3.87,0,0,1,31.5.1a3.987,3.987,0,0,1-1.532-.27,2.23,2.23,0,0,1-1.016-.8,2.371,2.371,0,0,1-.382-1.316h1.488a1.1,1.1,0,0,0,.211.609,1.133,1.133,0,0,0,.5.366,1.948,1.948,0,0,0,.712.123,1.856,1.856,0,0,0,.68-.114,1.041,1.041,0,0,0,.449-.316.73.73,0,0,0,.16-.465.609.609,0,0,0-.144-.412,1.123,1.123,0,0,0-.419-.284,4.329,4.329,0,0,0-.673-.213l-.792-.2a3.321,3.321,0,0,1-1.452-.7,1.623,1.623,0,0,1-.529-1.282,1.9,1.9,0,0,1,.353-1.154A2.359,2.359,0,0,1,30.1-7.1a3.472,3.472,0,0,1,1.42-.277,3.373,3.373,0,0,1,1.415.277,2.238,2.238,0,0,1,.943.771,2.039,2.039,0,0,1,.348,1.143Zm5.624,1.545A8.007,8.007,0,0,1,38.025-1.2,6.688,6.688,0,0,1,36.943.859H35.5A4.409,4.409,0,0,0,36.013,0a7.846,7.846,0,0,0,.415-1.11,9.526,9.526,0,0,0,.277-1.248,8.4,8.4,0,0,0,.1-1.278,8.613,8.613,0,0,0-.172-1.7,8.924,8.924,0,0,0-.469-1.591,4.92,4.92,0,0,0-.666-1.2h1.445a6.688,6.688,0,0,1,1.081,2.06A7.994,7.994,0,0,1,38.378-3.636Z" transform="translate(798.067 386.414)"></path><path d="M-43.591,0V-9.535h6.425v1.662h-4.409V-5.6H-37.5v1.662h-4.078v2.277h4.427V0Zm17.1-6.2h-2.039a2.017,2.017,0,0,0-.228-.705A1.8,1.8,0,0,0-29.2-7.43a1.951,1.951,0,0,0-.622-.335,2.408,2.408,0,0,0-.761-.116,2.274,2.274,0,0,0-1.29.365,2.366,2.366,0,0,0-.852,1.061,4.223,4.223,0,0,0-.3,1.688,4.257,4.257,0,0,0,.3,1.713,2.307,2.307,0,0,0,.854,1.047,2.3,2.3,0,0,0,1.271.354,2.537,2.537,0,0,0,.752-.107,1.947,1.947,0,0,0,.617-.314,1.8,1.8,0,0,0,.449-.505,2.007,2.007,0,0,0,.249-.68l2.039.009a3.7,3.7,0,0,1-.393,1.264A3.818,3.818,0,0,1-27.728-.9a3.944,3.944,0,0,1-1.257.754A4.6,4.6,0,0,1-30.631.13,4.486,4.486,0,0,1-32.91-.447a4.078,4.078,0,0,1-1.583-1.671,5.6,5.6,0,0,1-.58-2.649,5.55,5.55,0,0,1,.587-2.654A4.1,4.1,0,0,1-32.893-9.09a4.476,4.476,0,0,1,2.263-.575,4.912,4.912,0,0,1,1.539.233,3.925,3.925,0,0,1,1.259.677,3.553,3.553,0,0,1,.9,1.087A4.072,4.072,0,0,1-26.492-6.2Zm10.865,1.429a5.532,5.532,0,0,1-.589,2.654,4.1,4.1,0,0,1-1.6,1.669A4.524,4.524,0,0,1-20.091.13a4.515,4.515,0,0,1-2.281-.577,4.11,4.11,0,0,1-1.6-1.671,5.539,5.539,0,0,1-.587-2.649,5.55,5.55,0,0,1,.587-2.654,4.094,4.094,0,0,1,1.6-1.669,4.53,4.53,0,0,1,2.281-.575,4.524,4.524,0,0,1,2.274.575,4.1,4.1,0,0,1,1.6,1.669A5.532,5.532,0,0,1-15.627-4.767Zm-2.044,0a4.289,4.289,0,0,0-.3-1.7,2.32,2.32,0,0,0-.845-1.052,2.267,2.267,0,0,0-1.276-.358,2.267,2.267,0,0,0-1.276.358,2.32,2.32,0,0,0-.845,1.052,4.289,4.289,0,0,0-.3,1.7,4.289,4.289,0,0,0,.3,1.7,2.32,2.32,0,0,0,.845,1.052,2.267,2.267,0,0,0,1.276.358,2.267,2.267,0,0,0,1.276-.358,2.32,2.32,0,0,0,.845-1.052A4.289,4.289,0,0,0-17.671-4.767Zm9.361-2.025a1.178,1.178,0,0,0-.48-.875,1.9,1.9,0,0,0-1.15-.312,2.23,2.23,0,0,0-.833.137,1.172,1.172,0,0,0-.519.379.9.9,0,0,0-.179.549.773.773,0,0,0,.109.447,1.068,1.068,0,0,0,.328.328,2.344,2.344,0,0,0,.484.237,4.732,4.732,0,0,0,.587.17l.857.2a6.042,6.042,0,0,1,1.145.372,3.479,3.479,0,0,1,.9.573,2.408,2.408,0,0,1,.594.8,2.554,2.554,0,0,1,.216,1.057,2.635,2.635,0,0,1-.445,1.515,2.833,2.833,0,0,1-1.266.992,5.073,5.073,0,0,1-1.99.351,5.227,5.227,0,0,1-2.009-.354,2.924,2.924,0,0,1-1.331-1.05,3.108,3.108,0,0,1-.5-1.725h1.951a1.441,1.441,0,0,0,.277.8,1.485,1.485,0,0,0,.656.48,2.554,2.554,0,0,0,.933.161A2.433,2.433,0,0,0-9.08-1.7a1.364,1.364,0,0,0,.589-.414.957.957,0,0,0,.21-.61.8.8,0,0,0-.189-.54,1.472,1.472,0,0,0-.549-.372A5.675,5.675,0,0,0-9.9-3.92l-1.038-.261a4.353,4.353,0,0,1-1.9-.917,2.128,2.128,0,0,1-.694-1.681,2.49,2.49,0,0,1,.463-1.513A3.092,3.092,0,0,1-11.787-9.3a4.552,4.552,0,0,1,1.862-.363A4.422,4.422,0,0,1-8.069-9.3a2.934,2.934,0,0,1,1.236,1.01,2.673,2.673,0,0,1,.456,1.5ZM-4.8-9.535h2.258L-.368-5.428h.093L1.9-9.535H4.157L.68-3.371V0h-2V-3.371ZM11.084-6.792a1.178,1.178,0,0,0-.48-.875,1.9,1.9,0,0,0-1.15-.312,2.23,2.23,0,0,0-.833.137,1.172,1.172,0,0,0-.519.379.9.9,0,0,0-.179.549.773.773,0,0,0,.109.447,1.068,1.068,0,0,0,.328.328,2.344,2.344,0,0,0,.484.237,4.732,4.732,0,0,0,.587.17l.857.2a6.042,6.042,0,0,1,1.145.372,3.479,3.479,0,0,1,.9.573,2.408,2.408,0,0,1,.594.8,2.554,2.554,0,0,1,.216,1.057A2.635,2.635,0,0,1,12.7-1.208a2.833,2.833,0,0,1-1.266.992,5.073,5.073,0,0,1-1.99.351A5.227,5.227,0,0,1,7.436-.219,2.924,2.924,0,0,1,6.1-1.269a3.108,3.108,0,0,1-.5-1.725H7.555a1.441,1.441,0,0,0,.277.8,1.485,1.485,0,0,0,.656.48,2.554,2.554,0,0,0,.933.161,2.433,2.433,0,0,0,.892-.149,1.364,1.364,0,0,0,.589-.414.957.957,0,0,0,.21-.61.8.8,0,0,0-.189-.54,1.472,1.472,0,0,0-.549-.372,5.675,5.675,0,0,0-.882-.279L8.454-4.181a4.353,4.353,0,0,1-1.9-.917,2.128,2.128,0,0,1-.694-1.681,2.49,2.49,0,0,1,.463-1.513A3.092,3.092,0,0,1,7.606-9.3a4.552,4.552,0,0,1,1.862-.363,4.422,4.422,0,0,1,1.855.363,2.934,2.934,0,0,1,1.236,1.01,2.673,2.673,0,0,1,.456,1.5Zm3.7-1.08V-9.535h7.831v1.662H19.7V0H17.708V-7.873ZM24.569,0V-9.535h6.425v1.662H26.585V-5.6h4.078v1.662H26.585v2.277h4.427V0Zm8.686-9.535h2.486l2.626,6.406h.112L41.1-9.535h2.486V0H41.635V-6.206h-.079L39.089-.047H37.757L35.29-6.229h-.079V0H33.255Z" transform="translate(797.973 373.507)"></path><path d="M-45.411,0V-9.535h3.762a3.844,3.844,0,0,1,1.848.412,2.839,2.839,0,0,1,1.166,1.141,3.412,3.412,0,0,1,.4,1.678,3.353,3.353,0,0,1-.41,1.676A2.828,2.828,0,0,1-39.826-3.5a4,4,0,0,1-1.874.405h-2.4V-4.707h2.072a2.029,2.029,0,0,0,.961-.2,1.327,1.327,0,0,0,.568-.563,1.768,1.768,0,0,0,.189-.831,1.751,1.751,0,0,0-.189-.831,1.3,1.3,0,0,0-.57-.554,2.1,2.1,0,0,0-.968-.2h-1.359V0Zm9.147,0V-9.535H-32.5a4.08,4.08,0,0,1,1.846.384,2.712,2.712,0,0,1,1.169,1.085,3.246,3.246,0,0,1,.4,1.646,3.111,3.111,0,0,1-.41,1.632,2.654,2.654,0,0,1-1.185,1.045,4.392,4.392,0,0,1-1.874.363h-2.519V-5h2.193a2.518,2.518,0,0,0,.959-.158,1.152,1.152,0,0,0,.57-.475,1.515,1.515,0,0,0,.189-.787,1.576,1.576,0,0,0-.189-.8,1.2,1.2,0,0,0-.573-.5,2.394,2.394,0,0,0-.966-.17h-1.359V0Zm5.149-4.339L-28.745,0H-30.97l-2.318-4.339Zm12.872-.428a5.532,5.532,0,0,1-.589,2.654,4.1,4.1,0,0,1-1.6,1.669A4.524,4.524,0,0,1-22.707.13a4.515,4.515,0,0,1-2.281-.577,4.11,4.11,0,0,1-1.6-1.671,5.539,5.539,0,0,1-.587-2.649,5.55,5.55,0,0,1,.587-2.654,4.094,4.094,0,0,1,1.6-1.669,4.53,4.53,0,0,1,2.281-.575,4.524,4.524,0,0,1,2.274.575,4.1,4.1,0,0,1,1.6,1.669A5.532,5.532,0,0,1-18.243-4.767Zm-2.044,0a4.289,4.289,0,0,0-.3-1.7,2.32,2.32,0,0,0-.845-1.052,2.267,2.267,0,0,0-1.276-.358,2.267,2.267,0,0,0-1.276.358,2.32,2.32,0,0,0-.845,1.052,4.289,4.289,0,0,0-.3,1.7,4.289,4.289,0,0,0,.3,1.7,2.32,2.32,0,0,0,.845,1.052,2.267,2.267,0,0,0,1.276.358,2.267,2.267,0,0,0,1.276-.358,2.32,2.32,0,0,0,.845-1.052A4.289,4.289,0,0,0-20.287-4.767ZM-12.718,0H-16.1V-9.535h3.408a5.071,5.071,0,0,1,2.477.57,3.892,3.892,0,0,1,1.6,1.636,5.412,5.412,0,0,1,.561,2.551,5.451,5.451,0,0,1-.561,2.561A3.889,3.889,0,0,1-10.22-.573,5.125,5.125,0,0,1-12.718,0Zm-1.364-1.727h1.28A3.232,3.232,0,0,0-11.3-2.046a2.039,2.039,0,0,0,.922-.992,4.184,4.184,0,0,0,.31-1.739,4.14,4.14,0,0,0-.31-1.727,2.031,2.031,0,0,0-.919-.987,3.237,3.237,0,0,0-1.5-.317h-1.285ZM-.018-9.535H2v6.192a3.335,3.335,0,0,1-.5,1.825A3.332,3.332,0,0,1,.117-.3,4.659,4.659,0,0,1-1.955.135,4.67,4.67,0,0,1-4.031-.3,3.316,3.316,0,0,1-5.414-1.518a3.347,3.347,0,0,1-.493-1.825V-9.535h2.016v6.02a1.932,1.932,0,0,0,.24.968,1.715,1.715,0,0,0,.677.666,2.072,2.072,0,0,0,1.02.242A2.069,2.069,0,0,0-.933-1.881a1.719,1.719,0,0,0,.675-.666,1.932,1.932,0,0,0,.24-.968ZM12.723-6.2H10.684a2.017,2.017,0,0,0-.228-.705,1.8,1.8,0,0,0-.442-.528,1.951,1.951,0,0,0-.622-.335,2.408,2.408,0,0,0-.761-.116,2.274,2.274,0,0,0-1.29.365,2.366,2.366,0,0,0-.852,1.061,4.223,4.223,0,0,0-.3,1.688,4.257,4.257,0,0,0,.3,1.713,2.307,2.307,0,0,0,.854,1.047,2.3,2.3,0,0,0,1.271.354,2.537,2.537,0,0,0,.752-.107,1.947,1.947,0,0,0,.617-.314,1.8,1.8,0,0,0,.449-.505,2.007,2.007,0,0,0,.249-.68l2.039.009a3.7,3.7,0,0,1-.393,1.264A3.818,3.818,0,0,1,11.487-.9a3.944,3.944,0,0,1-1.257.754A4.6,4.6,0,0,1,8.584.13,4.486,4.486,0,0,1,6.305-.447,4.078,4.078,0,0,1,4.723-2.118a5.6,5.6,0,0,1-.58-2.649A5.55,5.55,0,0,1,4.73-7.421,4.1,4.1,0,0,1,6.322-9.09a4.476,4.476,0,0,1,2.263-.575,4.912,4.912,0,0,1,1.539.233,3.925,3.925,0,0,1,1.259.677,3.553,3.553,0,0,1,.9,1.087A4.072,4.072,0,0,1,12.723-6.2Zm1.74-1.676V-9.535h7.831v1.662H19.375V0H17.382V-7.873Zm11.8-1.662V0H24.244V-9.535Zm4.04,0,2.3,7.244h.088L35-9.535h2.235L33.95,0h-2.6L28.06-9.535ZM39.037,0V-9.535h6.425v1.662H41.053V-5.6h4.078v1.662H41.053v2.277H45.48V0ZM-30.788,3.8v9.535H-32.8V3.8Zm10.292,0v9.535h-1.741l-4.148-6h-.07v6h-2.016V3.8H-26.7l4.115,6h.084v-6Zm7.49,2.742a1.178,1.178,0,0,0-.48-.875,1.9,1.9,0,0,0-1.15-.312,2.23,2.23,0,0,0-.833.137,1.172,1.172,0,0,0-.519.379.9.9,0,0,0-.179.549.773.773,0,0,0,.109.447,1.068,1.068,0,0,0,.328.328,2.344,2.344,0,0,0,.484.237,4.732,4.732,0,0,0,.587.17l.857.2a6.042,6.042,0,0,1,1.145.372,3.479,3.479,0,0,1,.9.573,2.408,2.408,0,0,1,.594.8,2.554,2.554,0,0,1,.216,1.057,2.635,2.635,0,0,1-.445,1.515,2.833,2.833,0,0,1-1.266.992,5.073,5.073,0,0,1-1.99.351,5.227,5.227,0,0,1-2.009-.354,2.924,2.924,0,0,1-1.331-1.05,3.108,3.108,0,0,1-.5-1.725h1.951a1.441,1.441,0,0,0,.277.8,1.485,1.485,0,0,0,.656.48,2.554,2.554,0,0,0,.933.161,2.433,2.433,0,0,0,.892-.149,1.364,1.364,0,0,0,.589-.414.957.957,0,0,0,.21-.61.8.8,0,0,0-.189-.54,1.472,1.472,0,0,0-.549-.372,5.675,5.675,0,0,0-.882-.279l-1.038-.261a4.353,4.353,0,0,1-1.9-.917,2.128,2.128,0,0,1-.694-1.681,2.49,2.49,0,0,1,.463-1.513,3.092,3.092,0,0,1,1.287-1.01,4.552,4.552,0,0,1,1.862-.363,4.422,4.422,0,0,1,1.855.363,2.934,2.934,0,0,1,1.236,1.01,2.673,2.673,0,0,1,.456,1.5ZM-6.922,3.8v9.535H-8.938V3.8Zm8.64,3.082a2.124,2.124,0,0,0-.275-.6,1.761,1.761,0,0,0-.431-.447,1.922,1.922,0,0,0-.577-.282,2.464,2.464,0,0,0-.715-.1,2.279,2.279,0,0,0-1.283.363,2.377,2.377,0,0,0-.859,1.054,4.146,4.146,0,0,0-.307,1.688,4.254,4.254,0,0,0,.3,1.695,2.353,2.353,0,0,0,.857,1.064,2.321,2.321,0,0,0,1.308.365A2.584,2.584,0,0,0,.91,11.438a1.738,1.738,0,0,0,.745-.691A2.075,2.075,0,0,0,1.913,9.69l.41.061H-.135V8.233h3.99v1.2a4.177,4.177,0,0,1-.531,2.158,3.6,3.6,0,0,1-1.462,1.387,4.537,4.537,0,0,1-2.132.487,4.58,4.58,0,0,1-2.356-.594,4.07,4.07,0,0,1-1.581-1.69,5.614,5.614,0,0,1-.566-2.6,5.924,5.924,0,0,1,.338-2.069,4.393,4.393,0,0,1,.947-1.543A4.1,4.1,0,0,1-2.068,4,4.6,4.6,0,0,1-.312,3.67,4.7,4.7,0,0,1,1.2,3.905a4.087,4.087,0,0,1,1.241.663,3.607,3.607,0,0,1,.887,1.017,3.485,3.485,0,0,1,.442,1.3Zm4.305,6.453V3.8H8.039V7.735h4.092V3.8h2.011v9.535H12.131V9.4H8.039v3.939ZM16.1,5.463V3.8h7.831V5.463H21.008v7.873H19.016V5.463Zm14.953,1.08a1.178,1.178,0,0,0-.48-.875,1.9,1.9,0,0,0-1.15-.312,2.23,2.23,0,0,0-.833.137,1.172,1.172,0,0,0-.519.379.9.9,0,0,0-.179.549A.773.773,0,0,0,28,6.869a1.068,1.068,0,0,0,.328.328,2.344,2.344,0,0,0,.484.237,4.732,4.732,0,0,0,.587.17l.857.2a6.042,6.042,0,0,1,1.145.372,3.479,3.479,0,0,1,.9.573,2.408,2.408,0,0,1,.594.8,2.554,2.554,0,0,1,.216,1.057,2.635,2.635,0,0,1-.445,1.515,2.833,2.833,0,0,1-1.266.992,5.073,5.073,0,0,1-1.99.351,5.227,5.227,0,0,1-2.009-.354,2.924,2.924,0,0,1-1.331-1.05,3.108,3.108,0,0,1-.5-1.725H27.52a1.441,1.441,0,0,0,.277.8,1.485,1.485,0,0,0,.656.48,2.554,2.554,0,0,0,.933.161,2.433,2.433,0,0,0,.892-.149,1.364,1.364,0,0,0,.589-.414.957.957,0,0,0,.209-.61.8.8,0,0,0-.189-.54,1.472,1.472,0,0,0-.549-.372,5.675,5.675,0,0,0-.882-.279l-1.038-.261a4.353,4.353,0,0,1-1.9-.917,2.128,2.128,0,0,1-.694-1.681,2.49,2.49,0,0,1,.463-1.513,3.092,3.092,0,0,1,1.287-1.01,4.552,4.552,0,0,1,1.862-.363,4.422,4.422,0,0,1,1.855.363,2.934,2.934,0,0,1,1.236,1.01,2.673,2.673,0,0,1,.456,1.5Z" transform="translate(1091 373.507)"></path><rect class="j" width="139" height="147" rx="15" transform="translate(875 272)"></rect><g transform="translate(601.348 -85.495)"><path class="h" d="M333.395,420.618h-8.276v0l-.061,0a9.072,9.072,0,0,1,0-18.141,8.693,8.693,0,0,1,2.946.512,15.4,15.4,0,0,1,29.744-3.893,10.462,10.462,0,0,1,1.861-.166,10.855,10.855,0,0,1,.964,21.643" transform="translate(0 0)"></path><g transform="translate(336.093 405.549)"><path class="h" d="M347.308,420.241a9.035,9.035,0,0,1-12.9-10.6l4.716,4.782,2.836-.005,3.189-3.188c0-1.149,0-1.675,0-2.824l-4.729-4.778a9.036,9.036,0,0,1,10.6,12.894" transform="translate(-334.02 -403.237)"></path><path class="h" d="M351.877,415.131l6.294,6.294a4.251,4.251,0,0,1,0,6.013h0a4.251,4.251,0,0,1-6.012,0l-6.294-6.294" transform="translate(-334.02 -403.237)"></path><circle class="h" cx="1.86" cy="1.86" r="1.86" transform="translate(19.103 19.152)"></circle></g></g><path d="M-49.247-3.636a7.994,7.994,0,0,1,.353-2.433,6.688,6.688,0,0,1,1.081-2.06h1.445a4.427,4.427,0,0,0-.515.858,7.738,7.738,0,0,0-.415,1.11,9.613,9.613,0,0,0-.277,1.248,8.363,8.363,0,0,0-.1,1.277,8.613,8.613,0,0,0,.172,1.7,8.973,8.973,0,0,0,.469,1.593,4.912,4.912,0,0,0,.666,1.2h-1.445A6.688,6.688,0,0,1-48.894-1.2,8.007,8.007,0,0,1-49.247-3.636Zm10.7-1.09H-40.1a1.539,1.539,0,0,0-.174-.538,1.372,1.372,0,0,0-.337-.4,1.488,1.488,0,0,0-.474-.256,1.837,1.837,0,0,0-.581-.089,1.734,1.734,0,0,0-.984.279,1.8,1.8,0,0,0-.65.81,3.221,3.221,0,0,0-.231,1.287A3.247,3.247,0,0,0-43.3-2.33a1.76,1.76,0,0,0,.652.8,1.751,1.751,0,0,0,.969.27,1.935,1.935,0,0,0,.574-.082,1.485,1.485,0,0,0,.471-.24,1.372,1.372,0,0,0,.343-.385,1.531,1.531,0,0,0,.19-.518l1.555.007a2.819,2.819,0,0,1-.3.964,2.912,2.912,0,0,1-.643.827,3.008,3.008,0,0,1-.959.575A3.512,3.512,0,0,1-41.7.1a3.422,3.422,0,0,1-1.738-.44,3.111,3.111,0,0,1-1.207-1.275,4.267,4.267,0,0,1-.442-2.021,4.233,4.233,0,0,1,.447-2.024,3.13,3.13,0,0,1,1.214-1.273A3.414,3.414,0,0,1-41.7-7.372a3.746,3.746,0,0,1,1.174.178,2.994,2.994,0,0,1,.961.517,2.71,2.71,0,0,1,.684.829A3.106,3.106,0,0,1-38.545-4.727ZM-36.94,0V-7.273H-35.4v6h3.118V0Zm12.574-3.636a4.22,4.22,0,0,1-.449,2.024A3.131,3.131,0,0,1-26.037-.339,3.451,3.451,0,0,1-27.772.1a3.444,3.444,0,0,1-1.74-.44A3.135,3.135,0,0,1-30.73-1.616a4.225,4.225,0,0,1-.447-2.021,4.233,4.233,0,0,1,.447-2.024,3.123,3.123,0,0,1,1.218-1.273,3.455,3.455,0,0,1,1.74-.439,3.451,3.451,0,0,1,1.735.439,3.131,3.131,0,0,1,1.222,1.273A4.22,4.22,0,0,1-24.366-3.636Zm-1.559,0a3.271,3.271,0,0,0-.229-1.3,1.77,1.77,0,0,0-.645-.8,1.729,1.729,0,0,0-.973-.273,1.729,1.729,0,0,0-.973.273,1.77,1.77,0,0,0-.645.8,3.271,3.271,0,0,0-.229,1.3,3.271,3.271,0,0,0,.229,1.3,1.77,1.77,0,0,0,.645.8,1.729,1.729,0,0,0,.973.273,1.729,1.729,0,0,0,.973-.273,1.77,1.77,0,0,0,.645-.8A3.271,3.271,0,0,0-25.925-3.636Zm7.688-3.636H-16.7V-2.55a2.544,2.544,0,0,1-.378,1.392,2.542,2.542,0,0,1-1.056.929A3.554,3.554,0,0,1-19.715.1,3.562,3.562,0,0,1-21.3-.229a2.53,2.53,0,0,1-1.055-.929A2.553,2.553,0,0,1-22.73-2.55V-7.273h1.538v4.592a1.473,1.473,0,0,0,.183.739,1.308,1.308,0,0,0,.517.508,1.581,1.581,0,0,0,.778.185,1.578,1.578,0,0,0,.779-.185,1.311,1.311,0,0,0,.515-.508,1.473,1.473,0,0,0,.183-.739ZM-12.358,0h-2.578V-7.273h2.6a3.868,3.868,0,0,1,1.889.435,2.968,2.968,0,0,1,1.22,1.248A4.128,4.128,0,0,1-8.8-3.643,4.158,4.158,0,0,1-9.228-1.69,2.966,2.966,0,0,1-10.453-.437,3.909,3.909,0,0,1-12.358,0ZM-13.4-1.317h.977a2.465,2.465,0,0,0,1.149-.243,1.555,1.555,0,0,0,.7-.756,3.191,3.191,0,0,0,.236-1.326,3.158,3.158,0,0,0-.236-1.317,1.549,1.549,0,0,0-.7-.753,2.469,2.469,0,0,0-1.147-.241h-.98Zm11.185.21V-6.136H-.942v5.028ZM-4.092-2.987V-4.258H.936v1.271ZM5.771,0V-7.273H7.309v3H10.43v-3h1.534V0H10.43V-3H7.309V0Zm7.535-7.273h1.722l1.658,3.132h.071l1.658-3.132h1.722l-2.653,4.7V0H15.959V-2.571ZM21.477,0V-7.273h2.912a3.305,3.305,0,0,1,1.339.238,1.783,1.783,0,0,1,.806.659,1.753,1.753,0,0,1,.27.968,1.572,1.572,0,0,1-.17.748,1.458,1.458,0,0,1-.467.526,1.921,1.921,0,0,1-.676.289v.071a1.639,1.639,0,0,1,.779.234,1.668,1.668,0,0,1,.591.605,1.8,1.8,0,0,1,.227.925A1.891,1.891,0,0,1,26.8-.978a1.945,1.945,0,0,1-.843.716A3.212,3.212,0,0,1,24.584,0Zm1.538-1.257h1.254a1.45,1.45,0,0,0,.938-.247.816.816,0,0,0,.295-.659.977.977,0,0,0-.146-.533.991.991,0,0,0-.414-.362,1.435,1.435,0,0,0-.637-.131H23.014Zm0-2.972h1.14a1.35,1.35,0,0,0,.563-.112.936.936,0,0,0,.391-.318.84.84,0,0,0,.144-.494.8.8,0,0,0-.279-.636,1.17,1.17,0,0,0-.79-.241H23.014ZM28.585,0V-7.273h2.869a3.112,3.112,0,0,1,1.408.293,2.069,2.069,0,0,1,.891.827A2.476,2.476,0,0,1,34.061-4.9a2.373,2.373,0,0,1-.312,1.245,2.025,2.025,0,0,1-.9.8,3.35,3.35,0,0,1-1.429.277H29.494V-3.814h1.673a1.921,1.921,0,0,0,.732-.121.879.879,0,0,0,.435-.362,1.155,1.155,0,0,0,.144-.6,1.2,1.2,0,0,0-.144-.611.913.913,0,0,0-.437-.378,1.826,1.826,0,0,0-.737-.13H30.123V0Zm3.928-3.31L34.32,0h-1.7L30.854-3.31Zm4.673-3.963V0H35.648V-7.273ZM41.531,0H38.953V-7.273h2.6a3.868,3.868,0,0,1,1.889.435,2.968,2.968,0,0,1,1.22,1.248,4.128,4.128,0,0,1,.428,1.946,4.158,4.158,0,0,1-.428,1.953A2.966,2.966,0,0,1,43.436-.437,3.909,3.909,0,0,1,41.531,0Zm-1.04-1.317h.977a2.465,2.465,0,0,0,1.149-.243,1.555,1.555,0,0,0,.7-.756,3.191,3.191,0,0,0,.236-1.326,3.158,3.158,0,0,0-.236-1.317,1.549,1.549,0,0,0-.7-.753,2.469,2.469,0,0,0-1.147-.241h-.98Zm8.756-2.319A8.007,8.007,0,0,1,48.894-1.2,6.688,6.688,0,0,1,47.813.859H46.367A4.409,4.409,0,0,0,46.882,0,7.846,7.846,0,0,0,47.3-1.11a9.526,9.526,0,0,0,.277-1.248,8.4,8.4,0,0,0,.1-1.278,8.613,8.613,0,0,0-.172-1.7,8.924,8.924,0,0,0-.469-1.591,4.92,4.92,0,0,0-.666-1.2h1.445a6.688,6.688,0,0,1,1.081,2.06A7.994,7.994,0,0,1,49.247-3.636Z" transform="translate(945 386.414)"></path><path d="M-35.82-4.767a5.532,5.532,0,0,1-.589,2.654,4.1,4.1,0,0,1-1.6,1.669A4.524,4.524,0,0,1-40.285.13a4.515,4.515,0,0,1-2.281-.577,4.109,4.109,0,0,1-1.6-1.671,5.539,5.539,0,0,1-.587-2.649,5.55,5.55,0,0,1,.587-2.654,4.094,4.094,0,0,1,1.6-1.669,4.53,4.53,0,0,1,2.281-.575,4.524,4.524,0,0,1,2.274.575,4.1,4.1,0,0,1,1.6,1.669A5.532,5.532,0,0,1-35.82-4.767Zm-2.044,0a4.289,4.289,0,0,0-.3-1.7,2.32,2.32,0,0,0-.845-1.052,2.267,2.267,0,0,0-1.276-.358,2.267,2.267,0,0,0-1.276.358,2.32,2.32,0,0,0-.845,1.052,4.289,4.289,0,0,0-.3,1.7,4.289,4.289,0,0,0,.3,1.7,2.32,2.32,0,0,0,.845,1.052,2.267,2.267,0,0,0,1.276.358,2.267,2.267,0,0,0,1.276-.358,2.32,2.32,0,0,0,.845-1.052A4.289,4.289,0,0,0-37.864-4.767ZM-33.675,0V-9.535h3.762a3.844,3.844,0,0,1,1.848.412A2.839,2.839,0,0,1-26.9-7.982,3.412,3.412,0,0,1-26.5-6.3a3.353,3.353,0,0,1-.41,1.676A2.828,2.828,0,0,1-28.091-3.5a4,4,0,0,1-1.874.405h-2.4V-4.707h2.072a2.029,2.029,0,0,0,.961-.2,1.327,1.327,0,0,0,.568-.563,1.768,1.768,0,0,0,.189-.831,1.751,1.751,0,0,0-.189-.831,1.3,1.3,0,0,0-.57-.554,2.1,2.1,0,0,0-.968-.2h-1.359V0Zm9.147,0V-9.535H-18.1v1.662h-4.409V-5.6h4.078v1.662h-4.078v2.277h4.427V0Zm8.686,0V-9.535h3.762a4.08,4.08,0,0,1,1.846.384A2.712,2.712,0,0,1-9.065-8.066a3.246,3.246,0,0,1,.4,1.646,3.111,3.111,0,0,1-.41,1.632,2.654,2.654,0,0,1-1.185,1.045,4.392,4.392,0,0,1-1.874.363H-14.65V-5h2.193a2.518,2.518,0,0,0,.959-.158,1.152,1.152,0,0,0,.57-.475,1.515,1.515,0,0,0,.189-.787,1.576,1.576,0,0,0-.189-.8,1.2,1.2,0,0,0-.573-.5,2.394,2.394,0,0,0-.966-.17h-1.359V0Zm5.149-4.339L-8.323,0h-2.225l-2.318-4.339ZM-4.939,0H-7.1l3.291-9.535h2.6L2.077,0H-.083L-2.472-7.356h-.074Zm-.135-3.748h5.1v1.574h-5.1ZM2.341-7.873V-9.535h7.831v1.662H7.253V0H5.26V-7.873Zm11.8-1.662V0H12.122V-9.535ZM25.217-4.767a5.532,5.532,0,0,1-.589,2.654,4.1,4.1,0,0,1-1.6,1.669A4.524,4.524,0,0,1,20.752.13a4.515,4.515,0,0,1-2.281-.577,4.11,4.11,0,0,1-1.6-1.671,5.539,5.539,0,0,1-.587-2.649,5.55,5.55,0,0,1,.587-2.654,4.094,4.094,0,0,1,1.6-1.669,4.53,4.53,0,0,1,2.281-.575,4.524,4.524,0,0,1,2.274.575,4.1,4.1,0,0,1,1.6,1.669A5.532,5.532,0,0,1,25.217-4.767Zm-2.044,0a4.289,4.289,0,0,0-.3-1.7,2.32,2.32,0,0,0-.845-1.052,2.267,2.267,0,0,0-1.276-.358,2.267,2.267,0,0,0-1.276.358,2.32,2.32,0,0,0-.845,1.052,4.289,4.289,0,0,0-.3,1.7,4.289,4.289,0,0,0,.3,1.7,2.32,2.32,0,0,0,.845,1.052,2.267,2.267,0,0,0,1.276.358,2.267,2.267,0,0,0,1.276-.358,2.32,2.32,0,0,0,.845-1.052A4.289,4.289,0,0,0,23.173-4.767ZM35.337-9.535V0H33.6L29.448-6h-.07V0H27.362V-9.535h1.769l4.115,6h.084v-6Zm7.49,2.742a1.178,1.178,0,0,0-.48-.875A1.9,1.9,0,0,0,41.2-7.98a2.23,2.23,0,0,0-.833.137,1.172,1.172,0,0,0-.519.379.9.9,0,0,0-.179.549.773.773,0,0,0,.109.447,1.068,1.068,0,0,0,.328.328,2.344,2.344,0,0,0,.484.237,4.732,4.732,0,0,0,.587.17l.857.2a6.042,6.042,0,0,1,1.145.372,3.479,3.479,0,0,1,.9.573,2.408,2.408,0,0,1,.594.8,2.554,2.554,0,0,1,.216,1.057,2.635,2.635,0,0,1-.445,1.515,2.833,2.833,0,0,1-1.266.992,5.073,5.073,0,0,1-1.99.351,5.227,5.227,0,0,1-2.009-.354,2.924,2.924,0,0,1-1.331-1.05,3.108,3.108,0,0,1-.5-1.725H39.3a1.441,1.441,0,0,0,.277.8,1.485,1.485,0,0,0,.656.48,2.554,2.554,0,0,0,.933.161,2.433,2.433,0,0,0,.892-.149,1.364,1.364,0,0,0,.589-.414.957.957,0,0,0,.209-.61.8.8,0,0,0-.189-.54,1.472,1.472,0,0,0-.549-.372,5.675,5.675,0,0,0-.882-.279L40.2-4.181a4.353,4.353,0,0,1-1.9-.917A2.128,2.128,0,0,1,37.6-6.778a2.49,2.49,0,0,1,.463-1.513A3.092,3.092,0,0,1,39.349-9.3a4.552,4.552,0,0,1,1.862-.363,4.422,4.422,0,0,1,1.855.363A2.934,2.934,0,0,1,44.3-8.292a2.673,2.673,0,0,1,.456,1.5Z" transform="translate(945 373.507)"></path></g></svg> 