<?xml version="1.0" encoding="UTF-8"?> <!-- Generator: Adobe Illustrator 24.3.0, SVG Export Plug-In . SVG Version: 6.00 Build 0) --> <svg xmlns="http://www.w3.org/2000/svg" xmlns:xlink="http://www.w3.org/1999/xlink" version="1.1" id="Layer_1" x="0px" y="0px" viewBox="0 0 616.5 340" style="enable-background:new 0 0 616.5 340;" xml:space="preserve"> <style type="text/css"> .st0{fill:#FFFFFF;} .st1{fill:#e07525;} .st2{fill:none;stroke:#E0E0E0;stroke-width:2;stroke-miterlimit:10;} .st3{fill:#E5E5E5;} .st4{fill:#898B8E;} .st5{fill:#898A8D;} .st6{fill:#EAEAEA;} .st7{opacity:0.8;fill:#FFFFFF;enable-background:new ;} .st8{fill:#67B346;stroke:#79AF55;stroke-miterlimit:10;} .st9{fill:#808080;} .st10{fill:#808080;stroke:#808080;stroke-miterlimit:10;} .st11{fill:#79AF55;} .st12{enable-background:new ;} .st13{fill:none;stroke:#898B8E;stroke-linecap:round;stroke-linejoin:round;stroke-miterlimit:10;} .st14{fill:none;stroke:#898B8E;stroke-linecap:round;stroke-miterlimit:10;} .st15{fill:#e07525;} .st16{fill:none;stroke:#FFFFFF;stroke-width:2;stroke-linecap:round;stroke-linejoin:round;stroke-miterlimit:10;} .st17{fill:#EAEBEB;} .st18{fill:#C9C9C9;} .st19{fill:#E4E5E5;} .st20{fill:#F0F0F0;} .st21{fill:none;stroke:#5576D1;stroke-width:0.25;stroke-miterlimit:10;} .st22{fill:none;stroke:#5576D1;stroke-width:0.5;stroke-miterlimit:10;} .st23{fill:none;stroke:#5576D1;stroke-width:0.75;stroke-miterlimit:10;} .st24{opacity:0.3;} </style> <g> <ellipse class="st0" cx="104.9" cy="76.5" rx="46.4" ry="46.4"></ellipse> <g> <path class="st1" d="M104.9,31.2c25.1,0,45.4,20.3,45.4,45.4S129.9,122,104.9,122s-45.4-20.3-45.4-45.4S79.8,31.2,104.9,31.2 M104.9,29.2c-26.1,0-47.4,21.3-47.4,47.4S78.7,124,104.9,124s47.4-21.3,47.4-47.4S131,29.2,104.9,29.2L104.9,29.2z"></path> </g> </g> <g> <circle class="st0" cx="308" cy="76.6" r="46.4"></circle> <g> <path class="st1" d="M308,31.2c25.1,0,45.4,20.3,45.4,45.4S333,122,308,122c-25.1,0-45.4-20.3-45.4-45.4S282.9,31.2,308,31.2 M308,29.2c-26.1,0-47.4,21.3-47.4,47.4S281.8,124,308,124c26.1,0,47.4-21.3,47.4-47.4S334.1,29.2,308,29.2L308,29.2z"></path> </g> </g> <g> <circle class="st0" cx="511.1" cy="76.6" r="46.4"></circle> <g> <path class="st1" d="M511.1,31.2c25.1,0,45.4,20.3,45.4,45.4S536.2,122,511.1,122s-45.4-20.3-45.4-45.4S486,31.2,511.1,31.2 M511.1,29.2c-26.1,0-47.4,21.3-47.4,47.4S485,124,511.1,124s47.4-21.3,47.4-47.4S537.2,29.2,511.1,29.2L511.1,29.2z"></path> </g> </g> <g> <line class="st2" x1="411" y1="10.5" x2="411" y2="329.5"></line> <line class="st2" x1="205.5" y1="329.5" x2="205.5" y2="10.5"></line> </g> <g> <g> <path class="st3" d="M530.3,299.6c-14.9,0-39.8-1.6-44.6-2c-1-0.1-1.9-0.9-1.9-2v-33.1c0-1.1,0.8-1.9,1.9-2 c5.7-0.3,34.6-1.8,45.6-1.8s39.9,1.5,45.6,1.8c1.1,0.1,1.9,0.9,1.9,2v33.1c0,1-0.8,1.9-1.9,2C571.8,298,545.3,299.6,530.3,299.6z"></path> <path class="st4" d="M531.4,259.8c10.9,0,39.9,1.5,45.5,1.8c0.5,0,0.9,0.5,0.9,1v33.1c0,0.5-0.4,1-0.9,1c-5.3,0.3-31.6,2-46.6,2 c-14.9,0-39.5-1.6-44.5-2c-0.5,0-0.9-0.5-0.9-1v-33.1c0-0.5,0.4-1,0.9-1C491.4,261.3,520.4,259.8,531.4,259.8 M531.4,257.8 c-11,0-39.9,1.5-45.6,1.8c-1.6,0.1-2.8,1.4-2.8,3v33.1c0,1.6,1.2,2.9,2.8,3c4.8,0.3,29.7,2,44.7,2s41.5-1.6,46.7-2 c1.6-0.1,2.8-1.4,2.8-3v-33.1c0-1.6-1.2-2.9-2.8-3C571.3,259.3,542.3,257.8,531.4,257.8L531.4,257.8z"></path> </g> <path class="st0" d="M564.3,261c-4.6,17.9-29.5,31.5-59.6,31.5c-6.9,0-13.6-0.7-19.8-2.1v-27.8c0-0.5,0.4-1,0.9-1 c5.6-0.3,34.6-1.8,45.5-1.8C538.5,259.8,553.3,260.5,564.3,261z"></path> <g> <rect x="570.4" y="293.7" class="st5" width="0.3" height="1"></rect> <path class="st5" d="M572.7,294c0,0-0.1-0.1-0.2-0.1c-0.2,0-0.3,0.1-0.3,0.3c0,0.1,0.1,0.3,0.3,0.3c0.1,0,0.2,0,0.2-0.1v0.3 c0,0-0.1,0-0.2,0c-0.3,0-0.5-0.2-0.5-0.5s0.2-0.5,0.5-0.5c0.1,0,0.2,0,0.2,0V294z"></path> <path class="st5" d="M570.1,294c0,0-0.1-0.1-0.2-0.1c-0.2,0-0.3,0.1-0.3,0.3c0,0.1,0.1,0.3,0.3,0.3c0.1,0,0.2,0,0.2-0.1v0.3 c0,0-0.1,0-0.2,0c-0.3,0-0.5-0.2-0.5-0.5s0.2-0.5,0.5-0.5c0.1,0,0.2,0,0.2,0V294z"></path> <path class="st5" d="M573.5,294c-0.1,0-0.3,0.1-0.3,0.3c0,0.1,0.1,0.3,0.3,0.3c0.1,0,0.3-0.1,0.3-0.3 C573.7,294.1,573.6,294,573.5,294 M574,294.2c0,0.3-0.2,0.5-0.5,0.5s-0.5-0.2-0.5-0.5s0.2-0.5,0.5-0.5S574,293.9,574,294.2"></path> <path class="st5" d="M571.6,293.9c0,0-0.1,0-0.2,0c-0.1,0-0.2,0-0.2,0.1s0.1,0.1,0.1,0.1h0.1c0.2,0.1,0.2,0.2,0.2,0.3 c0,0.3-0.2,0.3-0.4,0.3c-0.1,0-0.3,0-0.3,0v-0.2c0,0,0.1,0,0.2,0c0.1,0,0.2,0,0.2-0.1s0-0.1-0.1-0.1c0,0,0,0-0.1,0 s-0.3-0.1-0.3-0.3c0-0.2,0.1-0.3,0.4-0.3c0.1,0,0.2,0,0.2,0v0.2H571.6z"></path> <path class="st5" d="M569,292.7c0-0.1-0.1-0.1-0.1-0.1c-0.1,0-0.1,0.1-0.1,0.1v0.3c0,0.1,0.1,0.1,0.1,0.1c0.1,0,0.1-0.1,0.1-0.1 V292.7z"></path> <path class="st5" d="M569.7,292.3c0-0.1-0.1-0.1-0.1-0.1c-0.1,0-0.1,0.1-0.1,0.1v0.6c0,0.1,0.1,0.1,0.1,0.1c0.1,0,0.1-0.1,0.1-0.1 V292.3z"></path> <path class="st5" d="M570.4,291.8c0-0.1-0.1-0.1-0.1-0.1c-0.1,0-0.1,0.1-0.1,0.1v1.3c0,0.1,0.1,0.1,0.1,0.1c0.1,0,0.1-0.1,0.1-0.1 V291.8z"></path> <path class="st5" d="M571.1,292.3c0-0.1-0.1-0.1-0.1-0.1c-0.1,0-0.1,0.1-0.1,0.1v0.6c0,0.1,0.1,0.1,0.1,0.1c0.1,0,0.1-0.1,0.1-0.1 V292.3z"></path> <path class="st5" d="M571.8,292.7c0-0.1-0.1-0.1-0.1-0.1c-0.1,0-0.1,0.1-0.1,0.1v0.3c0,0.1,0.1,0.1,0.1,0.1c0.1,0,0.1-0.1,0.1-0.1 V292.7z"></path> <path class="st5" d="M572.5,292.3c0-0.1-0.1-0.1-0.1-0.1c-0.1,0-0.1,0.1-0.1,0.1v0.6c0,0.1,0.1,0.1,0.1,0.1c0.1,0,0.1-0.1,0.1-0.1 V292.3z"></path> <path class="st5" d="M573.2,291.8c0-0.1-0.1-0.1-0.1-0.1c-0.1,0-0.1,0.1-0.1,0.1v1.3c0,0.1,0.1,0.1,0.1,0.1c0.1,0,0.1-0.1,0.1-0.1 V291.8z"></path> <path class="st5" d="M573.8,292.3c0-0.1-0.1-0.1-0.1-0.1c-0.1,0-0.1,0.1-0.1,0.1v0.6c0,0.1,0.1,0.1,0.1,0.1c0.1,0,0.1-0.1,0.1-0.1 V292.3z"></path> <path class="st5" d="M574.5,292.7c0-0.1-0.1-0.1-0.1-0.1c-0.1,0-0.1,0.1-0.1,0.1v0.3c0,0.1,0.1,0.1,0.1,0.1c0.1,0,0.1-0.1,0.1-0.1 V292.7z"></path> </g> </g> <g> <g> <g> <path class="st0" d="M148.3,257.1c-12.5,0-19.9-2.2-23.2-3.5c-2-0.8-3.3-2.7-3.3-4.8v-77.1c0-2.6,1.8-4.7,4.3-5.1 c4-0.6,11-1.4,22.1-1.4s18.2,0.7,22.1,1.4c2.5,0.4,4.3,2.5,4.3,5.1v77.1c0,2.1-1.3,4-3.3,4.8 C168.2,254.9,160.8,257.1,148.3,257.1z"></path> <g> <path class="st4" d="M148.3,166.3c11.2,0,18.2,0.8,22,1.4c2,0.3,3.5,2.1,3.5,4.1v77.1c0,1.7-1,3.2-2.6,3.9 c-3.5,1.4-10.7,3.4-22.8,3.4c-12.2,0-19.4-2-22.8-3.4c-1.6-0.6-2.6-2.2-2.6-3.9v-77.1c0-2,1.5-3.8,3.5-4.1 C130.1,167,137.1,166.3,148.3,166.3 M148.3,164.3c-11.2,0-18.3,0.7-22.3,1.4c-3,0.5-5.2,3-5.2,6.1v77.1c0,2.5,1.5,4.8,3.9,5.7 c4.1,1.6,11.5,3.6,23.6,3.6c12.1,0,19.5-1.9,23.6-3.6c2.4-0.9,3.9-3.2,3.9-5.7v-77.1c0-3-2.2-5.6-5.2-6.1 C166.6,165,159.5,164.3,148.3,164.3L148.3,164.3z"></path> </g> </g> <circle id="dot-large_3_" class="st3" cx="165.6" cy="176.1" r="2.2"></circle> <path class="st6" d="M148.3,256.1c-12.2,0-19.4-2-22.8-3.4c-1.6-0.6-2.6-2.2-2.6-3.9v-77.1c0-2,1.5-3.8,3.5-4.1 c3.8-0.6,10.8-1.4,22-1.4L148.3,256.1L148.3,256.1z"></path> </g> </g> <g> <g> <g> <path class="st0" d="M308,257.1c-12.5,0-19.9-2.2-23.2-3.5c-2-0.8-3.3-2.7-3.3-4.8v-77.1c0-2.6,1.8-4.7,4.3-5.1 c4-0.6,11-1.4,22.1-1.4s18.2,0.7,22.1,1.4c2.5,0.4,4.3,2.5,4.3,5.1v77.1c0,2.1-1.3,4-3.3,4.8C327.9,254.9,320.5,257.1,308,257.1z "></path> <g> <path class="st4" d="M308,166.3c11.2,0,18.2,0.8,22,1.4c2,0.3,3.5,2.1,3.5,4.1v77.1c0,1.7-1,3.2-2.6,3.9 c-3.5,1.4-10.7,3.4-22.8,3.4c-12.2,0-19.4-2-22.8-3.4c-1.6-0.6-2.6-2.2-2.6-3.9v-77.1c0-2,1.5-3.8,3.5-4.1 C289.8,167,296.8,166.3,308,166.3 M308,164.3c-11.2,0-18.3,0.7-22.3,1.4c-3,0.5-5.2,3-5.2,6.1v77.1c0,2.5,1.5,4.8,3.9,5.7 c4.1,1.6,11.5,3.6,23.6,3.6s19.5-1.9,23.6-3.6c2.4-0.9,3.9-3.2,3.9-5.7v-77.1c0-3-2.2-5.6-5.2-6.1 C326.3,165,319.1,164.3,308,164.3L308,164.3z"></path> </g> </g> <path class="st7" d="M325.3,190.1c-7.7,0-14-6.3-14-14s6.3-14,14-14s14,6.3,14,14S333,190.1,325.3,190.1z"></path> <circle id="dot-large_11_" class="st8" cx="325.3" cy="176.1" r="2.2"></circle> <path class="st6" d="M308,256.1c-12.2,0-19.4-2-22.8-3.4c-1.6-0.6-2.6-2.2-2.6-3.9v-77.1c0-2,1.5-3.8,3.5-4.1 c3.8-0.6,10.8-1.4,22-1.4v89.9H308z"></path> </g> </g> <g> <g> <g id="icon-long-battery-life_3_"> <g> <path class="st9" d="M41.3,192v-1.4c0-0.8-0.6-1.4-1.4-1.4h-4.4c-0.8,0-1.4,0.6-1.4,1.4v1.4"></path> </g> </g> <path class="st10" d="M46.4,222.4c0,0.8-0.6,1.4-1.4,1.4H30.5c-0.8,0-1.4-0.6-1.4-1.4v-29c0-0.8,0.6-1.4,1.4-1.4H45 c0.8,0,1.4,0.6,1.4,1.4V222.4z"></path> <g> <rect x="32" y="194.9" class="st11" width="11.5" height="26"></rect> <path class="st0" d="M42,196.4v23h-8.5v-23H42 M44.5,193.4H30.9c-0.3,0-0.5,0.2-0.5,0.5V222c0,0.3,0.2,0.5,0.5,0.5h13.6 c0.3,0,0.5-0.2,0.5-0.5v-28.1C45,193.6,44.8,193.4,44.5,193.4L44.5,193.4z"></path> </g> </g> <g> <g id="icon-long-battery-life_4_"> <g> <path class="st9" d="M62.7,192v-1.4c0-0.8-0.6-1.4-1.4-1.4h-4.4c-0.8,0-1.4,0.6-1.4,1.4v1.4"></path> </g> </g> <path class="st10" d="M67.7,222.4c0,0.8-0.6,1.4-1.4,1.4H51.8c-0.8,0-1.4-0.6-1.4-1.4v-29c0-0.8,0.6-1.4,1.4-1.4h14.5 c0.8,0,1.4,0.6,1.4,1.4C67.7,193.4,67.7,222.4,67.7,222.4z"></path> <g> <rect x="53.3" y="194.9" class="st11" width="11.5" height="26"></rect> <path class="st0" d="M63.3,196.4v23h-8.5v-23H63.3 M65.9,193.4H52.3c-0.3,0-0.5,0.2-0.5,0.5V222c0,0.3,0.2,0.5,0.5,0.5h13.6 c0.3,0,0.5-0.2,0.5-0.5v-28.1C66.3,193.6,66.1,193.4,65.9,193.4L65.9,193.4z"></path> </g> </g> </g> <g class="st12"> <path class="st1" d="M102.6,97.9V66.7c-1.6,3.1-4.9,5-9.1,5h-1v-8.3h0.3c6.8,0,10-3.4,10.1-9.2h8.2v43.8H102.6z"></path> </g> <g class="st12"> <path class="st1" d="M293.3,90.8c0-7.9,6.5-12.3,12.3-15.8c4.9-3,9-5.4,9-8.9c0-3.1-2.2-5.2-6.2-5.2c-4,0-6.9,2.6-8.3,6.2l-7.5-3.7 c2.9-5.9,8.5-9.8,16-9.8c9.2,0,14.6,5.5,14.6,12.6s-5.9,10.9-11.5,14.2c-4.8,2.9-9.2,5.5-9.5,9.5H323v8h-29.6V90.8z"></path> </g> <g class="st12"> <path class="st1" d="M494.6,91l7.1-5.2c2.2,3.5,5.2,5,9.2,5c4.3,0,7.4-2.3,7.4-5.9c0-3.5-3.1-5.6-7.6-5.6h-4.9v-7.6h4.5 c4.6,0,7-2.5,7-5.7c0-2.9-2.2-5.3-6.7-5.3c-4,0-6.5,1.7-8.2,4.8l-7-4.2c3.2-4.9,8.5-7.8,15.2-7.8c9.4,0,15.1,4.9,15.1,12.2 c0,4-2,7.3-5.2,9.4c3.8,2,6.2,5.3,6.2,10c0,7.6-6,13.4-15.9,13.4C503.1,98.5,498.3,96.1,494.6,91z"></path> </g> <g> <g> <path class="st4" d="M67.7,210.2"></path> <path class="st4" d="M70.7,210.2L70.7,210.2L70.7,210.2C70.8,210.2,70.8,210.2,70.7,210.2C70.8,210.2,70.8,210.2,70.7,210.2z"></path> <path class="st4" d="M73.7,210.3L73.7,210.3c-0.1-0.1,0-0.1,0-0.1C73.8,210.1,73.8,210.2,73.7,210.3 C73.8,210.3,73.8,210.3,73.7,210.3z"></path> <path class="st4" d="M76.8,210.3c-0.1,0-0.1,0-0.1-0.1s0-0.1,0.1-0.1s0.1,0,0.1,0.1S76.8,210.3,76.8,210.3z"></path> <path class="st4" d="M79.8,210.4c-0.1,0-0.1-0.1-0.1-0.1c0-0.1,0.1-0.1,0.1-0.1l0.1,0.1C79.9,210.3,79.8,210.4,79.8,210.4z"></path> <path class="st4" d="M82.8,210.4c-0.1,0-0.2-0.1-0.2-0.2s0.1-0.2,0.2-0.2s0.2,0.1,0.2,0.2S82.9,210.4,82.8,210.4z"></path> <circle class="st4" cx="85.8" cy="210.2" r="0.2"></circle> <circle class="st4" cx="88.8" cy="210.2" r="0.2"></circle> <circle class="st4" cx="91.8" cy="210.2" r="0.3"></circle> <path class="st4" d="M94.8,210.5c-0.2,0-0.3-0.1-0.3-0.3s0.1-0.3,0.3-0.3c0.2,0,0.3,0.1,0.3,0.3C95.1,210.4,95,210.5,94.8,210.5z"></path> <path class="st4" d="M97.8,210.6c-0.2,0-0.4-0.2-0.4-0.4s0.2-0.4,0.4-0.4s0.4,0.2,0.4,0.4C98.2,210.4,98,210.6,97.8,210.6z"></path> <path class="st4" d="M100.8,210.6c-0.2,0-0.4-0.2-0.4-0.4s0.2-0.4,0.4-0.4c0.2,0,0.4,0.2,0.4,0.4S101,210.6,100.8,210.6z"></path> <path class="st4" d="M103.8,210.6c-0.2,0-0.4-0.2-0.4-0.4s0.2-0.4,0.4-0.4c0.2,0,0.4,0.2,0.4,0.4S104.1,210.6,103.8,210.6z"></path> <path class="st4" d="M106.8,210.7c-0.3,0-0.5-0.2-0.5-0.5s0.2-0.5,0.5-0.5s0.5,0.2,0.5,0.5S107.1,210.7,106.8,210.7z"></path> <circle class="st4" cx="109.9" cy="210.2" r="0.5"></circle> </g> </g> <polyline class="st13" points="109.9,206.5 113.6,210.2 109.9,213.9 "></polyline> <g> <g> <g> <path class="st4" d="M498.5,195.4"></path> <path class="st4" d="M496.4,197.6C496.3,197.6,496.3,197.5,496.4,197.6c-0.1-0.1,0-0.1,0-0.1S496.4,197.5,496.4,197.6 C496.4,197.5,496.4,197.6,496.4,197.6z"></path> <path class="st4" d="M494.2,199.7c-0.1,0-0.1,0-0.1-0.1s0-0.1,0.1-0.1s0.1,0,0.1,0.1C494.3,199.7,494.3,199.7,494.2,199.7z"></path> <circle class="st4" cx="492.1" cy="201.8" r="0.2"></circle> <path class="st4" d="M490,204.1c-0.1,0-0.2-0.1-0.2-0.2s0.1-0.2,0.2-0.2s0.2,0.1,0.2,0.2S490.1,204.1,490,204.1z"></path> <circle class="st4" cx="487.9" cy="206" r="0.3"></circle> <path class="st4" d="M485.7,208.4c-0.2,0-0.3-0.1-0.3-0.3s0.1-0.3,0.3-0.3s0.3,0.1,0.3,0.3C486.1,208.3,485.9,208.4,485.7,208.4z "></path> <path class="st4" d="M483.6,210.6c-0.2,0-0.4-0.2-0.4-0.4s0.2-0.4,0.4-0.4c0.2,0,0.4,0.2,0.4,0.4S483.8,210.6,483.6,210.6z"></path> <path class="st4" d="M481.5,212.8c-0.2,0-0.4-0.2-0.4-0.4s0.2-0.4,0.4-0.4c0.2,0,0.4,0.2,0.4,0.4S481.7,212.8,481.5,212.8z"></path> <circle class="st4" cx="479.4" cy="214.5" r="0.5"></circle> <path class="st4" d="M477.2,217.2c-0.3,0-0.5-0.2-0.5-0.5s0.2-0.5,0.5-0.5s0.5,0.2,0.5,0.5C477.8,216.9,477.5,217.2,477.2,217.2z "></path> <path class="st4" d="M475.1,219.3c-0.3,0-0.6-0.3-0.6-0.6s0.3-0.6,0.6-0.6s0.6,0.3,0.6,0.6S475.4,219.3,475.1,219.3z"></path> <path class="st4" d="M473,221.5c-0.3,0-0.6-0.3-0.6-0.6s0.3-0.6,0.6-0.6c0.3,0,0.6,0.3,0.6,0.6S473.3,221.5,473,221.5z"></path> <path class="st4" d="M470.9,223.7c-0.4,0-0.7-0.3-0.7-0.7s0.3-0.7,0.7-0.7s0.7,0.3,0.7,0.7S471.2,223.7,470.9,223.7z"></path> <path class="st4" d="M468.7,225.9c-0.4,0-0.7-0.3-0.7-0.7s0.3-0.7,0.7-0.7s0.7,0.3,0.7,0.7C469.5,225.5,469.1,225.9,468.7,225.9z "></path> <path class="st4" d="M466.6,228c-0.4,0-0.8-0.4-0.8-0.8c0-0.4,0.4-0.8,0.8-0.8s0.8,0.4,0.8,0.8C467.4,227.7,467.1,228,466.6,228z "></path> <circle class="st4" cx="464.5" cy="229.4" r="0.8"></circle> <path class="st4" d="M462.4,232.4c-0.5,0-0.9-0.4-0.9-0.9s0.4-0.9,0.9-0.9s0.9,0.4,0.9,0.9S462.9,232.4,462.4,232.4z"></path> <path class="st4" d="M460.2,234.6c-0.5,0-0.9-0.4-0.9-0.9s0.4-0.9,0.9-0.9s0.9,0.4,0.9,0.9C461.2,234.2,460.8,234.6,460.2,234.6z "></path> <circle class="st4" cx="458.1" cy="235.8" r="1"></circle> </g> </g> <polyline class="st14" points="454.7,232.3 454.7,239.2 461.5,239.2 "></polyline> </g> <g> <g> <g> <path class="st4" d="M530.1,195.5"></path> <path class="st4" d="M532.2,197.7L532.2,197.7c-0.1-0.1,0-0.1,0-0.1C532.3,197.6,532.3,197.6,532.2,197.7 C532.3,197.7,532.3,197.7,532.2,197.7z"></path> <path class="st4" d="M534.4,199.9c-0.1,0-0.1,0-0.1-0.1s0-0.1,0.1-0.1s0.1,0,0.1,0.1C534.5,199.8,534.4,199.9,534.4,199.9z"></path> <path class="st4" d="M536.5,202c-0.1,0-0.2-0.1-0.2-0.2s0.1-0.2,0.2-0.2s0.2,0.1,0.2,0.2S536.6,202,536.5,202z"></path> <path class="st4" d="M538.6,204.2c-0.1,0-0.2-0.1-0.2-0.2s0.1-0.2,0.2-0.2s0.2,0.1,0.2,0.2S538.7,204.2,538.6,204.2z"></path> <path class="st4" d="M540.7,206.4c-0.1,0-0.3-0.1-0.3-0.3s0.1-0.3,0.3-0.3s0.3,0.1,0.3,0.3S540.9,206.4,540.7,206.4z"></path> <path class="st4" d="M542.8,208.5c-0.2,0-0.3-0.1-0.3-0.3s0.1-0.3,0.3-0.3s0.3,0.1,0.3,0.3C543.2,208.4,543,208.5,542.8,208.5z"></path> <path class="st4" d="M545,210.7c-0.2,0-0.4-0.2-0.4-0.4s0.2-0.4,0.4-0.4s0.4,0.2,0.4,0.4C545.3,210.5,545.2,210.7,545,210.7z"></path> <path class="st4" d="M547.1,212.9c-0.2,0-0.4-0.2-0.4-0.4s0.2-0.4,0.4-0.4s0.4,0.2,0.4,0.4S547.3,212.9,547.1,212.9z"></path> <path class="st4" d="M549.2,215.1c-0.3,0-0.5-0.2-0.5-0.5s0.2-0.5,0.5-0.5s0.5,0.2,0.5,0.5C549.7,214.8,549.5,215.1,549.2,215.1z "></path> <circle class="st4" cx="551.3" cy="216.7" r="0.5"></circle> <path class="st4" d="M553.4,219.4c-0.3,0-0.6-0.3-0.6-0.6s0.3-0.6,0.6-0.6s0.6,0.3,0.6,0.6C554,219.1,553.7,219.4,553.4,219.4z"></path> <path class="st4" d="M555.5,221.6c-0.3,0-0.6-0.3-0.6-0.6s0.3-0.6,0.6-0.6s0.6,0.3,0.6,0.6S555.9,221.6,555.5,221.6z"></path> <path class="st4" d="M557.7,223.7c-0.4,0-0.7-0.3-0.7-0.7s0.3-0.7,0.7-0.7s0.7,0.3,0.7,0.7S558,223.7,557.7,223.7z"></path> <path class="st4" d="M559.8,225.9c-0.4,0-0.7-0.3-0.7-0.7s0.3-0.7,0.7-0.7s0.7,0.3,0.7,0.7C560.5,225.6,560.2,225.9,559.8,225.9z "></path> <path class="st4" d="M561.9,228.1c-0.4,0-0.8-0.4-0.8-0.8s0.4-0.8,0.8-0.8c0.4,0,0.8,0.4,0.8,0.8S562.3,228.1,561.9,228.1z"></path> <path class="st4" d="M564,230.2c-0.5,0-0.8-0.4-0.8-0.8s0.4-0.8,0.8-0.8s0.8,0.4,0.8,0.8S564.5,230.2,564,230.2z"></path> <path class="st4" d="M566.1,232.4c-0.5,0-0.9-0.4-0.9-0.9s0.4-0.9,0.9-0.9s0.9,0.4,0.9,0.9S566.6,232.4,566.1,232.4z"></path> <path class="st4" d="M568.3,234.6c-0.5,0-0.9-0.4-0.9-0.9s0.4-0.9,0.9-0.9s0.9,0.4,0.9,0.9C569.2,234.2,568.8,234.6,568.3,234.6z "></path> <circle class="st4" cx="570.4" cy="235.8" r="1"></circle> </g> </g> <polyline class="st14" points="573.8,232.3 573.8,239.2 567,239.2 "></polyline> </g> <g> <g> <g> <path class="st4" d="M340.8,176.1"></path> <rect x="343.8" y="176.1" class="st4" width="0" height="0"></rect> <rect x="346.8" y="176.1" class="st4" width="0" height="0"></rect> <circle class="st4" cx="349.8" cy="176.1" r="0.1"></circle> <path class="st4" d="M352.8,176.2C352.7,176.2,352.7,176.1,352.8,176.2c-0.1-0.1,0-0.2,0-0.2S352.9,176,352.8,176.2 C352.9,176.1,352.8,176.2,352.8,176.2z"></path> <circle class="st4" cx="355.8" cy="176.1" r="0.1"></circle> <circle class="st4" cx="358.8" cy="176.1" r="0.1"></circle> <circle class="st4" cx="361.8" cy="176.1" r="0.1"></circle> <circle class="st4" cx="364.8" cy="176.1" r="0.2"></circle> <circle class="st4" cx="367.8" cy="176.1" r="0.2"></circle> <circle class="st4" cx="370.8" cy="176.1" r="0.2"></circle> <circle class="st4" cx="373.8" cy="176.1" r="0.2"></circle> <circle class="st4" cx="376.8" cy="176.1" r="0.3"></circle> <path class="st4" d="M379.8,176.4c-0.2,0-0.3-0.1-0.3-0.3s0.1-0.3,0.3-0.3s0.3,0.1,0.3,0.3S379.9,176.4,379.8,176.4z"></path> <circle class="st4" cx="382.8" cy="176.1" r="0.3"></circle> <circle class="st4" cx="385.8" cy="176.1" r="0.3"></circle> <path class="st4" d="M388.8,176.4c-0.2,0-0.3-0.2-0.3-0.3s0.2-0.3,0.3-0.3s0.3,0.2,0.3,0.3S389,176.4,388.8,176.4z"></path> <circle class="st4" cx="391.8" cy="176.1" r="0.4"></circle> <circle class="st4" cx="394.8" cy="176.1" r="0.4"></circle> <circle class="st4" cx="397.8" cy="176.1" r="0.4"></circle> <circle class="st4" cx="400.8" cy="176.1" r="0.4"></circle> <circle class="st4" cx="403.8" cy="176.1" r="0.4"></circle> <path class="st4" d="M406.8,176.5c-0.3,0-0.5-0.2-0.5-0.5s0.2-0.5,0.5-0.5s0.5,0.2,0.5,0.5S407,176.5,406.8,176.5z"></path> <circle class="st4" cx="409.8" cy="176.1" r="0.5"></circle> <circle class="st4" cx="412.8" cy="176.1" r="0.5"></circle> <path class="st4" d="M415.8,176.6c-0.3,0-0.5-0.2-0.5-0.5s0.2-0.5,0.5-0.5s0.5,0.2,0.5,0.5S416.1,176.6,415.8,176.6z"></path> <circle class="st4" cx="418.8" cy="176.1" r="0.5"></circle> <circle class="st4" cx="421.8" cy="176.1" r="0.6"></circle> <circle class="st4" cx="424.8" cy="176.1" r="0.6"></circle> <circle class="st4" cx="427.8" cy="176.1" r="0.6"></circle> <circle class="st4" cx="430.8" cy="176.1" r="0.6"></circle> <circle class="st4" cx="433.8" cy="176.1" r="0.7"></circle> <circle class="st4" cx="436.8" cy="176.1" r="0.7"></circle> <circle class="st4" cx="439.8" cy="176.1" r="0.7"></circle> <path class="st4" d="M442.8,176.8c-0.4,0-0.7-0.3-0.7-0.7s0.3-0.7,0.7-0.7s0.7,0.3,0.7,0.7S443.2,176.8,442.8,176.8z"></path> <circle class="st4" cx="445.8" cy="176.1" r="0.7"></circle> <circle class="st4" cx="448.8" cy="176.1" r="0.8"></circle> <circle class="st4" cx="451.8" cy="176.1" r="0.8"></circle> <circle class="st4" cx="454.8" cy="176.1" r="0.8"></circle> <path class="st4" d="M457.8,176.9c-0.5,0-0.8-0.4-0.8-0.8c0-0.5,0.4-0.8,0.8-0.8s0.8,0.4,0.8,0.8 C458.6,176.5,458.2,176.9,457.8,176.9z"></path> <circle class="st4" cx="460.8" cy="176.1" r="0.8"></circle> <circle class="st4" cx="463.8" cy="176.1" r="0.9"></circle> <circle class="st4" cx="466.8" cy="176.1" r="0.9"></circle> <path class="st4" d="M469.8,177c-0.5,0-0.9-0.4-0.9-0.9s0.4-0.9,0.9-0.9s0.9,0.4,0.9,0.9S470.3,177,469.8,177z"></path> <circle class="st4" cx="472.8" cy="176.1" r="0.9"></circle> <circle class="st4" cx="475.8" cy="176.1" r="0.9"></circle> <circle class="st4" cx="478.8" cy="176.1" r="1"></circle> <circle class="st4" cx="481.8" cy="176.1" r="1"></circle> </g> </g> <polyline class="st14" points="482.5,171.3 487.3,176.1 482.5,180.9 "></polyline> </g> <g> <circle class="st15" cx="514.2" cy="176.1" r="22.2"></circle> <g> <path id="lines-green_4_" class="st16" d="M514.2,160.1l7.8,7.8l-7.8,7.8V160.1z M514.2,175.7l7.8,7.8l-7.8,7.8V175.7z M514.2,175.7l-7.8,7.8 M514.2,175.7l-7.8-7.8"></path> </g> </g> <g> <g> <g> <path class="st6" d="M500.9,273.4c-3.7-5.3-15.7-9.1-29.9-9.1s-26.2,3.9-29.9,9.1c0.5-1.6,0.9-3.5,0.9-5 c0.5-10.3,12.2-16.7,29-16.7s28.5,6.4,29,16.7C500,269.9,500.4,271.8,500.9,273.4z"></path> <path class="st17" d="M453.8,277.4c-0.2-0.2-0.3-0.3-0.5-0.5l0,0l0,0l0.1,0.1L453.8,277.4z"></path> <path class="st18" d="M502,276.8c0,0.1,0,0.1,0,0.2c0,3.8-4,7.2-10.3,9.5h-0.1c0.2-1.5,0.2-2.6,0.2-3.3c0-1.2,1.4-1.4,1.4-3.7 c0-0.9-0.5-1.8-1.1-2.7c-0.9-1.1-2.2-2.1-3.4-2.7c-0.1-0.1-0.3-0.1-0.4-0.2c-2.4-2.2-9.3-3.8-17.3-3.8c-7.7,0-14.3,1.5-17,3.5 c-0.3,0.1-0.6,0.3-1,0.5c-1.2,0.6-2.5,1.6-3.4,2.7c-0.7,0.9-1.1,1.8-1.1,2.7c0,2.3,1.4,2.5,1.4,3.7c0,0.7,0,1.8,0.2,3.3H450 c-6.3-2.3-10.3-5.7-10.3-9.5c0-0.1,0-0.1,0-0.2l0,0c0-1.2,0.4-2.4,1.2-3.5c3.7-5.3,15.7-9.1,29.9-9.1s26.2,3.9,29.9,9.1 C501.6,274.5,502,275.6,502,276.8L502,276.8z"></path> <path class="st19" d="M453.3,276.8L453.3,276.8L453.3,276.8L453.3,276.8z"></path> <path class="st0" d="M493.3,279.5c0,2.3-1.4,2.5-1.4,3.7c0,0.7,0,1.8-0.2,3.3c-0.6,4.5-2.7,11.9-9.7,16.5 c-3.9,2.6-7.8,2.7-9.4,2.8c-0.4,0-1,0.1-1.6,0.1s-1.2-0.1-1.6-0.1c-1.7-0.1-5.5-0.2-9.4-2.8c-7-4.6-9.1-12-9.7-16.5 c-0.2-1.5-0.2-2.6-0.2-3.3c0-1.2-1.4-1.4-1.4-3.7c0-0.9,0.5-1.8,1.1-2.7c0.9-1.1,2.2-2.1,3.4-2.7c0.3-0.2,0.6-0.3,1-0.5 c-0.8,0.6-1.3,1.3-1.3,2c0,0.4,0.1,0.7,0.4,1.1l0,0l0,0l0,0c0.1,0.2,0.3,0.4,0.5,0.5l0,0l3.8,4.4c-0.7,0.5-1.1,1.1-1.1,1.7 c0,0,0,0,0,0.1c0,0,0,0,0,0.1c0,0,0,0,0,0.1c0,0,0,0,0,0.1c0,0,0,0,0,0.1c0,0,0,0,0,0.1s0,0,0,0.1c0,0,0,0,0,0.1c0,0,0,0,0,0.1 c0,0,0,0,0,0.1c0,0,0,0,0,0.1c0,0,0,0,0,0.1c0,0,0,0,0,0.1c0,0,0,0,0,0.1c0,0,0,0,0,0.1c0,0,0,0,0,0.1s0,0,0,0.1c0,0,0,0,0,0.1 c0,0,0,0,0,0.1c0,0,0,0,0,0.1c0,0,0,0,0,0.1c0,0,0,0,0,0.1c0,0,0,0,0,0.1c0,0,0,0,0,0.1c0,0,0,0,0,0.1c0,0,0,0,0,0.1 c0,0,0,0,0,0.1c0,0,0,0,0,0.1s0,0,0,0.1c0,0,0,0,0,0.1c0,0,0,0,0,0.1c0,0,0,0,0,0.1c0,0,0,0,0,0.1c0,0,0,0,0,0.1c0,0,0,0,0,0.1 c0,0,0,0,0,0.1c0,0,0,0,0,0.1c0,0,0,0,0,0.1c0,0,0,0,0,0.1c0,0,0,0,0,0.1c0,0,0,0,0,0.1c0,0,0,0,0,0.1c0,0,0,0,0,0.1 c0,0,0,0,0,0.1c0,0,0,0,0,0.1c0,0,0,0,0,0.1c0,0,0,0,0,0.1c0,0,0,0,0,0.1c0,0,0,0,0,0.1c0,0,0,0,0,0.1s0,0,0,0.1c0,0,0,0,0,0.1 c0,0,0,0,0,0.1c0,0,0,0,0,0.1c0,0,0,0,0,0.1c0,0,0,0,0,0.1c0,0,0,0,0,0.1l0,0l0,0c0,0,0,0,0,0.1c0,0,0,0,0,0.1c0,0,0,0,0,0.1 c0,0,0,0,0,0.1c0,0,0,0,0,0.1c0,0,0,0,0,0.1c0,0,0,0,0,0.1c0,0,0,0,0,0.1c0,0,0,0,0,0.1c0,0,0,0,0,0.1c0,0,0,0,0,0.1 c0,0,0,0,0,0.1c0,0,0,0,0,0.1c0,0,0,0,0,0.1s0,0,0,0.1c0,0,0,0,0,0.1c0,0,0,0,0,0.1c0,0,0,0,0,0.1c0,0,0,0,0,0.1c0,0,0,0,0,0.1 s0,0,0,0.1c0,0,0,0,0,0.1c0,0,0,0,0,0.1c0,0,0,0,0,0.1c0,0,0,0,0,0.1c0,0,0,0,0,0.1s0,0,0,0.1c0,0,0,0,0,0.1c0,0,0,0,0,0.1 c0,0,0,0,0,0.1c0,0,0,0,0,0.1c0,0,0,0,0,0.1c0,0,0,0,0,0.1c0,0,0,0,0,0.1c0,0,0,0,0,0.1c0,0,0,0,0,0.1c0,0,0,0,0,0.1 c0,0,0,0,0,0.1c0,0,0,0,0,0.1c0,0,0,0,0,0.1c0,0,0,0,0,0.1c0,0,0,0,0,0.1c0,0,0,0,0,0.1c0,0,0,0,0,0.1c0,1,1,1.9,2.8,2.6l0,0l0,0 l0,0l0,0l0,0l0,0l0,0l0,0l0,0l0,0l0,0l0,0c0,0,0,0,0,0.1l0,0l0,0l0,0l0,0l0,0l0,0l0,0l0,0l0,0l0,0l0,0l0,0l0,0l0,0l0,0l0,0l0,0 l0,0l0,0l0,0l0,0l0,0l0,0l0,0l0,0l0,0l0,0l0,0l0,0l0,0l0,0l0,0l0,0l0,0l0,0l0,0l0,0l0,0c0,0,0,0,0,0.1l0,0l0,0l0,0l0,0l0,0l0,0 l0,0l0,0l0,0l0,0l0,0l0,0l0,0l0,0l0,0l0,0l0,0l0,0c0,2,5.3,3.6,11.9,3.6s11.9-1.6,11.9-3.6l0,0l0,0l0,0l0,0l0,0l0,0l0,0l0,0l0,0 l0,0l0,0l0,0l0,0l0,0l0,0l0,0l0,0l0,0l0,0l0,0l0,0l0,0l0,0l0,0l0,0l0,0l0,0l0,0l0,0c0,0,0,0,0-0.1l0,0l0,0l0,0l0,0l0,0l0,0l0,0 l0,0l0,0l0,0l0,0l0,0l0,0l0,0l0,0l0,0l0,0l0,0l0,0l0,0l0,0l0,0l0,0l0,0l0,0l0,0l0,0l0,0l0,0l0,0l0,0l0,0l0,0l0,0l0,0l0,0l0,0l0,0 c0,0,0,0,0-0.1l0,0c1.7-0.7,2.8-1.6,2.8-2.6c0,0,0,0,0-0.1c0,0,0,0,0-0.1c0,0,0,0,0-0.1c0,0,0,0,0-0.1c0,0,0,0,0-0.1 c0,0,0,0,0-0.1c0,0,0,0,0-0.1c0,0,0,0,0-0.1c0,0,0,0,0-0.1c0,0,0,0,0-0.1c0,0,0,0,0-0.1c0,0,0,0,0-0.1c0,0,0,0,0-0.1s0,0,0-0.1 c0,0,0,0,0-0.1c0,0,0,0,0-0.1c0,0,0,0,0-0.1c0,0,0,0,0-0.1s0,0,0-0.1c0,0,0,0,0-0.1c0,0,0,0,0-0.1c0,0,0,0,0-0.1c0,0,0,0,0-0.1 c0,0,0,0,0-0.1s0,0,0-0.1c0,0,0,0,0-0.1c0,0,0,0,0-0.1c0,0,0,0,0-0.1c0,0,0,0,0-0.1c0,0,0,0,0-0.1s0,0,0-0.1c0,0,0,0,0-0.1 c0,0,0,0,0-0.1c0,0,0,0,0-0.1c0,0,0,0,0-0.1s0,0,0-0.1c0,0,0,0,0-0.1c0,0,0,0,0-0.1c0,0,0,0,0-0.1c0,0,0,0,0-0.1c0,0,0,0,0-0.1 c0,0,0,0,0-0.1c0,0,0,0,0-0.1c0,0,0,0,0-0.1l0,0l0,0c0,0,0,0,0-0.1c0,0,0,0,0-0.1c0,0,0,0,0-0.1c0,0,0,0,0-0.1c0,0,0,0,0-0.1 c0,0,0,0,0-0.1c0,0,0,0,0-0.1s0,0,0-0.1c0,0,0,0,0-0.1c0,0,0,0,0-0.1c0,0,0,0,0-0.1c0,0,0,0,0-0.1s0,0,0-0.1c0,0,0,0,0-0.1 c0,0,0,0,0-0.1c0,0,0,0,0-0.1c0,0,0,0,0-0.1c0,0,0,0,0-0.1s0,0,0-0.1c0,0,0,0,0-0.1c0,0,0,0,0-0.1c0,0,0,0,0-0.1c0,0,0,0,0-0.1 c0,0,0,0,0-0.1s0,0,0-0.1c0,0,0,0,0-0.1c0,0,0,0,0-0.1c0,0,0,0,0-0.1c0,0,0,0,0-0.1s0,0,0-0.1c0,0,0,0,0-0.1c0,0,0,0,0-0.1 c0,0,0,0,0-0.1c0,0,0,0,0-0.1c0,0,0,0,0-0.1c0,0,0,0,0-0.1c0,0,0,0,0-0.1c0,0,0,0,0-0.1c0,0,0,0,0-0.1c0,0,0,0,0-0.1 c0,0,0,0,0-0.1s0,0,0-0.1c0,0,0,0,0-0.1c0,0,0,0,0-0.1c0,0,0,0,0-0.1c0,0,0,0,0-0.1s0,0,0-0.1c0,0,0,0,0-0.1c0,0,0,0,0-0.1 c0,0,0,0,0-0.1c0,0,0,0,0-0.1s0,0,0-0.1c0,0,0,0,0-0.1c0,0,0,0,0-0.1c0,0,0,0,0-0.1c0,0,0,0,0-0.1c0,0,0,0,0-0.1 c0-0.8-0.6-1.5-1.7-2.1l3.7-3.4l0,0c0.5-0.4,0.9-0.7,1.2-1.1c0.3-0.4,0.4-0.8,0.4-1.2c0-0.6-0.3-1.2-1-1.8 c0.1,0.1,0.3,0.1,0.4,0.2c1.2,0.6,2.5,1.6,3.4,2.7C492.9,277.7,493.3,278.6,493.3,279.5z"></path> <path class="st9" d="M489.3,275.7c0,0.4-0.1,0.8-0.4,1.2c-0.3,0.4-4.9,4.5-4.9,4.5c1.1,0.6,1.7,1.3,1.7,2.1c0,0,0,0,0,0.1 c0,0,0,0,0,0.1c0,0,0,0,0,0.1c0,0,0,0,0,0.1c0,0,0,0,0,0.1c0,0,0,0,0,0.1s0,0,0,0.1c0,0,0,0,0,0.1c0,0,0,0,0,0.1c0,0,0,0,0,0.1 c0,0,0,0,0,0.1s0,0,0,0.1c0,0,0,0,0,0.1c0,0,0,0,0,0.1c0,0,0,0,0,0.1c0,0,0,0,0,0.1s0,0,0,0.1c0,0,0,0,0,0.1c0,0,0,0,0,0.1 c0,0,0,0,0,0.1c0,0,0,0,0,0.1c0,0,0,0,0,0.1c0,0,0,0,0,0.1c0,0,0,0,0,0.1c0,0,0,0,0,0.1c0,0,0,0,0,0.1c0,0,0,0,0,0.1 c0,0,0,0,0,0.1s0,0,0,0.1c0,0,0,0,0,0.1c0,0,0,0,0,0.1c0,0,0,0,0,0.1c0,0,0,0,0,0.1s0,0,0,0.1c0,0,0,0,0,0.1c0,0,0,0,0,0.1 c0,0,0,0,0,0.1c0,0,0,0,0,0.1c0,0,0,0,0,0.1s0,0,0,0.1c0,0,0,0,0,0.1c0,0,0,0,0,0.1c0,0,0,0,0,0.1c0,0,0,0,0,0.1c0,0,0,0,0,0.1 s0,0,0,0.1c0,0,0,0,0,0.1c0,0,0,0,0,0.1c0,0,0,0,0,0.1c0,0,0,0,0,0.1s0,0,0,0.1c0,0,0,0,0,0.1c0,0,0,0,0,0.1c0,0,0,0,0,0.1 c0,0,0,0,0,0.1c0,0,0,0,0,0.1c0,0,0,0,0,0.1l0,0l0,0c0,0,0,0,0,0.1c0,0,0,0,0,0.1c0,0,0,0,0,0.1c0,0,0,0,0,0.1c0,0,0,0,0,0.1 c0,0,0,0,0,0.1c0,0,0,0,0,0.1c0,0,0,0,0,0.1c0,0,0,0,0,0.1s0,0,0,0.1c0,0,0,0,0,0.1c0,0,0,0,0,0.1c0,0,0,0,0,0.1c0,0,0,0,0,0.1 s0,0,0,0.1c0,0,0,0,0,0.1c0,0,0,0,0,0.1c0,0,0,0,0,0.1c0,0,0,0,0,0.1c0,0,0,0,0,0.1s0,0,0,0.1c0,0,0,0,0,0.1c0,0,0,0,0,0.1 c0,0,0,0,0,0.1c0,0,0,0,0,0.1c0,0,0,0,0,0.1s0,0,0,0.1c0,0,0,0,0,0.1c0,0,0,0,0,0.1c0,0,0,0,0,0.1c0,0,0,0,0,0.1s0,0,0,0.1 c0,0,0,0,0,0.1c0,0,0,0,0,0.1c0,0,0,0,0,0.1c0,0,0,0,0,0.1c0,0,0,0,0,0.1c0,0,0,0,0,0.1c0,0,0,0,0,0.1c0,0,0,0,0,0.1 c0,0,0,0,0,0.1c0,0,0,0,0,0.1c0,0,0,0,0,0.1c0,0,0,0,0,0.1c0,1-1,1.9-2.8,2.6l0,0c0,0,0,0,0,0.1l0,0l0,0l0,0l0,0l0,0l0,0l0,0l0,0 l0,0l0,0l0,0l0,0l0,0l0,0l0,0l0,0l0,0l0,0l0,0l0,0l0,0l0,0l0,0l0,0l0,0l0,0l0,0l0,0l0,0l0,0l0,0l0,0l0,0l0,0l0,0l0,0l0,0l0,0 c0,0,0,0,0,0.1l0,0l0,0l0,0l0,0l0,0l0,0l0,0l0,0l0,0l0,0l0,0l0,0l0,0l0,0l0,0l0,0l0,0l0,0l0,0l0,0l0,0l0,0l0,0l0,0l0,0l0,0l0,0 l0,0l0,0c0,2-5.3,3.6-11.9,3.6s-11.9-1.6-11.9-3.6l0,0l0,0l0,0l0,0l0,0l0,0l0,0l0,0l0,0l0,0l0,0l0,0l0,0l0,0l0,0l0,0l0,0l0,0 c0,0,0,0,0-0.1l0,0l0,0l0,0l0,0l0,0l0,0l0,0l0,0l0,0l0,0l0,0l0,0l0,0l0,0l0,0l0,0l0,0l0,0l0,0l0,0l0,0l0,0l0,0l0,0l0,0l0,0l0,0 l0,0l0,0l0,0l0,0l0,0l0,0l0,0l0,0l0,0l0,0l0,0c0,0,0,0,0-0.1l0,0l0,0l0,0l0,0l0,0l0,0l0,0l0,0l0,0l0,0l0,0l0,0 c-1.7-0.7-2.8-1.6-2.8-2.6c0,0,0,0,0-0.1c0,0,0,0,0-0.1c0,0,0,0,0-0.1c0,0,0,0,0-0.1c0,0,0,0,0-0.1c0,0,0,0,0-0.1c0,0,0,0,0-0.1 c0,0,0,0,0-0.1c0,0,0,0,0-0.1c0,0,0,0,0-0.1c0,0,0,0,0-0.1c0,0,0,0,0-0.1c0,0,0,0,0-0.1c0,0,0,0,0-0.1c0,0,0,0,0-0.1 c0,0,0,0,0-0.1c0,0,0,0,0-0.1c0,0,0,0,0-0.1s0,0,0-0.1c0,0,0,0,0-0.1c0,0,0,0,0-0.1c0,0,0,0,0-0.1c0,0,0,0,0-0.1c0,0,0,0,0-0.1 s0,0,0-0.1c0,0,0,0,0-0.1c0,0,0,0,0-0.1c0,0,0,0,0-0.1c0,0,0,0,0-0.1c0,0,0,0,0-0.1s0,0,0-0.1c0,0,0,0,0-0.1c0,0,0,0,0-0.1 c0,0,0,0,0-0.1c0,0,0,0,0-0.1c0,0,0,0,0-0.1c0,0,0,0,0-0.1c0,0,0,0,0-0.1c0,0,0,0,0-0.1c0,0,0,0,0-0.1c0,0,0,0,0-0.1 c0,0,0,0,0-0.1c0,0,0,0,0-0.1c0,0,0,0,0-0.1l0,0l0,0c0,0,0,0,0-0.1c0,0,0,0,0-0.1c0,0,0,0,0-0.1c0,0,0,0,0-0.1c0,0,0,0,0-0.1 c0,0,0,0,0-0.1c0,0,0,0,0-0.1s0,0,0-0.1c0,0,0,0,0-0.1c0,0,0,0,0-0.1c0,0,0,0,0-0.1c0,0,0,0,0-0.1c0,0,0,0,0-0.1c0,0,0,0,0-0.1 c0,0,0,0,0-0.1c0,0,0,0,0-0.1c0,0,0,0,0-0.1c0,0,0,0,0-0.1c0,0,0,0,0-0.1c0,0,0,0,0-0.1c0,0,0,0,0-0.1c0,0,0,0,0-0.1 c0,0,0,0,0-0.1c0,0,0,0,0-0.1c0,0,0,0,0-0.1v-0.1c0,0,0,0,0-0.1c0,0,0,0,0-0.1s0,0,0-0.1c0,0,0,0,0-0.1c0,0,0,0,0-0.1 c0,0,0,0,0-0.1c0,0,0,0,0-0.1c0,0,0,0,0-0.1c0,0,0,0,0-0.1c0,0,0,0,0-0.1c0,0,0,0,0-0.1c0,0,0,0,0-0.1c0,0,0,0,0-0.1 c0,0,0,0,0-0.1s0,0,0-0.1c0,0,0,0,0-0.1c0,0,0,0,0-0.1c0,0,0,0,0-0.1c0,0,0,0,0-0.1v-0.1c0,0,0,0,0-0.1c0,0,0,0,0-0.1 c0,0,0,0,0-0.1s0,0,0-0.1c0,0,0,0,0-0.1c0,0,0,0,0-0.1c0,0,0,0,0-0.1c0,0,0,0,0-0.1c0,0,0,0,0-0.1c0-0.6,0.4-1.2,1.1-1.7 l-4.2-4.9l0,0l0,0l0,0c-0.2-0.4-0.4-0.7-0.4-1.1c0-0.7,0.4-1.4,1.3-2c2.7-2.1,9.3-3.5,17-3.5c8,0,14.8,1.6,17.3,3.8 C489,274.4,489.3,275,489.3,275.7z"></path> <path class="st20" d="M453.8,277.4c-0.2-0.2-0.3-0.3-0.5-0.5l0,0l0,0l0.1,0.1L453.8,277.4z"></path> <g> <path class="st9" d="M453.8,277.4c-0.2-0.2-0.3-0.3-0.5-0.5l0,0l0,0l0.1,0.1L453.8,277.4z"></path> </g> </g> </g> <g> <g> <path class="st4" d="M471,251.6c16.8,0,28.5,6.4,29,16.7c0,1.6,0.4,3.5,0.9,5c0.8,1.1,1.2,2.3,1.2,3.5l0,0c0,0.1,0,0.1,0,0.2 c0,3.8-4,7.2-10.3,9.5h-0.1c-0.6,4.5-2.7,12-9.7,16.5c-3.9,2.6-7.8,2.7-9.4,2.8c-0.4,0-1,0.1-1.6,0.1s-1.2-0.1-1.6-0.1 c-1.7-0.1-5.5-0.2-9.4-2.8c-7-4.6-9.1-12-9.7-16.5h-0.1c-6.3-2.3-10.3-5.7-10.3-9.5c0-0.1,0-0.1,0-0.2l0,0c0-1.2,0.4-2.4,1.2-3.5 c0.5-1.6,0.9-3.5,0.9-5C442.5,258,454.2,251.6,471,251.6 M471,249.6c-18.3,0-30.4,7.3-31,18.6l0,0l0,0c0,1.1-0.2,2.5-0.7,4.2 c-0.9,1.4-1.3,2.8-1.3,4.3v2h0.2c0.9,3.6,4.5,6.8,10.3,9.2c0.8,4.7,3.2,12,10.4,16.7c4,2.7,8.1,2.9,10,3.1h0.4 c0.4,0,1,0.1,1.7,0.1h0.1h0.1c0.7,0,1.3-0.1,1.7-0.1h0.4c1.9-0.1,5.9-0.4,10-3.1c7.1-4.7,9.5-12,10.4-16.7 c5.9-2.4,9.4-5.6,10.3-9.2h0.2V277c0,0,0,0,0-0.1c0,0,0,0,0-0.1v-0.1c0-1.5-0.5-2.9-1.3-4.3c-0.5-1.7-0.7-3.1-0.7-4.2l0,0l0,0 C501.4,256.9,489.3,249.6,471,249.6L471,249.6z"></path> </g> </g> </g> <path class="st21" d="M325.3,190.1c-7.7,0-14-6.3-14-14s6.3-14,14-14s14,6.3,14,14S333,190.1,325.3,190.1z"></path> <path class="st22" d="M325.3,186c-5.5,0-9.9-4.4-9.9-9.9s4.4-9.9,9.9-9.9s9.9,4.4,9.9,9.9S330.8,186,325.3,186z"></path> <circle id="dot-large_4_" class="st23" cx="325.3" cy="176.1" r="5.8"></circle> <g class="st24"> <g> <g id="icon-long-battery-life_6_"> <g> <path class="st10" d="M323.8,208.8h1.4c0.8,0,1.4-0.6,1.4-1.4V203c0-0.8-0.6-1.4-1.4-1.4h-1.4"></path> </g> </g> <path class="st10" d="M293.5,213.9c-0.8,0-1.4-0.6-1.4-1.4V198c0-0.8,0.6-1.4,1.4-1.4h29c0.8,0,1.4,0.6,1.4,1.4v14.5 c0,0.8-0.6,1.4-1.4,1.4H293.5z"></path> <g> <rect x="295" y="199.5" class="st11" width="26" height="11.5"></rect> <path class="st0" d="M319.5,201v8.5h-23V201H319.5 M322,198h-28.1c-0.3,0-0.5,0.2-0.5,0.5V212c0,0.3,0.2,0.5,0.5,0.5H322 c0.3,0,0.5-0.2,0.5-0.5v-13.6C322.5,198.2,322.3,198,322,198L322,198z"></path> </g> </g> <g> <g id="icon-long-battery-life_5_"> <g> <path class="st10" d="M292.1,221.7h-1.4c-0.8,0-1.4,0.6-1.4,1.4v4.4c0,0.8,0.6,1.4,1.4,1.4h1.4"></path> </g> </g> <path class="st10" d="M322.5,216.7c0.8,0,1.4,0.6,1.4,1.4v14.5c0,0.8-0.6,1.4-1.4,1.4h-29c-0.8,0-1.4-0.6-1.4-1.4V218 c0-0.8,0.6-1.4,1.4-1.4L322.5,216.7L322.5,216.7z"></path> <g> <rect x="295" y="219.6" class="st11" width="26" height="11.5"></rect> <path class="st0" d="M319.5,221.1v8.5h-23v-8.5H319.5 M322,218h-28.1c-0.3,0-0.5,0.2-0.5,0.5v13.6c0,0.3,0.2,0.5,0.5,0.5H322 c0.3,0,0.5-0.2,0.5-0.5v-13.6C322.5,218.3,322.3,218,322,218L322,218z"></path> </g> </g> </g> </svg> 