<?xml version="1.0" encoding="UTF-8"?> <!-- Generator: Adobe Illustrator 24.3.0, SVG Export Plug-In . SVG Version: 6.00 Build 0) --> <svg xmlns="http://www.w3.org/2000/svg" xmlns:xlink="http://www.w3.org/1999/xlink" version="1.1" id="screenshot" x="0px" y="0px" viewBox="0 0 1200 439.5" style="enable-background:new 0 0 1200 439.5;" xml:space="preserve"> <style type="text/css"> .st0{fill:#e07525;} .st1{fill:#ebc106;} .st2{fill:#e07525;} .st3{fill:#F2F2F2;} .st4{fill:#898B8E;} .st5{fill:#FFFFFF;} .st6{fill:#D85656;} .st7{fill:#FFCD00;} .st8{fill:none;stroke:#D85656;stroke-width:0.7873;stroke-linecap:round;stroke-linejoin:round;stroke-miterlimit:10;} .st9{enable-background:new ;} .st10{fill:none;stroke:#404241;stroke-width:0.7335;stroke-miterlimit:10;} .st11{fill:none;stroke:#F2F2F2;stroke-width:0.7335;stroke-miterlimit:10;} .st12{fill:none;stroke:#67B346;stroke-width:0.7873;stroke-linecap:round;stroke-linejoin:round;stroke-miterlimit:10;} .st13{fill:none;stroke:#C9C9C9;stroke-width:0.7335;stroke-miterlimit:10;} .st14{fill:none;stroke:#F2F2F2;stroke-width:0.7921;stroke-miterlimit:10;} .st15{fill:none;stroke:#D85656;stroke-width:0.9535;stroke-linecap:round;stroke-linejoin:round;} .st16{fill:none;stroke:#D85656;stroke-width:0.9535;stroke-linecap:round;stroke-linejoin:round;stroke-dasharray:0,3.8633;} .st17{fill:none;stroke:#5576D1;stroke-width:0.8997;stroke-linecap:round;stroke-linejoin:round;stroke-miterlimit:10;} .st18{fill:none;stroke:#FFFFFF;stroke-width:1.6835;stroke-linecap:round;stroke-linejoin:round;stroke-miterlimit:10;} .st19{fill:none;stroke:#5576D1;stroke-width:2;stroke-linecap:round;stroke-linejoin:round;stroke-miterlimit:10;} .st20{fill:none;stroke:#67B346;stroke-width:2;stroke-linecap:round;stroke-linejoin:round;stroke-miterlimit:10;} .st21{fill:#EAEAEA;} .st22{fill:#E5E5E5;} .st23{fill:#898A8D;} .st24{fill:#EAEBEB;} .st25{fill:#C9C9C9;} .st26{fill:#E4E5E5;} .st27{fill:#808080;} .st28{fill:#F0F0F0;} </style> <path class="st0" d="M400,437.5H12c-5.5,0-10-4.5-10-10V12C2,6.5,6.5,2,12,2h388V437.5z"></path> <rect x="400" y="2" class="st1" width="400" height="435.5"></rect> <path class="st2" d="M1188,437.5H800V2h388c5.5,0,10,4.5,10,10v415.5C1198,433,1193.5,437.5,1188,437.5z"></path> <g> <g> <g> <path class="st3" d="M868.5,193.9c-2,0-3.6-1.6-3.6-3.6V61.5c0-2,1.6-3.6,3.6-3.6h253.7c2,0,3.6,1.6,3.6,3.6v128.8 c0,2-1.6,3.6-3.6,3.6L868.5,193.9L868.5,193.9z"></path> <path class="st4" d="M1122.2,58.8c1.5,0,2.6,1.2,2.6,2.6v128.8c0,1.5-1.2,2.6-2.6,2.6H868.5c-1.5,0-2.6-1.2-2.6-2.6V61.5 c0-1.5,1.2-2.6,2.6-2.6h253.7 M1122.2,56.8H868.5c-2.6,0-4.6,2.1-4.6,4.6v128.8c0,2.6,2.1,4.6,4.6,4.6h253.7 c2.6,0,4.6-2.1,4.6-4.6V61.5C1126.8,58.9,1124.7,56.8,1122.2,56.8L1122.2,56.8z"></path> </g> <g> <path class="st2" d="M910.8,192.9h-42.3c-1.5,0-2.6-1.2-2.6-2.6V61.5c0-1.5,1.2-2.6,2.6-2.6h42.3V192.9z"></path> <g> <g> <g> <rect x="875.9" y="76" class="st5" width="0.5" height="2"></rect> <path class="st5" d="M880.5,76.6c0,0-0.2-0.1-0.4-0.1c-0.3,0-0.6,0.2-0.6,0.5s0.2,0.5,0.6,0.5c0.2,0,0.4-0.1,0.4-0.1V78 c-0.1,0-0.2,0.1-0.5,0.1c-0.6,0-1.1-0.4-1.1-1.1c0-0.6,0.5-1.1,1.1-1.1c0.2,0,0.4,0.1,0.5,0.1V76.6z"></path> <path class="st5" d="M875.1,76.6c0,0-0.2-0.1-0.4-0.1c-0.3,0-0.6,0.2-0.6,0.5s0.2,0.5,0.6,0.5c0.2,0,0.4-0.1,0.4-0.1V78 c-0.1,0-0.2,0.1-0.5,0.1c-0.6,0-1.1-0.4-1.1-1.1c0-0.6,0.5-1.1,1.1-1.1c0.2,0,0.4,0.1,0.5,0.1V76.6z"></path> <path class="st5" d="M882.1,76.5c-0.3,0-0.5,0.2-0.5,0.5s0.2,0.5,0.5,0.5s0.5-0.2,0.5-0.5C882.7,76.8,882.5,76.5,882.1,76.5 M883.2,77.1c0,0.6-0.5,1.1-1.1,1.1s-1.1-0.5-1.1-1.1s0.5-1.1,1.1-1.1C882.8,76,883.2,76.5,883.2,77.1"></path> <path class="st5" d="M878.3,76.5c0,0-0.2-0.1-0.4-0.1s-0.3,0.1-0.3,0.2s0.2,0.2,0.2,0.2h0.1c0.3,0.1,0.5,0.3,0.5,0.6 c0,0.5-0.5,0.7-0.8,0.7S877.1,78,877,78v-0.5c0,0,0.3,0.1,0.5,0.1c0.3,0,0.4-0.1,0.4-0.2s-0.1-0.2-0.2-0.2h-0.1 c-0.3-0.1-0.5-0.3-0.5-0.6c0-0.4,0.3-0.6,0.8-0.6c0.3,0,0.5,0.1,0.5,0.1v0.4H878.3z"></path> <path class="st5" d="M873,73.8c0-0.1-0.1-0.3-0.3-0.3c-0.1,0-0.3,0.1-0.3,0.3v0.5c0,0.1,0.1,0.3,0.3,0.3 c0.1,0,0.3-0.1,0.3-0.3V73.8z"></path> <path class="st5" d="M874.4,73.1c0-0.1-0.1-0.3-0.3-0.3c-0.1,0-0.3,0.1-0.3,0.3v1.2c0,0.1,0.1,0.3,0.3,0.3 c0.1,0,0.3-0.1,0.3-0.3V73.1z"></path> <path class="st5" d="M875.9,72.2c0-0.1-0.1-0.3-0.3-0.3c-0.1,0-0.3,0.1-0.3,0.3v2.7c0,0.1,0.1,0.3,0.3,0.3 c0.1,0,0.3-0.1,0.3-0.3V72.2z"></path> <path class="st5" d="M877.3,73.1c0-0.1-0.1-0.3-0.3-0.3c-0.1,0-0.3,0.1-0.3,0.3v1.2c0,0.1,0.1,0.3,0.3,0.3 c0.1,0,0.3-0.1,0.3-0.3V73.1z"></path> <path class="st5" d="M878.7,73.8c0-0.1-0.1-0.3-0.3-0.3c-0.1,0-0.3,0.1-0.3,0.3v0.5c0,0.1,0.1,0.3,0.3,0.3 c0.1,0,0.3-0.1,0.3-0.3V73.8z"></path> <path class="st5" d="M880.1,73.1c0-0.1-0.1-0.3-0.3-0.3c-0.1,0-0.3,0.1-0.3,0.3v1.2c0,0.1,0.1,0.3,0.3,0.3 c0.1,0,0.3-0.1,0.3-0.3V73.1z"></path> <path class="st5" d="M881.5,72.2c0-0.1-0.1-0.3-0.3-0.3c-0.1,0-0.3,0.1-0.3,0.3v2.7c0,0.1,0.1,0.3,0.3,0.3 c0.1,0,0.3-0.1,0.3-0.3V72.2z"></path> <path class="st5" d="M882.9,73.1c0-0.1-0.1-0.3-0.3-0.3c-0.1,0-0.3,0.1-0.3,0.3v1.2c0,0.1,0.1,0.3,0.3,0.3 c0.1,0,0.3-0.1,0.3-0.3V73.1z"></path> <path class="st5" d="M884.3,73.8c0-0.1-0.1-0.3-0.3-0.3c-0.1,0-0.3,0.1-0.3,0.3v0.5c0,0.1,0.1,0.3,0.3,0.3 c0.1,0,0.3-0.1,0.3-0.3V73.8z"></path> </g> <g> <path class="st5" d="M889.6,78.1l-1.6-3.9v3.9h-0.3v-4.4h0.5l1.6,4l1.5-4h0.5v4.4h-0.3v-3.9l-1.5,3.9H889.6z"></path> <path class="st5" d="M895.4,77.2c-0.2,0.6-0.6,1-1.3,1c-0.9,0-1.5-0.6-1.5-1.7s0.6-1.7,1.4-1.7c0.8,0,1.4,0.5,1.4,1.8h-2.5 c0,0.9,0.5,1.3,1.2,1.3c0.5,0,0.8-0.3,1-0.7L895.4,77.2L895.4,77.2z M892.9,76.3h2.2c0-0.8-0.5-1.2-1.1-1.2 C893.4,75.1,892.9,75.5,892.9,76.3z"></path> <path class="st5" d="M896.2,78.1v-3.2h0.3v0.6c0.2-0.5,0.5-0.7,0.9-0.7c0.1,0,0.3,0,0.3,0v0.3c-0.1,0-0.2-0.1-0.3-0.1 c-0.5,0-0.9,0.5-0.9,1.2v1.7h-0.3V78.1z"></path> <path class="st5" d="M898.1,75.7c0-0.5,0.5-0.9,1.2-0.9s1.2,0.4,1.2,1V78h-0.3v-0.5c-0.2,0.3-0.6,0.6-1.1,0.6 c-0.6,0-1.1-0.3-1.1-0.9c0-0.5,0.3-0.9,1.2-1l0.9-0.2v-0.3c0-0.5-0.3-0.7-0.9-0.7c-0.5,0-0.8,0.3-0.9,0.6h-0.2V75.7z M900.2,77v-0.6l-0.9,0.1c-0.8,0.1-1,0.4-1,0.7c0,0.4,0.3,0.6,0.8,0.6C899.7,77.9,900.2,77.5,900.2,77z"></path> <path class="st5" d="M901.4,78.1v-4.4h0.3v2.5l1.5-1.3h0.4l-1.6,1.4l1.8,1.8h-0.4l-1.7-1.7v1.7H901.4z"></path> <path class="st5" d="M904.3,74.1v-0.4h0.4v0.4H904.3z M904.3,78.1v-3.2h0.3v3.2H904.3z"></path> </g> </g> <g> <circle class="st6" cx="871.2" cy="63.6" r="1.1"></circle> <circle class="st7" cx="874.9" cy="63.6" r="1.1"></circle> <circle class="st1" cx="878.5" cy="63.6" r="1.1"></circle> </g> </g> </g> </g> <g> <g> <g> <path class="st5" d="M967.8,119.2h-43.5c-0.4,0-0.7-0.3-0.7-0.7V83c0-0.4,0.3-0.7,0.7-0.7h43.5c0.4,0,0.7,0.3,0.7,0.7v35.5 C968.4,118.9,968.1,119.2,967.8,119.2z"></path> </g> <g> <circle class="st8" cx="934.9" cy="101.1" r="3.2"></circle> <path id="exclamation-mark_9_" class="st6" d="M934.9,102.3L934.9,102.3c-0.1,0-0.2-0.1-0.2-0.2l-0.1-2.8c0-0.2,0.2-0.4,0.4-0.4 s0.4,0.2,0.4,0.4l-0.1,2.8C935.1,102.2,935,102.3,934.9,102.3L934.9,102.3z M934.6,103.1c0,0.2,0.2,0.4,0.4,0.4s0.4-0.2,0.4-0.4 c0-0.2-0.2-0.4-0.4-0.4C934.7,102.7,934.6,102.9,934.6,103.1z"></path> </g> <g> <g class="st9"> <path class="st2" d="M943.8,104.2h-0.9v-5.8l-1.8,0.6v-0.8l2.5-0.9h0.1V104.2z"></path> </g> </g> <g> <g class="st9"> <path class="st2" d="M935.7,89.3H935v2h-0.5v-2h-0.7v-0.4h2V89.3z"></path> <path class="st2" d="M936.8,91.4c-0.3,0-0.5-0.1-0.6-0.2c-0.2-0.2-0.2-0.4-0.2-0.6v0c0-0.2,0-0.3,0.1-0.5 c0.1-0.1,0.2-0.2,0.3-0.3s0.3-0.1,0.4-0.1c0.2,0,0.4,0.1,0.6,0.2c0.1,0.2,0.2,0.4,0.2,0.7v0.2h-1.1c0,0.1,0.1,0.2,0.1,0.3 s0.2,0.1,0.3,0.1c0.2,0,0.3-0.1,0.4-0.2l0.2,0.3c-0.1,0.1-0.2,0.2-0.3,0.2S936.9,91.4,936.8,91.4z M936.7,89.9 c-0.1,0-0.2,0-0.2,0.1c-0.1,0.1-0.1,0.2-0.1,0.3h0.7v0c0-0.1,0-0.2-0.1-0.2C936.9,89.9,936.8,89.9,936.7,89.9z"></path> <path class="st2" d="M938.2,89.6l0,0.2c0.1-0.2,0.3-0.2,0.5-0.2c0.2,0,0.4,0.1,0.5,0.3c0.1-0.2,0.3-0.3,0.5-0.3 c0.2,0,0.3,0.1,0.4,0.2c0.1,0.1,0.1,0.3,0.1,0.5v1.1h-0.5v-1.1c0-0.1,0-0.2-0.1-0.2c0,0-0.1-0.1-0.2-0.1 c-0.1,0-0.2,0.1-0.3,0.2l0,1.2h-0.5v-1.1c0-0.1,0-0.2-0.1-0.2c0,0-0.1-0.1-0.2-0.1c-0.1,0-0.2,0.1-0.3,0.2v1.3h-0.5v-1.8H938.2 z"></path> <path class="st2" d="M942.3,90.5c0,0.3-0.1,0.5-0.2,0.7c-0.1,0.2-0.3,0.2-0.5,0.2c-0.2,0-0.3-0.1-0.4-0.2V92h-0.5v-2.5h0.4 l0,0.2c0.1-0.1,0.3-0.2,0.5-0.2c0.2,0,0.4,0.1,0.5,0.2C942.2,89.9,942.3,90.2,942.3,90.5L942.3,90.5z M941.8,90.4 c0-0.2,0-0.3-0.1-0.4s-0.1-0.1-0.3-0.1c-0.1,0-0.3,0.1-0.3,0.2v0.7c0.1,0.1,0.2,0.2,0.3,0.2C941.7,91,941.8,90.8,941.8,90.4z"></path> <path class="st2" d="M943.4,91.4c-0.3,0-0.5-0.1-0.6-0.2c-0.2-0.2-0.2-0.4-0.2-0.6v0c0-0.2,0-0.3,0.1-0.5 c0.1-0.1,0.2-0.2,0.3-0.3s0.3-0.1,0.4-0.1c0.2,0,0.4,0.1,0.6,0.2c0.1,0.2,0.2,0.4,0.2,0.7v0.2H943c0,0.1,0.1,0.2,0.1,0.3 s0.2,0.1,0.3,0.1c0.2,0,0.3-0.1,0.4-0.2l0.2,0.3c-0.1,0.1-0.2,0.2-0.3,0.2S943.6,91.4,943.4,91.4z M943.4,89.9 c-0.1,0-0.2,0-0.2,0.1c-0.1,0.1-0.1,0.2-0.1,0.3h0.7v0c0-0.1,0-0.2-0.1-0.2C943.5,89.9,943.5,89.9,943.4,89.9z"></path> <path class="st2" d="M945.4,90c-0.1,0-0.1,0-0.2,0c-0.2,0-0.3,0.1-0.4,0.2v1.2h-0.5v-1.8h0.4l0,0.2c0.1-0.2,0.2-0.2,0.4-0.2 c0.1,0,0.1,0,0.1,0L945.4,90z"></path> <path class="st2" d="M946.6,91.3c0,0,0-0.1,0-0.2c-0.1,0.1-0.3,0.2-0.5,0.2c-0.2,0-0.3-0.1-0.4-0.2c-0.1-0.1-0.2-0.2-0.2-0.4 c0-0.2,0.1-0.3,0.2-0.4c0.1-0.1,0.3-0.2,0.6-0.2h0.2v-0.1c0-0.1,0-0.1-0.1-0.2c0,0-0.1-0.1-0.2-0.1c-0.1,0-0.1,0-0.2,0.1 S946,90,946,90.1h-0.5c0-0.1,0-0.2,0.1-0.3s0.2-0.2,0.3-0.2c0.1,0,0.2-0.1,0.4-0.1c0.2,0,0.4,0.1,0.5,0.2 c0.1,0.1,0.2,0.3,0.2,0.5v0.8c0,0.2,0,0.3,0.1,0.4v0H946.6z M946.2,91c0.1,0,0.1,0,0.2,0c0.1,0,0.1-0.1,0.1-0.1v-0.3h-0.2 c-0.2,0-0.4,0.1-0.4,0.2l0,0c0,0.1,0,0.1,0.1,0.1C946.1,91,946.2,91,946.2,91z"></path> <path class="st2" d="M948,89.1v0.4h0.3v0.3H948v0.9c0,0.1,0,0.1,0,0.1c0,0,0.1,0,0.1,0c0.1,0,0.1,0,0.1,0v0.4 c-0.1,0-0.2,0-0.3,0c-0.3,0-0.5-0.2-0.5-0.5v-1h-0.3v-0.3h0.3v-0.4H948z"></path> <path class="st2" d="M949.6,91.2c-0.1,0.1-0.3,0.2-0.5,0.2c-0.2,0-0.3-0.1-0.4-0.2s-0.2-0.3-0.2-0.5v-1.2h0.5v1.2 c0,0.2,0.1,0.3,0.3,0.3c0.2,0,0.3-0.1,0.3-0.2v-1.3h0.5v1.8h-0.4L949.6,91.2z"></path> <path class="st2" d="M951.4,90c-0.1,0-0.1,0-0.2,0c-0.2,0-0.3,0.1-0.4,0.2v1.2h-0.5v-1.8h0.5l0,0.2c0.1-0.2,0.2-0.2,0.4-0.2 c0.1,0,0.1,0,0.1,0L951.4,90z"></path> <path class="st2" d="M952.5,91.4c-0.3,0-0.5-0.1-0.6-0.2c-0.2-0.2-0.2-0.4-0.2-0.6v0c0-0.2,0-0.3,0.1-0.5 c0.1-0.1,0.2-0.2,0.3-0.3s0.3-0.1,0.4-0.1c0.2,0,0.4,0.1,0.6,0.2c0.1,0.2,0.2,0.4,0.2,0.7v0.2h-1.1c0,0.1,0.1,0.2,0.1,0.3 c0.1,0.1,0.2,0.1,0.3,0.1c0.2,0,0.3-0.1,0.4-0.2l0.2,0.3c-0.1,0.1-0.2,0.2-0.3,0.2S952.6,91.4,952.5,91.4z M952.4,89.9 c-0.1,0-0.2,0-0.2,0.1c-0.1,0.1-0.1,0.2-0.1,0.3h0.7v0c0-0.1,0-0.2-0.1-0.2S952.5,89.9,952.4,89.9z"></path> </g> </g> <g class="st9"> <path class="st4" d="M947.8,104.2c0,0,0-0.1-0.1-0.2c-0.1,0.1-0.3,0.2-0.5,0.2c-0.2,0-0.4-0.1-0.5-0.2c-0.1-0.1-0.2-0.3-0.2-0.4 c0-0.2,0.1-0.4,0.2-0.5c0.2-0.1,0.4-0.2,0.7-0.2h0.3v-0.1c0-0.1,0-0.2-0.1-0.2c-0.1-0.1-0.1-0.1-0.3-0.1c-0.1,0-0.2,0-0.3,0.1 c-0.1,0.1-0.1,0.1-0.1,0.2h-0.5c0-0.1,0-0.2,0.1-0.3c0.1-0.1,0.2-0.2,0.3-0.2c0.1-0.1,0.3-0.1,0.4-0.1c0.2,0,0.4,0.1,0.6,0.2 s0.2,0.3,0.2,0.5v0.9c0,0.2,0,0.3,0.1,0.4v0H947.8z M947.3,103.9c0.1,0,0.2,0,0.3-0.1c0.1,0,0.1-0.1,0.2-0.2v-0.4h-0.2 c-0.2,0-0.3,0-0.4,0.1c-0.1,0.1-0.1,0.1-0.1,0.2c0,0.1,0,0.2,0.1,0.2C947.1,103.9,947.2,103.9,947.3,103.9z"></path> <path class="st4" d="M949.1,104.2h-0.5v-2.8h0.5V104.2z"></path> <path class="st4" d="M950.5,104.3c-0.3,0-0.5-0.1-0.7-0.3c-0.2-0.2-0.3-0.4-0.3-0.7v-0.1c0-0.2,0-0.4,0.1-0.5 c0.1-0.2,0.2-0.3,0.3-0.4c0.1-0.1,0.3-0.1,0.5-0.1c0.3,0,0.5,0.1,0.6,0.3c0.1,0.2,0.2,0.4,0.2,0.7v0.2H950 c0,0.2,0.1,0.3,0.2,0.4c0.1,0.1,0.2,0.1,0.4,0.1c0.2,0,0.4-0.1,0.5-0.2l0.2,0.2c-0.1,0.1-0.2,0.2-0.3,0.3 C950.8,104.2,950.6,104.3,950.5,104.3z M950.4,102.5c-0.1,0-0.2,0-0.3,0.1c-0.1,0.1-0.1,0.2-0.1,0.4h0.9v0c0-0.2,0-0.3-0.1-0.3 C950.6,102.6,950.5,102.5,950.4,102.5z"></path> <path class="st4" d="M952.7,102.6c-0.1,0-0.1,0-0.2,0c-0.2,0-0.3,0.1-0.4,0.2v1.4h-0.5v-2h0.4l0,0.2c0.1-0.2,0.3-0.3,0.5-0.3 c0.1,0,0.1,0,0.2,0L952.7,102.6z"></path> <path class="st4" d="M953.6,101.7v0.5h0.4v0.3h-0.4v1.1c0,0.1,0,0.1,0,0.2c0,0,0.1,0.1,0.2,0.1c0.1,0,0.1,0,0.2,0v0.3 c-0.1,0-0.2,0-0.3,0c-0.3,0-0.5-0.2-0.5-0.6v-1.1h-0.3v-0.3h0.3v-0.5H953.6z"></path> <path class="st4" d="M954.3,101.7c0-0.1,0-0.1,0.1-0.2s0.1-0.1,0.2-0.1c0.1,0,0.1,0,0.2,0.1s0.1,0.1,0.1,0.2 c0,0.1,0,0.1-0.1,0.2s-0.1,0.1-0.2,0.1c-0.1,0-0.1,0-0.2-0.1S954.3,101.8,954.3,101.7z M954.8,104.2h-0.5v-2h0.5V104.2z"></path> <path class="st4" d="M955.7,102.2l0,0.2c0.1-0.2,0.3-0.3,0.6-0.3c0.4,0,0.6,0.2,0.6,0.7v1.3h-0.5v-1.3c0-0.1,0-0.2-0.1-0.3 c-0.1-0.1-0.1-0.1-0.3-0.1c-0.2,0-0.3,0.1-0.4,0.2v1.4h-0.5v-2H955.7z"></path> <path class="st4" d="M957.3,103.2c0-0.3,0.1-0.6,0.2-0.7c0.1-0.2,0.3-0.3,0.6-0.3c0.2,0,0.4,0.1,0.5,0.2l0-0.2h0.4v1.9 c0,0.3-0.1,0.5-0.2,0.6c-0.2,0.2-0.4,0.2-0.7,0.2c-0.1,0-0.3,0-0.4-0.1c-0.1-0.1-0.2-0.1-0.3-0.2l0.2-0.3 c0.1,0.2,0.3,0.2,0.5,0.2c0.1,0,0.3,0,0.4-0.1c0.1-0.1,0.1-0.2,0.1-0.4V104c-0.1,0.1-0.3,0.2-0.5,0.2c-0.2,0-0.4-0.1-0.6-0.3 C957.4,103.8,957.3,103.5,957.3,103.2z M957.8,103.2c0,0.2,0,0.4,0.1,0.5s0.2,0.2,0.3,0.2c0.2,0,0.3-0.1,0.4-0.2v-0.9 c-0.1-0.2-0.2-0.2-0.4-0.2c-0.1,0-0.3,0.1-0.3,0.2S957.8,103,957.8,103.2z"></path> </g> <path class="st10" d="M928.5,101"></path> <line class="st11" x1="923.6" y1="108.6" x2="968.4" y2="108.6"></line> <g> <g> <g class="st9"> <path class="st0" d="M943.1,114.3l0.5-1.8h0.6l-0.8,2.4h-0.5l-0.8-2.4h0.5L943.1,114.3z"></path> <path class="st0" d="M945,114.9h-0.5v-2.4h0.5V114.9z"></path> <path class="st0" d="M946.9,113.9h-1v0.6h1.1v0.4h-1.6v-2.4h1.6v0.4h-1.1v0.6h1V113.9z"></path> <path class="st0" d="M949.2,114.2l0.3-1.7h0.5l-0.5,2.4H949l-0.4-1.6l-0.4,1.6h-0.5l-0.5-2.4h0.5l0.3,1.7l0.4-1.7h0.4 L949.2,114.2z"></path> </g> </g> </g> </g> <g> <g> <path class="st5" d="M1017,119.2h-43.5c-0.4,0-0.7-0.3-0.7-0.7V83c0-0.4,0.3-0.7,0.7-0.7h43.5c0.4,0,0.7,0.3,0.7,0.7v35.5 C1017.7,118.9,1017.4,119.2,1017,119.2z"></path> </g> <g> <g> <circle class="st12" cx="984.2" cy="101.1" r="3.2"></circle> </g> <g id="icon-check-mark_3_"> <polyline id="check-mark_3_" class="st12" points="982.4,101.5 983.4,102.5 986,99.9 "></polyline> </g> </g> <g> <g class="st9"> <path class="st2" d="M994.5,101.3c0,1-0.2,1.8-0.5,2.3c-0.3,0.5-0.9,0.7-1.6,0.7c-0.7,0-1.3-0.2-1.6-0.7 c-0.4-0.5-0.5-1.2-0.5-2.2v-1.2c0-1,0.2-1.8,0.5-2.2s0.9-0.7,1.6-0.7c0.7,0,1.3,0.2,1.6,0.7c0.3,0.5,0.5,1.2,0.5,2.2V101.3z M993.6,100.1c0-0.7-0.1-1.3-0.3-1.6c-0.2-0.3-0.5-0.5-1-0.5c-0.4,0-0.8,0.2-1,0.5s-0.3,0.9-0.3,1.6v1.4c0,0.7,0.1,1.3,0.3,1.6 c0.2,0.4,0.5,0.5,1,0.5c0.4,0,0.8-0.2,1-0.5s0.3-0.9,0.3-1.6V100.1z"></path> </g> </g> <g> <g class="st9"> <path class="st2" d="M989.2,91.3h-0.5v-1h-1v1h-0.5v-2.4h0.5v1h1v-1h0.5V91.3z"></path> <path class="st2" d="M990.7,91.2c-0.1,0.1-0.3,0.2-0.5,0.2c-0.2,0-0.3-0.1-0.4-0.2s-0.2-0.3-0.2-0.5v-1.2h0.5v1.2 c0,0.2,0.1,0.3,0.3,0.3c0.2,0,0.3-0.1,0.3-0.2v-1.3h0.5v1.8h-0.4L990.7,91.2z"></path> <path class="st2" d="M992,89.6l0,0.2c0.1-0.2,0.3-0.2,0.5-0.2c0.2,0,0.4,0.1,0.5,0.3c0.1-0.2,0.3-0.3,0.5-0.3 c0.2,0,0.3,0.1,0.4,0.2c0.1,0.1,0.1,0.3,0.1,0.5v1.1h-0.5v-1.1c0-0.1,0-0.2-0.1-0.2c0,0-0.1-0.1-0.2-0.1 c-0.1,0-0.2,0.1-0.3,0.2l0,1.2h-0.5v-1.1c0-0.1,0-0.2-0.1-0.2c0,0-0.1-0.1-0.2-0.1c-0.1,0-0.2,0.1-0.3,0.2v1.3h-0.5v-1.8H992z"></path> <path class="st2" d="M994.4,89.1c0-0.1,0-0.1,0.1-0.2s0.1-0.1,0.2-0.1s0.1,0,0.2,0.1c0,0,0.1,0.1,0.1,0.2c0,0.1,0,0.1-0.1,0.2 s-0.1,0.1-0.2,0.1s-0.1,0-0.2-0.1S994.4,89.2,994.4,89.1z M995,91.3h-0.5v-1.8h0.5V91.3z"></path> <path class="st2" d="M995.3,90.4c0-0.3,0.1-0.5,0.2-0.7c0.1-0.2,0.3-0.2,0.5-0.2c0.2,0,0.3,0.1,0.4,0.2v-0.9h0.5v2.5h-0.4 l0-0.2c-0.1,0.1-0.3,0.2-0.5,0.2c-0.2,0-0.4-0.1-0.5-0.2C995.3,91,995.3,90.7,995.3,90.4z M995.7,90.5c0,0.2,0,0.3,0.1,0.4 c0.1,0.1,0.1,0.1,0.3,0.1c0.1,0,0.3-0.1,0.3-0.2v-0.7c-0.1-0.1-0.2-0.2-0.3-0.2C995.9,89.9,995.7,90.1,995.7,90.5z"></path> <path class="st2" d="M997.2,89.1c0-0.1,0-0.1,0.1-0.2s0.1-0.1,0.2-0.1c0.1,0,0.1,0,0.2,0.1c0,0,0.1,0.1,0.1,0.2 c0,0.1,0,0.1-0.1,0.2s-0.1,0.1-0.2,0.1s-0.1,0-0.2-0.1S997.2,89.2,997.2,89.1z M997.8,91.3h-0.5v-1.8h0.5V91.3z"></path> <path class="st2" d="M998.7,89.1v0.4h0.3v0.3h-0.3v0.9c0,0.1,0,0.1,0,0.1c0,0,0.1,0,0.1,0c0.1,0,0.1,0,0.1,0v0.4 c-0.1,0-0.2,0-0.3,0c-0.3,0-0.5-0.2-0.5-0.5v-1H998v-0.3h0.3v-0.4H998.7z"></path> <path class="st2" d="M1000,90.7l0.3-1.1h0.5l-0.7,2.1l0,0.1c-0.1,0.2-0.3,0.3-0.5,0.3c-0.1,0-0.1,0-0.2,0v-0.4l0.1,0 c0.1,0,0.2,0,0.2,0c0,0,0.1-0.1,0.1-0.1l0.1-0.1l-0.6-1.8h0.5L1000,90.7z"></path> </g> </g> <g class="st9"> <path class="st4" d="M997,104.2c0,0,0-0.1-0.1-0.2c-0.1,0.1-0.3,0.2-0.5,0.2c-0.2,0-0.4-0.1-0.5-0.2c-0.1-0.1-0.2-0.3-0.2-0.4 c0-0.2,0.1-0.4,0.2-0.5c0.2-0.1,0.4-0.2,0.7-0.2h0.3v-0.1c0-0.1,0-0.2-0.1-0.2c-0.1-0.1-0.1-0.1-0.3-0.1c-0.1,0-0.2,0-0.3,0.1 c-0.1,0.1-0.1,0.1-0.1,0.2h-0.5c0-0.1,0-0.2,0.1-0.3c0.1-0.1,0.2-0.2,0.3-0.2c0.1-0.1,0.3-0.1,0.4-0.1c0.2,0,0.4,0.1,0.6,0.2 s0.2,0.3,0.2,0.5v0.9c0,0.2,0,0.3,0.1,0.4v0H997z M996.5,103.9c0.1,0,0.2,0,0.3-0.1c0.1,0,0.1-0.1,0.2-0.2v-0.4h-0.2 c-0.2,0-0.3,0-0.4,0.1c-0.1,0.1-0.1,0.1-0.1,0.2c0,0.1,0,0.2,0.1,0.2C996.3,103.9,996.4,103.9,996.5,103.9z"></path> <path class="st4" d="M998.3,104.2h-0.5v-2.8h0.5V104.2z"></path> <path class="st4" d="M999.7,104.3c-0.3,0-0.5-0.1-0.7-0.3c-0.2-0.2-0.3-0.4-0.3-0.7v-0.1c0-0.2,0-0.4,0.1-0.5 c0.1-0.2,0.2-0.3,0.3-0.4c0.1-0.1,0.3-0.1,0.5-0.1c0.3,0,0.5,0.1,0.6,0.3c0.1,0.2,0.2,0.4,0.2,0.7v0.2h-1.3 c0,0.2,0.1,0.3,0.2,0.4c0.1,0.1,0.2,0.1,0.4,0.1c0.2,0,0.4-0.1,0.5-0.2l0.2,0.2c-0.1,0.1-0.2,0.2-0.3,0.3 C1000,104.2,999.9,104.3,999.7,104.3z M999.6,102.5c-0.1,0-0.2,0-0.3,0.1c-0.1,0.1-0.1,0.2-0.1,0.4h0.9v0c0-0.2,0-0.3-0.1-0.3 C999.9,102.6,999.8,102.5,999.6,102.5z"></path> <path class="st4" d="M1001.9,102.6c-0.1,0-0.1,0-0.2,0c-0.2,0-0.3,0.1-0.4,0.2v1.4h-0.5v-2h0.4l0,0.2c0.1-0.2,0.3-0.3,0.5-0.3 c0.1,0,0.1,0,0.2,0L1001.9,102.6z"></path> <path class="st4" d="M1002.8,101.7v0.5h0.4v0.3h-0.4v1.1c0,0.1,0,0.1,0,0.2c0,0,0.1,0.1,0.2,0.1c0.1,0,0.1,0,0.2,0v0.3 c-0.1,0-0.2,0-0.3,0c-0.3,0-0.5-0.2-0.5-0.6v-1.1h-0.3v-0.3h0.3v-0.5H1002.8z"></path> <path class="st4" d="M1003.5,101.7c0-0.1,0-0.1,0.1-0.2s0.1-0.1,0.2-0.1c0.1,0,0.1,0,0.2,0.1s0.1,0.1,0.1,0.2 c0,0.1,0,0.1-0.1,0.2s-0.1,0.1-0.2,0.1c-0.1,0-0.1,0-0.2-0.1S1003.5,101.8,1003.5,101.7z M1004,104.2h-0.5v-2h0.5V104.2z"></path> <path class="st4" d="M1004.9,102.2l0,0.2c0.1-0.2,0.3-0.3,0.6-0.3c0.4,0,0.6,0.2,0.6,0.7v1.3h-0.5v-1.3c0-0.1,0-0.2-0.1-0.3 c-0.1-0.1-0.1-0.1-0.3-0.1c-0.2,0-0.3,0.1-0.4,0.2v1.4h-0.5v-2H1004.9z"></path> <path class="st4" d="M1006.5,103.2c0-0.3,0.1-0.6,0.2-0.7c0.1-0.2,0.3-0.3,0.6-0.3c0.2,0,0.4,0.1,0.5,0.2l0-0.2h0.4v1.9 c0,0.3-0.1,0.5-0.2,0.6c-0.2,0.2-0.4,0.2-0.7,0.2c-0.1,0-0.3,0-0.4-0.1c-0.1-0.1-0.2-0.1-0.3-0.2l0.2-0.3 c0.1,0.2,0.3,0.2,0.5,0.2c0.1,0,0.3,0,0.4-0.1c0.1-0.1,0.1-0.2,0.1-0.4V104c-0.1,0.1-0.3,0.2-0.5,0.2c-0.2,0-0.4-0.1-0.6-0.3 C1006.6,103.8,1006.5,103.5,1006.5,103.2z M1007,103.2c0,0.2,0,0.4,0.1,0.5s0.2,0.2,0.3,0.2c0.2,0,0.3-0.1,0.4-0.2v-0.9 c-0.1-0.2-0.2-0.2-0.4-0.2c-0.1,0-0.3,0.1-0.3,0.2S1007,103,1007,103.2z"></path> </g> <path class="st10" d="M977.7,101"></path> <line class="st11" x1="972.8" y1="108.6" x2="1017.7" y2="108.6"></line> <g> <g> <g class="st9"> <path class="st0" d="M992.4,114.3l0.5-1.8h0.6l-0.8,2.4h-0.5l-0.8-2.4h0.5L992.4,114.3z"></path> <path class="st0" d="M994.2,114.9h-0.5v-2.4h0.5V114.9z"></path> <path class="st0" d="M996.1,113.9h-1v0.6h1.1v0.4h-1.6v-2.4h1.6v0.4h-1.1v0.6h1V113.9z"></path> <path class="st0" d="M998.4,114.2l0.3-1.7h0.5l-0.5,2.4h-0.5l-0.4-1.6l-0.4,1.6H997l-0.5-2.4h0.5l0.3,1.7l0.4-1.7h0.4 L998.4,114.2z"></path> </g> </g> </g> </g> <g> <g> <path class="st5" d="M1066.2,119.2h-43.5c-0.4,0-0.7-0.3-0.7-0.7V83c0-0.4,0.3-0.7,0.7-0.7h43.5c0.4,0,0.7,0.3,0.7,0.7v35.5 C1066.9,118.9,1066.6,119.2,1066.2,119.2z"></path> </g> <g> <circle class="st8" cx="1033.4" cy="101.1" r="3.2"></circle> <path id="exclamation-mark_8_" class="st6" d="M1033.4,102.3L1033.4,102.3c-0.1,0-0.2-0.1-0.2-0.2l-0.1-2.8 c0-0.2,0.2-0.4,0.4-0.4s0.4,0.2,0.4,0.4l-0.1,2.8C1033.6,102.2,1033.5,102.3,1033.4,102.3L1033.4,102.3z M1033,103.1 c0,0.2,0.2,0.4,0.4,0.4c0.2,0,0.4-0.2,0.4-0.4c0-0.2-0.2-0.4-0.4-0.4S1033,102.9,1033,103.1z"></path> </g> <g> <g class="st9"> <path class="st2" d="M1042.3,104.2h-0.9v-5.8l-1.8,0.6v-0.8l2.5-0.9h0.1V104.2z"></path> </g> </g> <g> <g class="st9"> <path class="st2" d="M1040.5,90.7l0.2-1.1h0.5l-0.5,1.8h-0.4l-0.3-1.1l-0.3,1.1h-0.4l-0.5-1.8h0.5l0.2,1.1l0.3-1.1h0.3 L1040.5,90.7z"></path> <path class="st2" d="M1042.5,91.3c0,0,0-0.1,0-0.2c-0.1,0.1-0.3,0.2-0.5,0.2c-0.2,0-0.3-0.1-0.4-0.2c-0.1-0.1-0.2-0.2-0.2-0.4 c0-0.2,0.1-0.3,0.2-0.4c0.1-0.1,0.3-0.2,0.6-0.2h0.2v-0.1c0-0.1,0-0.1-0.1-0.2c0,0-0.1-0.1-0.2-0.1c-0.1,0-0.1,0-0.2,0.1 s-0.1,0.1-0.1,0.2h-0.5c0-0.1,0-0.2,0.1-0.3s0.2-0.2,0.3-0.2c0.1,0,0.2-0.1,0.4-0.1c0.2,0,0.4,0.1,0.5,0.2 c0.1,0.1,0.2,0.3,0.2,0.5v0.8c0,0.2,0,0.3,0.1,0.4v0H1042.5z M1042.1,91c0.1,0,0.1,0,0.2,0c0.1,0,0.1-0.1,0.1-0.1v-0.3h-0.2 c-0.2,0-0.4,0.1-0.4,0.2l0,0c0,0.1,0,0.1,0.1,0.1C1042,91,1042,91,1042.1,91z"></path> <path class="st2" d="M1043.8,89.1v0.4h0.3v0.3h-0.3v0.9c0,0.1,0,0.1,0,0.1c0,0,0.1,0,0.1,0c0.1,0,0.1,0,0.1,0v0.4 c-0.1,0-0.2,0-0.3,0c-0.3,0-0.5-0.2-0.5-0.5v-1h-0.3v-0.3h0.3v-0.4H1043.8z"></path> <path class="st2" d="M1045.2,91.4c-0.3,0-0.5-0.1-0.6-0.2c-0.2-0.2-0.2-0.4-0.2-0.6v0c0-0.2,0-0.3,0.1-0.5 c0.1-0.1,0.2-0.2,0.3-0.3s0.3-0.1,0.4-0.1c0.2,0,0.4,0.1,0.6,0.2c0.1,0.2,0.2,0.4,0.2,0.7v0.2h-1.1c0,0.1,0.1,0.2,0.1,0.3 c0.1,0.1,0.2,0.1,0.3,0.1c0.2,0,0.3-0.1,0.4-0.2l0.2,0.3c-0.1,0.1-0.2,0.2-0.3,0.2S1045.4,91.4,1045.2,91.4z M1045.2,89.9 c-0.1,0-0.2,0-0.2,0.1c-0.1,0.1-0.1,0.2-0.1,0.3h0.7v0c0-0.1,0-0.2-0.1-0.2S1045.3,89.9,1045.2,89.9z"></path> <path class="st2" d="M1047.2,90c-0.1,0-0.1,0-0.2,0c-0.2,0-0.3,0.1-0.4,0.2v1.2h-0.5v-1.8h0.4l0,0.2c0.1-0.2,0.2-0.2,0.4-0.2 c0.1,0,0.1,0,0.1,0L1047.2,90z"></path> </g> </g> <g class="st9"> <path class="st4" d="M1046.2,104.2c0,0,0-0.1-0.1-0.2c-0.1,0.1-0.3,0.2-0.5,0.2c-0.2,0-0.4-0.1-0.5-0.2 c-0.1-0.1-0.2-0.3-0.2-0.4c0-0.2,0.1-0.4,0.2-0.5c0.2-0.1,0.4-0.2,0.7-0.2h0.3v-0.1c0-0.1,0-0.2-0.1-0.2 c-0.1-0.1-0.1-0.1-0.3-0.1c-0.1,0-0.2,0-0.3,0.1c-0.1,0.1-0.1,0.1-0.1,0.2h-0.5c0-0.1,0-0.2,0.1-0.3c0.1-0.1,0.2-0.2,0.3-0.2 c0.1-0.1,0.3-0.1,0.4-0.1c0.2,0,0.4,0.1,0.6,0.2s0.2,0.3,0.2,0.5v0.9c0,0.2,0,0.3,0.1,0.4v0H1046.2z M1045.7,103.9 c0.1,0,0.2,0,0.3-0.1c0.1,0,0.1-0.1,0.2-0.2v-0.4h-0.2c-0.2,0-0.3,0-0.4,0.1c-0.1,0.1-0.1,0.1-0.1,0.2c0,0.1,0,0.2,0.1,0.2 C1045.6,103.9,1045.6,103.9,1045.7,103.9z"></path> <path class="st4" d="M1047.6,104.2h-0.5v-2.8h0.5V104.2z"></path> <path class="st4" d="M1048.9,104.3c-0.3,0-0.5-0.1-0.7-0.3c-0.2-0.2-0.3-0.4-0.3-0.7v-0.1c0-0.2,0-0.4,0.1-0.5 c0.1-0.2,0.2-0.3,0.3-0.4c0.1-0.1,0.3-0.1,0.5-0.1c0.3,0,0.5,0.1,0.6,0.3c0.1,0.2,0.2,0.4,0.2,0.7v0.2h-1.3 c0,0.2,0.1,0.3,0.2,0.4c0.1,0.1,0.2,0.1,0.4,0.1c0.2,0,0.4-0.1,0.5-0.2l0.2,0.2c-0.1,0.1-0.2,0.2-0.3,0.3 C1049.3,104.2,1049.1,104.3,1048.9,104.3z M1048.9,102.5c-0.1,0-0.2,0-0.3,0.1c-0.1,0.1-0.1,0.2-0.1,0.4h0.9v0 c0-0.2,0-0.3-0.1-0.3C1049.1,102.6,1049,102.5,1048.9,102.5z"></path> <path class="st4" d="M1051.1,102.6c-0.1,0-0.1,0-0.2,0c-0.2,0-0.3,0.1-0.4,0.2v1.4h-0.5v-2h0.4l0,0.2c0.1-0.2,0.3-0.3,0.5-0.3 c0.1,0,0.1,0,0.2,0L1051.1,102.6z"></path> <path class="st4" d="M1052.1,101.7v0.5h0.4v0.3h-0.4v1.1c0,0.1,0,0.1,0,0.2c0,0,0.1,0.1,0.2,0.1c0.1,0,0.1,0,0.2,0v0.3 c-0.1,0-0.2,0-0.3,0c-0.3,0-0.5-0.2-0.5-0.6v-1.1h-0.3v-0.3h0.3v-0.5H1052.1z"></path> <path class="st4" d="M1052.8,101.7c0-0.1,0-0.1,0.1-0.2s0.1-0.1,0.2-0.1c0.1,0,0.1,0,0.2,0.1s0.1,0.1,0.1,0.2 c0,0.1,0,0.1-0.1,0.2s-0.1,0.1-0.2,0.1c-0.1,0-0.1,0-0.2-0.1S1052.8,101.8,1052.8,101.7z M1053.3,104.2h-0.5v-2h0.5V104.2z"></path> <path class="st4" d="M1054.2,102.2l0,0.2c0.1-0.2,0.3-0.3,0.6-0.3c0.4,0,0.6,0.2,0.6,0.7v1.3h-0.5v-1.3c0-0.1,0-0.2-0.1-0.3 c-0.1-0.1-0.1-0.1-0.3-0.1c-0.2,0-0.3,0.1-0.4,0.2v1.4h-0.5v-2H1054.2z"></path> <path class="st4" d="M1055.8,103.2c0-0.3,0.1-0.6,0.2-0.7c0.1-0.2,0.3-0.3,0.6-0.3c0.2,0,0.4,0.1,0.5,0.2l0-0.2h0.4v1.9 c0,0.3-0.1,0.5-0.2,0.6c-0.2,0.2-0.4,0.2-0.7,0.2c-0.1,0-0.3,0-0.4-0.1c-0.1-0.1-0.2-0.1-0.3-0.2l0.2-0.3 c0.1,0.2,0.3,0.2,0.5,0.2c0.1,0,0.3,0,0.4-0.1c0.1-0.1,0.1-0.2,0.1-0.4V104c-0.1,0.1-0.3,0.2-0.5,0.2c-0.2,0-0.4-0.1-0.6-0.3 C1055.9,103.8,1055.8,103.5,1055.8,103.2z M1056.2,103.2c0,0.2,0,0.4,0.1,0.5s0.2,0.2,0.3,0.2c0.2,0,0.3-0.1,0.4-0.2v-0.9 c-0.1-0.2-0.2-0.2-0.4-0.2c-0.1,0-0.3,0.1-0.3,0.2S1056.2,103,1056.2,103.2z"></path> </g> <path class="st10" d="M1027,101"></path> <line class="st11" x1="1022.1" y1="108.6" x2="1066.9" y2="108.6"></line> <g> <g> <g class="st9"> <path class="st0" d="M1041.6,114.3l0.5-1.8h0.6l-0.8,2.4h-0.5l-0.8-2.4h0.5L1041.6,114.3z"></path> <path class="st0" d="M1043.5,114.9h-0.5v-2.4h0.5V114.9z"></path> <path class="st0" d="M1045.4,113.9h-1v0.6h1.1v0.4h-1.6v-2.4h1.6v0.4h-1.1v0.6h1V113.9z"></path> <path class="st0" d="M1047.7,114.2l0.3-1.7h0.5l-0.5,2.4h-0.5l-0.4-1.6l-0.4,1.6h-0.5l-0.5-2.4h0.5l0.3,1.7l0.4-1.7h0.4 L1047.7,114.2z"></path> </g> </g> </g> </g> <g> <g> <path class="st5" d="M1115.5,119.2H1072c-0.4,0-0.7-0.3-0.7-0.7V83c0-0.4,0.3-0.7,0.7-0.7h43.5c0.4,0,0.7,0.3,0.7,0.7v35.5 C1116.2,118.9,1115.9,119.2,1115.5,119.2z"></path> </g> <g> <circle class="st8" cx="1082.6" cy="101.1" r="3.2"></circle> <path id="exclamation-mark_7_" class="st6" d="M1082.6,102.3L1082.6,102.3c-0.1,0-0.2-0.1-0.2-0.2l-0.1-2.8 c0-0.2,0.2-0.4,0.4-0.4s0.4,0.2,0.4,0.4l-0.1,2.8C1082.9,102.2,1082.8,102.3,1082.6,102.3L1082.6,102.3z M1082.3,103.1 c0,0.2,0.2,0.4,0.4,0.4c0.2,0,0.4-0.2,0.4-0.4c0-0.2-0.2-0.4-0.4-0.4C1082.4,102.7,1082.3,102.9,1082.3,103.1z"></path> </g> <g> <g class="st9"> <path class="st2" d="M1093.1,104.2h-4.5v-0.6l2.4-2.6c0.4-0.4,0.6-0.7,0.7-1s0.2-0.5,0.2-0.8c0-0.4-0.1-0.7-0.3-0.9 s-0.5-0.3-0.9-0.3c-0.4,0-0.8,0.1-1,0.4c-0.2,0.2-0.4,0.6-0.4,1h-0.9c0-0.6,0.2-1.1,0.6-1.5c0.4-0.4,1-0.6,1.6-0.6 c0.6,0,1.1,0.2,1.5,0.5c0.4,0.3,0.6,0.8,0.6,1.3c0,0.7-0.4,1.5-1.3,2.4l-1.8,2h3.4V104.2z"></path> </g> </g> <g> <g class="st9"> <path class="st2" d="M1085.4,90.2c0,0.2,0,0.4-0.1,0.6c-0.1,0.2-0.2,0.3-0.4,0.4c-0.2,0.1-0.3,0.1-0.5,0.1 c-0.2,0-0.4,0-0.5-0.1s-0.3-0.2-0.4-0.4c-0.1-0.2-0.1-0.4-0.1-0.6v-0.1c0-0.2,0-0.4,0.1-0.6s0.2-0.3,0.4-0.4s0.3-0.1,0.5-0.1 s0.4,0,0.5,0.1s0.3,0.2,0.4,0.4s0.1,0.4,0.1,0.6V90.2z M1084.9,90.1c0-0.3,0-0.4-0.1-0.6s-0.2-0.2-0.4-0.2 c-0.2,0-0.3,0.1-0.4,0.2c-0.1,0.1-0.1,0.3-0.1,0.6v0.1c0,0.2,0,0.4,0.1,0.6c0.1,0.1,0.2,0.2,0.4,0.2c0.2,0,0.3-0.1,0.4-0.2 c0.1-0.1,0.1-0.3,0.1-0.6V90.1z"></path> <path class="st2" d="M1087.3,90.5c0,0.3-0.1,0.5-0.2,0.7c-0.1,0.2-0.3,0.2-0.5,0.2c-0.2,0-0.3-0.1-0.4-0.2V92h-0.5v-2.5h0.4 l0,0.2c0.1-0.1,0.3-0.2,0.5-0.2c0.2,0,0.4,0.1,0.5,0.2C1087.2,89.9,1087.3,90.2,1087.3,90.5L1087.3,90.5z M1086.8,90.4 c0-0.2,0-0.3-0.1-0.4c-0.1-0.1-0.1-0.1-0.3-0.1c-0.1,0-0.3,0.1-0.3,0.2v0.7c0.1,0.1,0.2,0.2,0.3,0.2 C1086.7,91,1086.8,90.8,1086.8,90.4z"></path> <path class="st2" d="M1088.4,91.4c-0.3,0-0.5-0.1-0.6-0.2c-0.2-0.2-0.2-0.4-0.2-0.6v0c0-0.2,0-0.3,0.1-0.5 c0.1-0.1,0.2-0.2,0.3-0.3s0.3-0.1,0.4-0.1c0.2,0,0.4,0.1,0.6,0.2c0.1,0.2,0.2,0.4,0.2,0.7v0.2h-1.1c0,0.1,0.1,0.2,0.1,0.3 c0.1,0.1,0.2,0.1,0.3,0.1c0.2,0,0.3-0.1,0.4-0.2l0.2,0.3c-0.1,0.1-0.2,0.2-0.3,0.2S1088.6,91.4,1088.4,91.4z M1088.3,89.9 c-0.1,0-0.2,0-0.2,0.1c-0.1,0.1-0.1,0.2-0.1,0.3h0.7v0c0-0.1,0-0.2-0.1-0.2S1088.5,89.9,1088.3,89.9z"></path> <path class="st2" d="M1089.8,89.6l0,0.2c0.1-0.2,0.3-0.2,0.5-0.2c0.2,0,0.3,0.1,0.4,0.2c0.1,0.1,0.1,0.3,0.1,0.5v1.2h-0.5v-1.1 c0-0.1,0-0.2-0.1-0.2c0,0-0.1-0.1-0.2-0.1c-0.1,0-0.2,0.1-0.3,0.2v1.3h-0.5v-1.8H1089.8z"></path> <path class="st2" d="M1091.4,91.5h-0.4l0.9-2.6h0.4L1091.4,91.5z"></path> <path class="st2" d="M1094.5,90.5c0,0.3-0.1,0.5-0.3,0.6s-0.4,0.2-0.7,0.2c-0.3,0-0.5-0.1-0.7-0.3c-0.2-0.2-0.3-0.5-0.3-0.9 v-0.1c0-0.2,0-0.4,0.1-0.6c0.1-0.2,0.2-0.3,0.3-0.4c0.2-0.1,0.3-0.1,0.5-0.1c0.3,0,0.5,0.1,0.7,0.2s0.3,0.4,0.3,0.6h-0.5 c0-0.2-0.1-0.3-0.1-0.3c-0.1-0.1-0.2-0.1-0.3-0.1c-0.2,0-0.3,0.1-0.4,0.2s-0.1,0.3-0.1,0.5v0.2c0,0.3,0,0.4,0.1,0.6 c0.1,0.1,0.2,0.2,0.4,0.2c0.2,0,0.3,0,0.3-0.1s0.1-0.2,0.1-0.3H1094.5z"></path> <path class="st2" d="M1095.3,91.3h-0.5v-2.5h0.5V91.3z"></path> <path class="st2" d="M1095.6,90.4c0-0.2,0-0.3,0.1-0.5c0.1-0.1,0.2-0.2,0.3-0.3s0.3-0.1,0.4-0.1c0.2,0,0.4,0.1,0.6,0.2 s0.2,0.3,0.3,0.6l0,0.1c0,0.3-0.1,0.5-0.2,0.7c-0.2,0.2-0.4,0.2-0.6,0.2c-0.3,0-0.5-0.1-0.6-0.2 C1095.7,91,1095.6,90.7,1095.6,90.4L1095.6,90.4z M1096.1,90.5c0,0.2,0,0.3,0.1,0.4s0.2,0.1,0.3,0.1c0.1,0,0.2,0,0.3-0.1 c0.1-0.1,0.1-0.2,0.1-0.4c0-0.2,0-0.3-0.1-0.4c-0.1-0.1-0.2-0.1-0.3-0.1c-0.1,0-0.2,0-0.3,0.1 C1096.1,90.1,1096.1,90.3,1096.1,90.5z"></path> <path class="st2" d="M1098.5,90.8c0-0.1,0-0.1-0.1-0.1c-0.1,0-0.2-0.1-0.3-0.1c-0.4-0.1-0.6-0.3-0.6-0.5c0-0.2,0.1-0.3,0.2-0.4 c0.1-0.1,0.3-0.2,0.5-0.2c0.2,0,0.4,0.1,0.5,0.2c0.1,0.1,0.2,0.2,0.2,0.4h-0.5c0-0.1,0-0.1-0.1-0.2c0,0-0.1-0.1-0.2-0.1 c-0.1,0-0.1,0-0.2,0.1c0,0-0.1,0.1-0.1,0.1c0,0.1,0,0.1,0.1,0.1s0.1,0.1,0.3,0.1c0.1,0,0.2,0,0.3,0.1c0.3,0.1,0.4,0.3,0.4,0.5 c0,0.2-0.1,0.3-0.2,0.4s-0.3,0.2-0.5,0.2c-0.1,0-0.3,0-0.4-0.1c-0.1-0.1-0.2-0.1-0.3-0.2c-0.1-0.1-0.1-0.2-0.1-0.3h0.5 c0,0.1,0,0.1,0.1,0.2c0.1,0,0.1,0.1,0.2,0.1c0.1,0,0.2,0,0.2-0.1C1098.5,90.9,1098.5,90.9,1098.5,90.8z"></path> <path class="st2" d="M1100.1,91.4c-0.3,0-0.5-0.1-0.6-0.2c-0.2-0.2-0.2-0.4-0.2-0.6v0c0-0.2,0-0.3,0.1-0.5 c0.1-0.1,0.2-0.2,0.3-0.3s0.3-0.1,0.4-0.1c0.2,0,0.4,0.1,0.6,0.2c0.1,0.2,0.2,0.4,0.2,0.7v0.2h-1.1c0,0.1,0.1,0.2,0.1,0.3 s0.2,0.1,0.3,0.1c0.2,0,0.3-0.1,0.4-0.2l0.2,0.3c-0.1,0.1-0.2,0.2-0.3,0.2S1100.3,91.4,1100.1,91.4z M1100.1,89.9 c-0.1,0-0.2,0-0.2,0.1c-0.1,0.1-0.1,0.2-0.1,0.3h0.7v0c0-0.1,0-0.2-0.1-0.2C1100.3,89.9,1100.2,89.9,1100.1,89.9z"></path> </g> </g> <g class="st9"> <path class="st4" d="M1095.5,104.2c0,0,0-0.1-0.1-0.2c-0.1,0.1-0.3,0.2-0.5,0.2c-0.2,0-0.4-0.1-0.5-0.2 c-0.1-0.1-0.2-0.3-0.2-0.4c0-0.2,0.1-0.4,0.2-0.5c0.2-0.1,0.4-0.2,0.7-0.2h0.3v-0.1c0-0.1,0-0.2-0.1-0.2 c-0.1-0.1-0.1-0.1-0.3-0.1c-0.1,0-0.2,0-0.3,0.1c-0.1,0.1-0.1,0.1-0.1,0.2h-0.5c0-0.1,0-0.2,0.1-0.3c0.1-0.1,0.2-0.2,0.3-0.2 c0.1-0.1,0.3-0.1,0.4-0.1c0.2,0,0.4,0.1,0.6,0.2s0.2,0.3,0.2,0.5v0.9c0,0.2,0,0.3,0.1,0.4v0H1095.5z M1095,103.9 c0.1,0,0.2,0,0.3-0.1c0.1,0,0.1-0.1,0.2-0.2v-0.4h-0.2c-0.2,0-0.3,0-0.4,0.1c-0.1,0.1-0.1,0.1-0.1,0.2c0,0.1,0,0.2,0.1,0.2 C1094.8,103.9,1094.9,103.9,1095,103.9z"></path> <path class="st4" d="M1096.8,104.2h-0.5v-2.8h0.5V104.2z"></path> <path class="st4" d="M1098.2,104.3c-0.3,0-0.5-0.1-0.7-0.3c-0.2-0.2-0.3-0.4-0.3-0.7v-0.1c0-0.2,0-0.4,0.1-0.5 c0.1-0.2,0.2-0.3,0.3-0.4c0.1-0.1,0.3-0.1,0.5-0.1c0.3,0,0.5,0.1,0.6,0.3c0.1,0.2,0.2,0.4,0.2,0.7v0.2h-1.3 c0,0.2,0.1,0.3,0.2,0.4c0.1,0.1,0.2,0.1,0.4,0.1c0.2,0,0.4-0.1,0.5-0.2l0.2,0.2c-0.1,0.1-0.2,0.2-0.3,0.3 C1098.5,104.2,1098.3,104.3,1098.2,104.3z M1098.1,102.5c-0.1,0-0.2,0-0.3,0.1c-0.1,0.1-0.1,0.2-0.1,0.4h0.9v0 c0-0.2,0-0.3-0.1-0.3C1098.3,102.6,1098.2,102.5,1098.1,102.5z"></path> <path class="st4" d="M1100.4,102.6c-0.1,0-0.1,0-0.2,0c-0.2,0-0.3,0.1-0.4,0.2v1.4h-0.5v-2h0.4l0,0.2c0.1-0.2,0.3-0.3,0.5-0.3 c0.1,0,0.1,0,0.2,0L1100.4,102.6z"></path> <path class="st4" d="M1101.3,101.7v0.5h0.4v0.3h-0.4v1.1c0,0.1,0,0.1,0,0.2c0,0,0.1,0.1,0.2,0.1c0.1,0,0.1,0,0.2,0v0.3 c-0.1,0-0.2,0-0.3,0c-0.3,0-0.5-0.2-0.5-0.6v-1.1h-0.3v-0.3h0.3v-0.5H1101.3z"></path> <path class="st4" d="M1102,101.7c0-0.1,0-0.1,0.1-0.2s0.1-0.1,0.2-0.1c0.1,0,0.1,0,0.2,0.1s0.1,0.1,0.1,0.2c0,0.1,0,0.1-0.1,0.2 s-0.1,0.1-0.2,0.1c-0.1,0-0.1,0-0.2-0.1S1102,101.8,1102,101.7z M1102.5,104.2h-0.5v-2h0.5V104.2z"></path> <path class="st4" d="M1103.4,102.2l0,0.2c0.1-0.2,0.3-0.3,0.6-0.3c0.4,0,0.6,0.2,0.6,0.7v1.3h-0.5v-1.3c0-0.1,0-0.2-0.1-0.3 c-0.1-0.1-0.1-0.1-0.3-0.1c-0.2,0-0.3,0.1-0.4,0.2v1.4h-0.5v-2H1103.4z"></path> <path class="st4" d="M1105,103.2c0-0.3,0.1-0.6,0.2-0.7c0.1-0.2,0.3-0.3,0.6-0.3c0.2,0,0.4,0.1,0.5,0.2l0-0.2h0.4v1.9 c0,0.3-0.1,0.5-0.2,0.6c-0.2,0.2-0.4,0.2-0.7,0.2c-0.1,0-0.3,0-0.4-0.1c-0.1-0.1-0.2-0.1-0.3-0.2l0.2-0.3 c0.1,0.2,0.3,0.2,0.5,0.2c0.1,0,0.3,0,0.4-0.1c0.1-0.1,0.1-0.2,0.1-0.4V104c-0.1,0.1-0.3,0.2-0.5,0.2c-0.2,0-0.4-0.1-0.6-0.3 C1105.1,103.8,1105,103.5,1105,103.2z M1105.5,103.2c0,0.2,0,0.4,0.1,0.5s0.2,0.2,0.3,0.2c0.2,0,0.3-0.1,0.4-0.2v-0.9 c-0.1-0.2-0.2-0.2-0.4-0.2c-0.1,0-0.3,0.1-0.3,0.2S1105.5,103,1105.5,103.2z"></path> </g> <path class="st10" d="M1076.2,101"></path> <line class="st11" x1="1071.3" y1="108.6" x2="1116.2" y2="108.6"></line> <g> <g> <g class="st9"> <path class="st0" d="M1090.9,114.3l0.5-1.8h0.6l-0.8,2.4h-0.5l-0.8-2.4h0.5L1090.9,114.3z"></path> <path class="st0" d="M1092.7,114.9h-0.5v-2.4h0.5V114.9z"></path> <path class="st0" d="M1094.6,113.9h-1v0.6h1.1v0.4h-1.6v-2.4h1.6v0.4h-1.1v0.6h1V113.9z"></path> <path class="st0" d="M1096.9,114.2l0.3-1.7h0.5l-0.5,2.4h-0.5l-0.4-1.6l-0.4,1.6h-0.5l-0.5-2.4h0.5l0.3,1.7l0.4-1.7h0.4 L1096.9,114.2z"></path> </g> </g> </g> </g> <rect x="923.6" y="64" class="st5" width="192.9" height="4.7"></rect> <g> <g> <path class="st5" d="M1115.8,184.6H924.3c-0.4,0-0.7-0.3-0.7-0.7v-53.8c0-0.4,0.3-0.7,0.7-0.7h191.6c0.4,0,0.7,0.3,0.7,0.7V184 C1116.5,184.3,1116.2,184.6,1115.8,184.6z"></path> </g> <g> <polyline class="st13" points="931.7,136 931.7,177.3 1066.9,177.3 "></polyline> <line class="st14" x1="963.6" y1="136" x2="963.6" y2="177.3"></line> <line class="st14" x1="995.5" y1="136" x2="995.5" y2="177.3"></line> <line class="st14" x1="1027.4" y1="136" x2="1027.4" y2="177.3"></line> <line class="st14" x1="1059.3" y1="136" x2="1059.3" y2="177.3"></line> </g> <g> <g> <line class="st15" x1="931.7" y1="156.6" x2="931.7" y2="156.6"></line> <line class="st16" x1="935.6" y1="156.6" x2="1065" y2="156.6"></line> <line class="st15" x1="1066.9" y1="156.6" x2="1066.9" y2="156.6"></line> </g> </g> <path class="st17" d="M931.7,160.8c0,0,21.5-8.4,34.2-8.4c27.7,0,86.1,12.6,101,6.1"></path> <g> <g class="st9"> <path class="st2" d="M1091.7,140.6l-2.8,6.4h-0.9l2.8-6.1h-3.7v-0.7h4.6V140.6z"></path> <path class="st2" d="M1097,144.1c0,1-0.2,1.8-0.5,2.3c-0.3,0.5-0.9,0.7-1.6,0.7c-0.7,0-1.3-0.2-1.6-0.7 c-0.4-0.5-0.5-1.2-0.5-2.2V143c0-1,0.2-1.8,0.5-2.2s0.9-0.7,1.6-0.7c0.7,0,1.3,0.2,1.6,0.7c0.3,0.5,0.5,1.2,0.5,2.2V144.1z M1096.1,142.9c0-0.7-0.1-1.3-0.3-1.6c-0.2-0.3-0.5-0.5-1-0.5c-0.4,0-0.8,0.2-1,0.5c-0.2,0.3-0.3,0.9-0.3,1.6v1.4 c0,0.7,0.1,1.3,0.3,1.6c0.2,0.4,0.5,0.5,1,0.5c0.4,0,0.8-0.2,1-0.5s0.3-0.9,0.3-1.6V142.9z"></path> </g> <g class="st9"> <path class="st4" d="M1099,144.3c0.1,0,0.2,0,0.3,0.1s0.1,0.2,0.1,0.4c0,0.1,0,0.3-0.1,0.3c-0.1,0.1-0.2,0.1-0.3,0.1 c-0.1,0-0.2,0-0.3-0.1c-0.1-0.1-0.1-0.2-0.1-0.3c0-0.1,0-0.3,0.1-0.4C1098.8,144.3,1098.9,144.3,1099,144.3z M1099,145 c0.1,0,0.1,0,0.2-0.1c0,0,0.1-0.1,0.1-0.2c0-0.1,0-0.1-0.1-0.2c0,0-0.1-0.1-0.2-0.1s-0.1,0-0.2,0.1c0,0-0.1,0.1-0.1,0.2 c0,0.1,0,0.1,0.1,0.2C1098.9,145,1099,145,1099,145z"></path> <path class="st4" d="M1101.6,145.8h-1.1v1.1h-0.5v-2.7h1.7v0.4h-1.2v0.8h1.1V145.8z"></path> </g> </g> <g> <g class="st9"> <path class="st4" d="M1096.7,158l-1,2.2h-0.5l1-2.1h-1.2v-0.4h1.8V158z"></path> <path class="st4" d="M1098.2,160.2h-0.5v-1.9l-0.6,0.2v-0.4l1-0.4h0.1V160.2z"></path> <path class="st4" d="M1100,158.1c0-0.1,0-0.2,0.1-0.3s0.2-0.1,0.3-0.1s0.2,0,0.3,0.1s0.1,0.2,0.1,0.3c0,0.1,0,0.2-0.1,0.3 s-0.2,0.1-0.3,0.1c-0.1,0-0.2,0-0.3-0.1S1100,158.3,1100,158.1z M1100.4,158.3c0.1,0,0.1,0,0.2-0.1c0,0,0.1-0.1,0.1-0.2 c0-0.1,0-0.1-0.1-0.2c0,0-0.1-0.1-0.2-0.1s-0.1,0-0.2,0.1c0,0-0.1,0.1-0.1,0.2c0,0.1,0,0.1,0.1,0.2S1100.4,158.3,1100.4,158.3z "></path> <path class="st4" d="M1102.8,159.2h-1v1h-0.5v-2.5h1.6v0.4h-1.1v0.6h1V159.2z"></path> </g> <g class="st9"> <path class="st4" d="M1096.7,164.8l-1,2.2h-0.5l1-2.1h-1.2v-0.4h1.8V164.8z"></path> <path class="st4" d="M1097.1,165.8l0.1-1.3h1.4v0.4h-1l-0.1,0.5c0.1-0.1,0.2-0.1,0.4-0.1c0.2,0,0.4,0.1,0.6,0.2 c0.1,0.1,0.2,0.4,0.2,0.6c0,0.2,0,0.3-0.1,0.4c-0.1,0.1-0.2,0.2-0.3,0.3c-0.1,0.1-0.3,0.1-0.4,0.1c-0.2,0-0.3,0-0.4-0.1 c-0.1-0.1-0.2-0.1-0.3-0.3s-0.1-0.2-0.1-0.4h0.5c0,0.1,0,0.2,0.1,0.2c0.1,0.1,0.1,0.1,0.2,0.1c0.1,0,0.2,0,0.3-0.1 c0.1-0.1,0.1-0.2,0.1-0.3c0-0.1,0-0.2-0.1-0.3c-0.1-0.1-0.2-0.1-0.3-0.1c-0.1,0-0.2,0-0.3,0.1l0,0L1097.1,165.8z"></path> <path class="st4" d="M1100,164.9c0-0.1,0-0.2,0.1-0.3s0.2-0.1,0.3-0.1s0.2,0,0.3,0.1s0.1,0.2,0.1,0.3c0,0.1,0,0.2-0.1,0.3 s-0.2,0.1-0.3,0.1c-0.1,0-0.2,0-0.3-0.1S1100,165.1,1100,164.9z M1100.4,165.1c0.1,0,0.1,0,0.2-0.1c0,0,0.1-0.1,0.1-0.2 c0-0.1,0-0.1-0.1-0.2c0,0-0.1-0.1-0.2-0.1s-0.1,0-0.2,0.1c0,0-0.1,0.1-0.1,0.2c0,0.1,0,0.1,0.1,0.2S1100.4,165.1,1100.4,165.1z "></path> <path class="st4" d="M1102.8,166h-1v1h-0.5v-2.5h1.6v0.4h-1.1v0.6h1V166z"></path> </g> <g class="st9"> <path class="st4" d="M1096.4,171.4v0.4h0c-0.2,0-0.4,0.1-0.5,0.2c-0.1,0.1-0.2,0.3-0.2,0.5c0.1-0.1,0.3-0.2,0.5-0.2 c0.2,0,0.4,0.1,0.5,0.2s0.2,0.4,0.2,0.6c0,0.2,0,0.3-0.1,0.4c-0.1,0.1-0.2,0.2-0.3,0.3s-0.3,0.1-0.4,0.1 c-0.3,0-0.5-0.1-0.6-0.3c-0.2-0.2-0.2-0.4-0.2-0.7v-0.2c0-0.3,0.1-0.5,0.2-0.7c0.1-0.2,0.2-0.4,0.4-0.5 C1095.8,171.4,1096,171.4,1096.4,171.4L1096.4,171.4z M1095.9,172.6c-0.1,0-0.2,0-0.2,0.1c-0.1,0-0.1,0.1-0.1,0.2v0.2 c0,0.2,0,0.3,0.1,0.4s0.2,0.1,0.3,0.1c0.1,0,0.2,0,0.3-0.1s0.1-0.2,0.1-0.3c0-0.1,0-0.2-0.1-0.3S1096,172.6,1095.9,172.6z"></path> <path class="st4" d="M1098.7,172c0,0.1,0,0.2-0.1,0.3c-0.1,0.1-0.1,0.2-0.2,0.2c0.1,0.1,0.2,0.1,0.3,0.2s0.1,0.2,0.1,0.4 c0,0.2-0.1,0.4-0.2,0.5c-0.2,0.1-0.4,0.2-0.6,0.2s-0.5-0.1-0.6-0.2s-0.2-0.3-0.2-0.5c0-0.1,0-0.3,0.1-0.4 c0.1-0.1,0.2-0.2,0.3-0.2c-0.1-0.1-0.2-0.1-0.2-0.2c-0.1-0.1-0.1-0.2-0.1-0.3c0-0.2,0.1-0.4,0.2-0.5c0.1-0.1,0.3-0.2,0.6-0.2 c0.2,0,0.4,0.1,0.6,0.2S1098.7,171.8,1098.7,172z M1098.2,173.2c0-0.1,0-0.2-0.1-0.3c-0.1-0.1-0.1-0.1-0.3-0.1 c-0.1,0-0.2,0-0.3,0.1c-0.1,0.1-0.1,0.2-0.1,0.3c0,0.1,0,0.2,0.1,0.3c0.1,0.1,0.1,0.1,0.3,0.1c0.1,0,0.2,0,0.3-0.1 C1098.2,173.4,1098.2,173.3,1098.2,173.2z M1098.2,172.1c0-0.1,0-0.2-0.1-0.2c-0.1-0.1-0.1-0.1-0.2-0.1c-0.1,0-0.2,0-0.2,0.1 c-0.1,0.1-0.1,0.1-0.1,0.2c0,0.1,0,0.2,0.1,0.2s0.1,0.1,0.2,0.1s0.2,0,0.2-0.1S1098.2,172.2,1098.2,172.1z"></path> <path class="st4" d="M1100,171.8c0-0.1,0-0.2,0.1-0.3s0.2-0.1,0.3-0.1s0.2,0,0.3,0.1s0.1,0.2,0.1,0.3c0,0.1,0,0.2-0.1,0.3 s-0.2,0.1-0.3,0.1c-0.1,0-0.2,0-0.3-0.1S1100,172,1100,171.8z M1100.4,172c0.1,0,0.1,0,0.2-0.1c0,0,0.1-0.1,0.1-0.2 c0-0.1,0-0.1-0.1-0.2c0,0-0.1-0.1-0.2-0.1s-0.1,0-0.2,0.1c0,0-0.1,0.1-0.1,0.2c0,0.1,0,0.1,0.1,0.2S1100.4,172,1100.4,172z"></path> <path class="st4" d="M1102.8,172.9h-1v1h-0.5v-2.5h1.6v0.4h-1.1v0.6h1V172.9z"></path> </g> </g> <g> <g class="st9"> <path class="st4" d="M1084.4,159.7h-0.9l-0.2,0.5h-0.5l0.9-2.5h0.5l0.9,2.5h-0.5L1084.4,159.7z M1083.6,159.3h0.6l-0.3-0.9 L1083.6,159.3z"></path> <path class="st4" d="M1085.9,159.6l0.3-1.2h0.5l-0.6,1.9h-0.5l-0.6-1.9h0.5L1085.9,159.6z"></path> <path class="st4" d="M1086.9,159.2c0-0.3,0.1-0.5,0.2-0.7c0.1-0.2,0.3-0.3,0.5-0.3c0.2,0,0.4,0.1,0.5,0.2l0-0.2h0.4v1.8 c0,0.2,0,0.3-0.1,0.4c-0.1,0.1-0.2,0.2-0.3,0.3c-0.1,0.1-0.3,0.1-0.5,0.1c-0.1,0-0.3,0-0.4-0.1c-0.1-0.1-0.2-0.1-0.3-0.2 l0.2-0.3c0.1,0.1,0.3,0.2,0.4,0.2c0.1,0,0.2,0,0.3-0.1s0.1-0.2,0.1-0.3V160c-0.1,0.1-0.3,0.2-0.5,0.2c-0.2,0-0.4-0.1-0.5-0.3 C1087,159.8,1086.9,159.5,1086.9,159.2L1086.9,159.2z M1087.4,159.3c0,0.2,0,0.3,0.1,0.4s0.2,0.1,0.3,0.1 c0.2,0,0.3-0.1,0.3-0.2v-0.8c-0.1-0.1-0.2-0.2-0.3-0.2c-0.1,0-0.2,0-0.3,0.1C1087.5,158.9,1087.4,159.1,1087.4,159.3z"></path> </g> <g class="st9"> <path class="st4" d="M1083.6,167h-0.5v-1.1h-1v1.1h-0.5v-2.5h0.5v1h1v-1h0.5V167z"></path> <path class="st4" d="M1084,164.6c0-0.1,0-0.1,0.1-0.2c0,0,0.1-0.1,0.2-0.1s0.2,0,0.2,0.1c0,0,0.1,0.1,0.1,0.2 c0,0.1,0,0.1-0.1,0.2s-0.1,0.1-0.2,0.1c-0.1,0-0.2,0-0.2-0.1S1084,164.7,1084,164.6z M1084.5,167h-0.5v-1.9h0.5V167z"></path> <path class="st4" d="M1084.9,166c0-0.3,0.1-0.5,0.2-0.7c0.1-0.2,0.3-0.3,0.5-0.3c0.2,0,0.4,0.1,0.5,0.2l0-0.2h0.4v1.8 c0,0.2,0,0.3-0.1,0.4c-0.1,0.1-0.2,0.2-0.3,0.3c-0.1,0.1-0.3,0.1-0.5,0.1c-0.1,0-0.3,0-0.4-0.1c-0.1-0.1-0.2-0.1-0.3-0.2 l0.2-0.3c0.1,0.1,0.3,0.2,0.4,0.2c0.1,0,0.2,0,0.3-0.1s0.1-0.2,0.1-0.3v-0.1c-0.1,0.1-0.3,0.2-0.5,0.2c-0.2,0-0.4-0.1-0.5-0.3 C1085,166.6,1084.9,166.3,1084.9,166L1084.9,166z M1085.4,166.1c0,0.2,0,0.3,0.1,0.4s0.2,0.1,0.3,0.1c0.2,0,0.3-0.1,0.3-0.2 v-0.8c-0.1-0.1-0.2-0.2-0.3-0.2c-0.1,0-0.2,0-0.3,0.1C1085.4,165.7,1085.4,165.9,1085.4,166.1z"></path> <path class="st4" d="M1087.4,165.3c0.1-0.2,0.3-0.2,0.5-0.2c0.4,0,0.6,0.2,0.6,0.7v1.2h-0.5v-1.2c0-0.1,0-0.2-0.1-0.2 c0-0.1-0.1-0.1-0.2-0.1c-0.1,0-0.2,0.1-0.3,0.2v1.3h-0.5v-2.6h0.5V165.3z"></path> </g> <g class="st9"> <path class="st4" d="M1083.2,173.5h1.1v0.4h-1.6v-2.5h0.5V173.5z"></path> <path class="st4" d="M1084.5,172.9c0-0.2,0-0.3,0.1-0.5c0.1-0.1,0.2-0.3,0.3-0.3c0.1-0.1,0.3-0.1,0.5-0.1 c0.2,0,0.5,0.1,0.6,0.2s0.2,0.4,0.3,0.6l0,0.1c0,0.3-0.1,0.5-0.2,0.7c-0.2,0.2-0.4,0.3-0.6,0.3s-0.5-0.1-0.6-0.3 C1084.5,173.5,1084.5,173.3,1084.5,172.9L1084.5,172.9z M1085,173c0,0.2,0,0.3,0.1,0.4c0.1,0.1,0.2,0.1,0.3,0.1 c0.1,0,0.2,0,0.3-0.1c0.1-0.1,0.1-0.2,0.1-0.4c0-0.2,0-0.3-0.1-0.4c-0.1-0.1-0.2-0.1-0.3-0.1c-0.1,0-0.2,0-0.3,0.1 C1085,172.6,1085,172.8,1085,173z"></path> <path class="st4" d="M1088.1,173.2l0.2-1.2h0.5l-0.5,1.9h-0.4l-0.4-1.2l-0.4,1.2h-0.4l-0.5-1.9h0.5l0.2,1.2l0.3-1.2h0.4 L1088.1,173.2z"></path> </g> </g> </g> </g> </g> <line class="st18" x1="200" y1="291.6" x2="1000" y2="291.6"></line> <g> <circle class="st5" cx="401.2" cy="291.6" r="23.7"></circle> <g> <path id="lines-green_6_" class="st19" d="M401.2,274.5l8.4,8.4l-8.4,8.4V274.5z M401.2,291.2l8.4,8.4l-8.4,8.4V291.2z M401.2,291.2l-8.4,8.4 M401.2,291.2l-8.4-8.4"></path> </g> </g> <g> <circle class="st5" cx="798.9" cy="291.6" r="23.7"></circle> <path id="cloud_2_" class="st20" d="M788.1,299.8c-3.3,0-6-2.7-6-6c0-2.8,1.9-5.1,4.4-5.8c0-0.1,0-0.1,0-0.2c0-2.3,1.9-4.2,4.2-4.2 c1.3,0,2.4,0.6,3.2,1.5c1.1-3.4,4.2-5.8,7.9-5.8c4.6,0,8.3,3.7,8.3,8.3c0,0.1,0,0.1,0,0.2c3.1,0.2,5.6,2.8,5.6,6c0,3.3-2.7,6-6,6 H788.1z"></path> </g> <circle class="st5" cx="1000" cy="291.6" r="4.7"></circle> <circle class="st5" cx="200" cy="291.6" r="4.7"></circle> <circle class="st5" cx="598.7" cy="291.6" r="4.7"></circle> <polyline class="st18" points="338.9,282.7 347.8,291.6 338.9,300.5 "></polyline> <polyline class="st18" points="736.7,282.7 745.5,291.6 736.7,300.5 "></polyline> <g> <g> <g> <path class="st5" d="M200,214.9c-21.1,0-33.5-3.7-39-5.9c-3.1-1.2-5.1-4.1-5.1-7.5V71.3c0-4,2.8-7.3,6.8-7.9 c6.7-1,18.6-2.3,37.3-2.3s30.6,1.2,37.3,2.3c3.9,0.6,6.8,3.9,6.8,7.9v130.3c0,3.3-2,6.2-5.1,7.5 C233.5,211.2,221.1,214.9,200,214.9z"></path> <g> <path class="st4" d="M200,62.1c18.9,0,30.7,1.3,37.1,2.3c3.4,0.5,5.9,3.5,5.9,6.9v130.3c0,2.9-1.8,5.5-4.4,6.5 c-5.9,2.4-18.1,5.8-38.6,5.8s-32.7-3.4-38.6-5.8c-2.7-1.1-4.4-3.6-4.4-6.5V71.3c0-3.5,2.5-6.4,5.9-6.9 C169.3,63.3,181.1,62.1,200,62.1 M200,60.1c-18.8,0-30.7,1.3-37.4,2.3c-4.4,0.7-7.6,4.4-7.6,8.9v130.3c0,3.7,2.2,7,5.7,8.4 c6.8,2.7,19.2,5.9,39.3,5.9c20.2,0,32.5-3.2,39.3-5.9c3.5-1.4,5.7-4.7,5.7-8.4V71.3c0-4.5-3.2-8.2-7.6-8.9 C230.7,61.3,218.8,60.1,200,60.1L200,60.1z"></path> </g> </g> <circle id="dot-large_36_" class="st1" cx="229.3" cy="78.6" r="3.8"></circle> <path class="st21" d="M200,213.9c-20.5,0-32.7-3.4-38.6-5.8c-2.7-1.1-4.4-3.6-4.4-6.5V71.3c0-3.5,2.5-6.4,5.9-6.9 c6.4-1,18.2-2.3,37.1-2.3V213.9z"></path> </g> </g> <g> <g> <g> <path class="st22" d="M597.1,118.5c-25.2,0-67.2-2.8-75.3-3.3c-1.4-0.1-2.5-1.3-2.5-2.7V56.6c0-1.4,1.1-2.6,2.5-2.7 c9.6-0.5,58.6-3,77-3s67.4,2.5,77,3c1.4,0.1,2.5,1.2,2.5,2.7v55.9c0,1.4-1.1,2.6-2.5,2.7C667.2,115.7,622.4,118.5,597.1,118.5z"></path> <path class="st4" d="M598.8,51.9c18.5,0,67.5,2.5,77,3c0.9,0,1.6,0.8,1.6,1.7v55.9c0,0.9-0.7,1.6-1.6,1.7 c-8.9,0.6-53.5,3.3-78.7,3.3c-25.1,0-66.7-2.7-75.3-3.3c-0.9-0.1-1.6-0.8-1.6-1.7V56.6c0-0.9,0.7-1.6,1.6-1.7 C531.3,54.4,580.4,51.9,598.8,51.9 M598.8,49.9c-18.5,0-67.4,2.5-77.1,3c-2,0.1-3.5,1.7-3.5,3.7v55.9c0,1.9,1.5,3.5,3.4,3.7 c8.2,0.6,50.2,3.3,75.4,3.3c25.3,0,70.1-2.8,78.8-3.3c1.9-0.1,3.4-1.7,3.4-3.7V56.6c0-2-1.5-3.6-3.5-3.7 C666.3,52.4,617.3,49.9,598.8,49.9L598.8,49.9z"></path> </g> <path class="st5" d="M654.5,53.9c-7.7,30.2-49.9,53.2-100.8,53.2c-11.7,0-23-1.2-33.4-3.5v-47c0-0.9,0.7-1.6,1.6-1.7 c9.4-0.5,58.5-3,77-3C610.9,51.9,635.9,53,654.5,53.9z"></path> <g> <rect x="664.8" y="109.2" class="st23" width="0.4" height="1.7"></rect> <path class="st23" d="M668.7,109.7c0,0-0.2-0.1-0.4-0.1c-0.3,0-0.5,0.2-0.5,0.4c0,0.3,0.2,0.4,0.5,0.4c0.2,0,0.3-0.1,0.4-0.1v0.5 c-0.1,0-0.2,0.1-0.4,0.1c-0.5,0-0.9-0.3-0.9-0.9c0-0.5,0.4-0.9,0.9-0.9c0.2,0,0.3,0,0.4,0.1V109.7z"></path> <path class="st23" d="M664.3,109.7c0,0-0.2-0.1-0.4-0.1c-0.3,0-0.5,0.2-0.5,0.4c0,0.3,0.2,0.4,0.5,0.4c0.2,0,0.3-0.1,0.4-0.1v0.5 c-0.1,0-0.2,0.1-0.4,0.1c-0.5,0-0.9-0.3-0.9-0.9c0-0.5,0.4-0.9,0.9-0.9c0.2,0,0.3,0,0.4,0.1V109.7z"></path> <path class="st23" d="M670,109.6c-0.3,0-0.4,0.2-0.4,0.4c0,0.2,0.2,0.4,0.4,0.4c0.3,0,0.4-0.2,0.4-0.4 C670.5,109.8,670.3,109.6,670,109.6 M670.9,110c0,0.5-0.4,0.9-0.9,0.9s-0.9-0.4-0.9-0.9s0.4-0.9,0.9-0.9S670.9,109.5,670.9,110"></path> <path class="st23" d="M666.9,109.6c0,0-0.2-0.1-0.3-0.1c-0.2,0-0.3,0.1-0.3,0.1c0,0.1,0.1,0.1,0.2,0.2h0.1 c0.3,0.1,0.4,0.3,0.4,0.5c0,0.4-0.4,0.6-0.7,0.6c-0.2,0-0.4,0-0.5,0v-0.4c0,0,0.2,0.1,0.4,0.1s0.3-0.1,0.3-0.2s-0.1-0.1-0.2-0.2 h-0.1c-0.2-0.1-0.4-0.2-0.4-0.5s0.2-0.5,0.6-0.5c0.2,0,0.4,0,0.4,0.1L666.9,109.6L666.9,109.6z"></path> <path class="st23" d="M662.5,107.4c0-0.1-0.1-0.2-0.2-0.2c-0.1,0-0.2,0.1-0.2,0.2v0.4c0,0.1,0.1,0.2,0.2,0.2 c0.1,0,0.2-0.1,0.2-0.2V107.4z"></path> <path class="st23" d="M663.7,106.8c0-0.1-0.1-0.2-0.2-0.2c-0.1,0-0.2,0.1-0.2,0.2v1c0,0.1,0.1,0.2,0.2,0.2c0.1,0,0.2-0.1,0.2-0.2 V106.8z"></path> <path class="st23" d="M664.8,106c0-0.1-0.1-0.2-0.2-0.2c-0.1,0-0.2,0.1-0.2,0.2v2.2c0,0.1,0.1,0.2,0.2,0.2c0.1,0,0.2-0.1,0.2-0.2 V106z"></path> <path class="st23" d="M666,106.8c0-0.1-0.1-0.2-0.2-0.2c-0.1,0-0.2,0.1-0.2,0.2v1c0,0.1,0.1,0.2,0.2,0.2c0.1,0,0.2-0.1,0.2-0.2 V106.8z"></path> <path class="st23" d="M667.2,107.4c0-0.1-0.1-0.2-0.2-0.2c-0.1,0-0.2,0.1-0.2,0.2v0.4c0,0.1,0.1,0.2,0.2,0.2 c0.1,0,0.2-0.1,0.2-0.2V107.4z"></path> <path class="st23" d="M668.3,106.8c0-0.1-0.1-0.2-0.2-0.2c-0.1,0-0.2,0.1-0.2,0.2v1c0,0.1,0.1,0.2,0.2,0.2c0.1,0,0.2-0.1,0.2-0.2 V106.8z"></path> <path class="st23" d="M669.5,106c0-0.1-0.1-0.2-0.2-0.2c-0.1,0-0.2,0.1-0.2,0.2v2.2c0,0.1,0.1,0.2,0.2,0.2c0.1,0,0.2-0.1,0.2-0.2 V106z"></path> <path class="st23" d="M670.6,106.8c0-0.1-0.1-0.2-0.2-0.2c-0.1,0-0.2,0.1-0.2,0.2v1c0,0.1,0.1,0.2,0.2,0.2c0.1,0,0.2-0.1,0.2-0.2 V106.8z"></path> <path class="st23" d="M671.8,107.4c0-0.1-0.1-0.2-0.2-0.2c-0.1,0-0.2,0.1-0.2,0.2v0.4c0,0.1,0.1,0.2,0.2,0.2 c0.1,0,0.2-0.1,0.2-0.2V107.4z"></path> </g> </g> <g> <g> <g> <path class="st21" d="M649.3,187.4c-6.3-8.9-26.5-15.5-50.5-15.5s-44.2,6.5-50.5,15.5c0.8-2.7,1.5-5.9,1.5-8.5 c0.9-17.5,20.6-28.3,49-28.3s48.1,10.8,49,28.3C647.8,181.6,648.5,184.8,649.3,187.4z"></path> <path class="st24" d="M569.7,194.2c-0.3-0.3-0.6-0.6-0.8-0.9c0,0,0,0,0-0.1l0.1,0.1l0.1,0.1L569.7,194.2z"></path> <path class="st25" d="M651.3,193.3c0,0.1,0,0.2,0,0.3c0,6.4-6.7,12.1-17.4,16.1h-0.1c0.3-2.5,0.4-4.4,0.4-5.6 c0-2.1,2.3-2.4,2.3-6.3c0-1.5-0.8-3-1.9-4.5c-1.5-1.9-3.7-3.6-5.7-4.6c-0.2-0.1-0.5-0.2-0.7-0.4c-4.1-3.7-15.6-6.4-29.2-6.4 c-13.1,0-24.2,2.5-28.7,6c-0.5,0.2-1.1,0.5-1.6,0.8c-2,1-4.2,2.7-5.7,4.6c-1.2,1.5-1.9,3-1.9,4.5c0,3.9,2.3,4.3,2.3,6.3 c0,1.1,0.1,3.1,0.4,5.6h-0.1c-10.7-4-17.4-9.7-17.4-16.1c0-0.1,0-0.2,0-0.3l0,0c0-2,0.7-4,2-5.8c6.3-8.9,26.5-15.5,50.5-15.5 s44.2,6.5,50.5,15.5C650.6,189.3,651.3,191.3,651.3,193.3L651.3,193.3z"></path> <path class="st26" d="M569,193.3L569,193.3C568.9,193.3,568.9,193.2,569,193.3L569,193.3z"></path> <path class="st5" d="M636.6,197.8c0,3.9-2.3,4.3-2.3,6.3c0,1.1-0.1,3.1-0.4,5.6c-1,7.7-4.6,20.2-16.3,27.9 c-6.6,4.3-13.1,4.5-16,4.7c-0.7,0.1-1.6,0.1-2.7,0.2c-1.1,0-2-0.1-2.7-0.2c-2.8-0.2-9.4-0.4-16-4.7 c-11.8-7.7-15.3-20.2-16.3-27.9c-0.3-2.5-0.4-4.4-0.4-5.6c0-2.1-2.3-2.4-2.3-6.3c0-1.5,0.8-3,1.9-4.5c1.5-1.9,3.7-3.6,5.7-4.6 c0.5-0.3,1.1-0.5,1.6-0.8c-1.4,1.1-2.1,2.2-2.1,3.4c0,0.6,0.2,1.2,0.6,1.9l0,0l0,0v0.1c0.2,0.3,0.5,0.6,0.8,0.9l0,0l6.4,7.4 c-1.2,0.9-1.9,1.9-1.9,2.9v0.1v0.1v0.1v0.1v0.1v0.1v0.1v0.1v0.1v0.1v0.1v0.1v0.1v0.1v0.1v0.1v0.1v0.1v0.1v0.1v0.1v0.1v0.1v0.1 v0.1v0.1v0.1v0.1v0.1v0.1v0.1v0.1v0.1v0.1v0.1v0.1v0.1v0.1v0.1v0.1v0.1v0.1v0.1v0.1v0.1v0.1v0.1v0.1v0.1v0.1v0.1v0.1v0.1v0.1 v0.1v0.1v0.1v0.1l0,0v0.1v0.1v0.1v0.1v0.1v0.1v0.1v0.1v0.1v0.1v0.1v0.1v0.1v0.1v0.1v0.1v0.1v0.1v0.1v0.1v0.1v0.1v0.1v0.1v0.1 v0.1v0.1v0.1v0.1v0.1v0.1v0.1v0.1v0.1v0.1v0.1v0.1v0.1v0.1v0.1v0.1v0.1v0.1v0.1c0,1.6,1.7,3.2,4.7,4.4l0,0c0,0,0,0,0,0.1 c0,0,0,0,0,0.1c0,0,0,0,0,0.1c0,0,0,0,0,0.1c0,0,0,0,0,0.1c0,0,0,0,0,0.1c0,0,0,0,0,0.1c0,0,0,0,0,0.1c0,0,0,0,0,0.1 c0,0,0,0,0,0.1l0,0v0.1c0,0,0,0,0,0.1c0,0,0,0,0,0.1c0,0,0,0,0,0.1c0,0,0,0,0,0.1c0,0,0,0,0,0.1c0,0,0,0,0,0.1c0,0,0,0,0,0.1 c0,0,0,0,0,0.1c0,0,0,0,0,0.1c0,0,0,0,0,0.1c0,0,0,0,0,0.1c0,0,0,0,0,0.1c0,0,0,0,0,0.1c0,0,0,0,0,0.1c0,0,0,0,0,0.1 c0,0,0,0,0,0.1c0,0,0,0,0,0.1c0,0,0,0,0,0.1c0,0,0,0,0,0.1c0,0,0,0,0,0.1c0,0,0,0,0,0.1c0,0,0,0,0,0.1c0,0,0,0,0,0.1 c0,0,0,0,0,0.1c0,0,0,0,0,0.1c0,0,0,0,0,0.1c0,0,0,0,0,0.1c0,0,0,0,0,0.1c0,0,0,0,0,0.1c0,0,0,0,0,0.1c0,0,0,0,0,0.1 c0,0,0,0,0,0.1c0,0,0,0,0,0.1c0,0,0,0,0,0.1c0,0,0,0,0,0.1c0,0,0,0,0,0.1c0,0,0,0,0,0.1l0,0v0.1c0,0,0,0,0,0.1c0,0,0,0,0,0.1 c0,0,0,0,0,0.1c0,0,0,0,0,0.1c0,0,0,0,0,0.1c0,0,0,0,0,0.1c0,0,0,0,0,0.1c0,0,0,0,0,0.1c0,0,0,0,0,0.1c0,0,0,0,0,0.1 c0,0,0,0,0,0.1c0,0,0,0,0,0.1c0,0,0,0,0,0.1c0,0,0,0,0,0.1c0,0,0,0,0,0.1c0,0,0,0,0,0.1c0,0,0,0,0,0.1c0,0,0,0,0,0.1 c0,3.4,9,6.1,20.2,6.1c11.1,0,20.2-2.7,20.2-6.1c0,0,0,0,0-0.1c0,0,0,0,0-0.1c0,0,0,0,0-0.1c0,0,0,0,0-0.1c0,0,0,0,0-0.1 c0,0,0,0,0-0.1c0,0,0,0,0-0.1c0,0,0,0,0-0.1c0,0,0,0,0-0.1c0,0,0,0,0-0.1c0,0,0,0,0-0.1c0,0,0,0,0-0.1c0,0,0,0,0-0.1 c0,0,0,0,0-0.1c0,0,0,0,0-0.1c0,0,0,0,0-0.1c0,0,0,0,0-0.1c0,0,0,0,0-0.1c0,0,0,0,0-0.1c0,0,0,0,0-0.1c0,0,0,0,0-0.1 c0,0,0,0,0-0.1c0,0,0,0,0-0.1c0,0,0,0,0-0.1c0,0,0,0,0-0.1c0,0,0,0,0-0.1c0,0,0,0,0-0.1c0,0,0,0,0-0.1l0,0v-0.1c0,0,0,0,0-0.1 s0,0,0-0.1c0,0,0,0,0-0.1c0,0,0,0,0-0.1c0,0,0,0,0-0.1c0,0,0,0,0-0.1c0,0,0,0,0-0.1c0,0,0,0,0-0.1c0,0,0,0,0-0.1c0,0,0,0,0-0.1 c0,0,0,0,0-0.1s0,0,0-0.1c0,0,0,0,0-0.1c0,0,0,0,0-0.1c0,0,0,0,0-0.1c0,0,0,0,0-0.1c0,0,0,0,0-0.1c0,0,0,0,0-0.1c0,0,0,0,0-0.1 c0,0,0,0,0-0.1c0,0,0,0,0-0.1s0,0,0-0.1c0,0,0,0,0-0.1c0,0,0,0,0-0.1c0,0,0,0,0-0.1c0,0,0,0,0-0.1c0,0,0,0,0-0.1c0,0,0,0,0-0.1 c0,0,0,0,0-0.1c0,0,0,0,0-0.1c0,0,0,0,0-0.1c0,0,0,0,0-0.1c0,0,0,0,0-0.1c0,0,0,0,0-0.1c0,0,0,0,0-0.1c0,0,0,0,0-0.1 c0,0,0,0,0-0.1l0,0v-0.1l0,0c2.9-1.2,4.7-2.8,4.7-4.4v-0.1v-0.1v-0.1v-0.1v-0.1v-0.1V214v-0.1v-0.1v-0.1v-0.1v-0.1v-0.1v-0.1 v-0.1v-0.1V213v-0.1v-0.1v-0.1v-0.1v-0.1v-0.1v-0.1v-0.1v-0.1V212v-0.1v-0.1v-0.1v-0.1v-0.1v-0.1v-0.1v-0.1v-0.1V211v-0.1v-0.1 v-0.1v-0.1v-0.1v-0.1v-0.1l0,0v-0.1v-0.1V210v-0.1v-0.1v-0.1v-0.1v-0.1v-0.1v-0.1v-0.1v-0.1V209v-0.1v-0.1v-0.1v-0.1v-0.1v-0.1 v-0.1v-0.1v-0.1V208v-0.1v-0.1v-0.1v-0.1v-0.1v-0.1v-0.1v-0.1v-0.1V207v-0.1v-0.1v-0.1v-0.1v-0.1v-0.1v-0.1v-0.1v-0.1V206v-0.1 v-0.1v-0.1v-0.1v-0.1v-0.1v-0.1v-0.1v-0.1V205v-0.1v-0.1v-0.1v-0.1v-0.1c0-1.3-1.1-2.5-2.9-3.6l6.2-5.7l0,0 c0.9-0.6,1.6-1.2,2-1.9c0.5-0.6,0.7-1.3,0.7-2c0-1.1-0.6-2.1-1.6-3c0.2,0.1,0.5,0.2,0.7,0.4c2,1,4.2,2.7,5.7,4.6 C635.8,194.8,636.6,196.3,636.6,197.8z"></path> <path class="st27" d="M629.8,191.3c0,0.7-0.2,1.3-0.7,2s-8.2,7.6-8.2,7.6c1.9,1.1,2.9,2.3,2.9,3.6v0.1v0.1v0.1v0.1v0.1v0.1v0.1 v0.1v0.1v0.1v0.1v0.1v0.1v0.1v0.1v0.1v0.1v0.1v0.1v0.1v0.1v0.1v0.1v0.1v0.1v0.1v0.1v0.1v0.1v0.1v0.1v0.1v0.1v0.1v0.1v0.1v0.1 v0.1v0.1v0.1v0.1v0.1v0.1v0.1v0.1v0.1v0.1v0.1v0.1v0.1v0.1v0.1v0.1v0.1v0.1v0.1v0.1v0.1l0,0v0.1v0.1v0.1v0.1v0.1v0.1v0.1v0.1 v0.1v0.1v0.1v0.1v0.1v0.1v0.1v0.1v0.1v0.1v0.1v0.1v0.1v0.1v0.1v0.1v0.1v0.1v0.1v0.1v0.1v0.1v0.1v0.1v0.1v0.1v0.1v0.1v0.1v0.1 v0.1v0.1v0.1v0.1v0.1v0.1c0,1.6-1.7,3.2-4.7,4.4l0,0c0,0,0,0,0,0.1l0,0c0,0,0,0,0,0.1c0,0,0,0,0,0.1c0,0,0,0,0,0.1 c0,0,0,0,0,0.1c0,0,0,0,0,0.1c0,0,0,0,0,0.1c0,0,0,0,0,0.1c0,0,0,0,0,0.1v0.1c0,0,0,0,0,0.1c0,0,0,0,0,0.1c0,0,0,0,0,0.1 c0,0,0,0,0,0.1c0,0,0,0,0,0.1c0,0,0,0,0,0.1c0,0,0,0,0,0.1s0,0,0,0.1c0,0,0,0,0,0.1c0,0,0,0,0,0.1c0,0,0,0,0,0.1c0,0,0,0,0,0.1 c0,0,0,0,0,0.1c0,0,0,0,0,0.1c0,0,0,0,0,0.1c0,0,0,0,0,0.1c0,0,0,0,0,0.1s0,0,0,0.1c0,0,0,0,0,0.1c0,0,0,0,0,0.1c0,0,0,0,0,0.1 c0,0,0,0,0,0.1c0,0,0,0,0,0.1c0,0,0,0,0,0.1c0,0,0,0,0,0.1c0,0,0,0,0,0.1c0,0,0,0,0,0.1s0,0,0,0.1c0,0,0,0,0,0.1l0,0 c0,0,0,0,0,0.1c0,0,0,0,0,0.1c0,0,0,0,0,0.1c0,0,0,0,0,0.1c0,0,0,0,0,0.1c0,0,0,0,0,0.1c0,0,0,0,0,0.1c0,0,0,0,0,0.1v0.1 c0,0,0,0,0,0.1c0,0,0,0,0,0.1c0,0,0,0,0,0.1c0,0,0,0,0,0.1c0,0,0,0,0,0.1c0,0,0,0,0,0.1c0,0,0,0,0,0.1c0,0,0,0,0,0.1 c0,0,0,0,0,0.1c0,0,0,0,0,0.1c0,0,0,0,0,0.1c0,0,0,0,0,0.1c0,0,0,0,0,0.1c0,0,0,0,0,0.1c0,0,0,0,0,0.1c0,0,0,0,0,0.1 c0,0,0,0,0,0.1c0,0,0,0,0,0.1c0,0,0,0,0,0.1c0,3.4-9,6.1-20.2,6.1c-11.1,0-20.2-2.7-20.2-6.1c0,0,0,0,0-0.1c0,0,0,0,0-0.1 c0,0,0,0,0-0.1c0,0,0,0,0-0.1c0,0,0,0,0-0.1c0,0,0,0,0-0.1c0,0,0,0,0-0.1c0,0,0,0,0-0.1c0,0,0,0,0-0.1c0,0,0,0,0-0.1 c0,0,0,0,0-0.1c0,0,0,0,0-0.1c0,0,0,0,0-0.1c0,0,0,0,0-0.1c0,0,0,0,0-0.1c0,0,0,0,0-0.1c0,0,0,0,0-0.1c0,0,0,0,0-0.1 c0,0,0,0,0-0.1l0,0c0,0,0,0,0-0.1c0,0,0,0,0-0.1c0,0,0,0,0-0.1c0,0,0,0,0-0.1c0,0,0,0,0-0.1c0,0,0,0,0-0.1c0,0,0,0,0-0.1 c0,0,0,0,0-0.1V223c0,0,0,0,0-0.1c0,0,0,0,0-0.1c0,0,0,0,0-0.1c0,0,0,0,0-0.1c0,0,0,0,0-0.1c0,0,0,0,0-0.1c0,0,0,0,0-0.1 c0,0,0,0,0-0.1c0,0,0,0,0-0.1c0,0,0,0,0-0.1c0,0,0,0,0-0.1c0,0,0,0,0-0.1c0,0,0,0,0-0.1c0,0,0,0,0-0.1c0,0,0,0,0-0.1 c0,0,0,0,0-0.1c0,0,0,0,0-0.1c0,0,0,0,0-0.1c0,0,0,0,0-0.1c0,0,0,0,0-0.1c0,0,0,0,0-0.1c0,0,0,0,0-0.1c0,0,0,0,0-0.1 c0,0,0,0,0-0.1c0,0,0,0,0-0.1c0,0,0,0,0-0.1c0,0,0,0,0-0.1c0,0,0,0,0-0.1c0,0,0,0,0-0.1l0,0c0,0,0,0,0-0.1c0,0,0,0,0-0.1 c0,0,0,0,0-0.1c0,0,0,0,0-0.1c0,0,0,0,0-0.1c0,0,0,0,0-0.1c0,0,0,0,0-0.1c0,0,0,0,0-0.1v-0.1c0,0,0,0,0-0.1l0,0 c-2.9-1.2-4.7-2.8-4.7-4.4v-0.1v-0.1v-0.1v-0.1v-0.1v-0.1V214v-0.1v-0.1v-0.1v-0.1v-0.1v-0.1v-0.1v-0.1v-0.1V213v-0.1v-0.1v-0.1 v-0.1v-0.1v-0.1v-0.1v-0.1v-0.1V212v-0.1v-0.1v-0.1v-0.1v-0.1v-0.1v-0.1v-0.1v-0.1V211v-0.1v-0.1v-0.1v-0.1v-0.1v-0.1v-0.1l0,0 v-0.1v-0.1V210v-0.1v-0.1v-0.1v-0.1v-0.1v-0.1v-0.1v-0.1v-0.1V209v-0.1v-0.1v-0.1v-0.1v-0.1v-0.1v-0.1v-0.1v-0.1V208v-0.1v-0.1 v-0.1c0,0,0-0.1,0-0.2v-0.1v-0.1v-0.1v-0.1V207v-0.1v-0.1v-0.1v-0.1v-0.1v-0.1v-0.1v-0.1v-0.1V206v-0.1v-0.1v-0.1v-0.1 c0,0,0-0.1,0-0.2v-0.1v-0.1v-0.1V205v-0.1v-0.1v-0.1v-0.1v-0.1c0-1,0.7-2,1.9-2.9l-7.1-8.3l-0.1-0.1l0,0l0,0 c-0.4-0.6-0.6-1.2-0.6-1.9c0-1.2,0.7-2.4,2.1-3.4c4.5-3.5,15.6-6,28.7-6c13.5,0,25,2.7,29.2,6.4 C629.3,189.2,629.8,190.3,629.8,191.3z"></path> <path class="st28" d="M569.7,194.2c-0.3-0.3-0.6-0.6-0.8-0.9c0,0,0,0,0-0.1l0.1,0.1l0.1,0.1L569.7,194.2z"></path> <g> <path class="st27" d="M569.7,194.2c-0.3-0.3-0.6-0.6-0.8-0.9c0,0,0,0,0-0.1l0.1,0.1l0.1,0.1L569.7,194.2z"></path> </g> </g> </g> <g> <g> <path class="st4" d="M598.8,150.7c28.4,0,48.1,10.8,49,28.3c0,2.7,0.7,5.8,1.5,8.5c1.3,1.9,2,3.8,2,5.8l0,0c0,0.1,0,0.2,0,0.3 c0,6.4-6.7,12.1-17.4,16.1h-0.1c-1,7.7-4.6,20.2-16.3,27.9c-6.6,4.3-13.1,4.5-16,4.7c-0.7,0.1-1.6,0.1-2.7,0.2 c-1.1,0-2-0.1-2.7-0.2c-2.8-0.2-9.4-0.4-16-4.7c-11.8-7.7-15.3-20.2-16.3-27.9h-0.1c-10.7-4-17.4-9.7-17.4-16.1 c0-0.1,0-0.2,0-0.3l0,0c0-2,0.7-4,2-5.8c0.8-2.7,1.5-5.9,1.5-8.5C550.7,161.5,570.4,150.7,598.8,150.7 M598.8,148.7 c-30.1,0-50.1,11.8-51,30.2l0,0l0,0c0,2-0.4,4.5-1.3,7.7c-1.4,2.2-2.2,4.4-2.2,6.7v2h0.1c0.9,6.2,7.1,11.8,17.6,15.9 c1.2,7.6,5,20.2,17,28.1c6.5,4.3,13.1,4.8,16.2,5c0.2,0,0.5,0,0.7,0.1c0.7,0.1,1.6,0.1,2.8,0.2h0.1h0.1c1.2,0,2.2-0.1,2.8-0.2 c0.2,0,0.4,0,0.7,0c3.1-0.2,9.7-0.7,16.2-5c12-7.9,15.8-20.5,17-28.1c10.5-4.1,16.6-9.7,17.6-15.9h0.1v-1.5v-0.1v-0.1v-0.2 c0-2.3-0.7-4.6-2.2-6.7c-0.9-3.1-1.3-5.7-1.3-7.7l0,0l0,0C648.9,160.5,628.9,148.7,598.8,148.7L598.8,148.7z"></path> </g> </g> </g> </g> <g> <path class="st5" d="M558.9,347.8h2.7l4.3,6l4.5-6h2.6v14.6h-2.8v-10.2l-4.4,5.9l-4.3-5.8v10.1h-2.8V347.8z"></path> <path class="st5" d="M575.7,347.8h5.9c3.4,0,5.4,2.2,5.4,4.9c0,1.8-0.9,3.5-2.6,4.3l2.9,5.3h-3.2l-2.3-4.6h-3.3v4.6h-2.8V347.8z M578.5,350.4v4.8h2.9c1.9,0,2.7-1.2,2.7-2.5c0-1.4-0.9-2.4-2.7-2.4H578.5z"></path> <path class="st5" d="M600,347.8h2.9l-6.9,14.6h-2.9L600,347.8z"></path> <path class="st5" d="M609.5,347.8h2.7l4.3,6l4.5-6h2.6v14.6h-2.8v-10.2l-4.4,5.9l-4.3-5.8v10.1h-2.8V347.8z"></path> <path class="st5" d="M625.3,347.8h3l3.9,10.8l4-10.8h3l-5.5,14.6h-2.8L625.3,347.8z"></path> <path class="st5" d="M544.1,381.4c0-4.7,2.3-7.8,5.5-10.2l1.8,2.2c-2.4,1.7-4.3,4.2-4.3,8c0,3.7,1.8,6.2,4.4,8l-1.7,2.3 C546.5,389.4,544.1,386.1,544.1,381.4z"></path> <path class="st5" d="M553,379.1c0-4.2,3.1-7.5,7.5-7.5c2.8,0,4.9,1.2,6.2,3l-2.4,1.7c-0.8-1.3-2.2-2-3.9-2c-2.7,0-4.7,2.1-4.7,4.8 c0,2.7,2,4.8,4.8,4.8c2.2,0,3.7-1.2,4.2-3.2h-4.6v-2.6h7.7v1.2c0,3.9-2.8,7.3-7.2,7.3C556.1,386.6,553,383.2,553,379.1z"></path> <path class="st5" d="M569.4,381c0-3.4,2.5-5.6,5.2-5.6c1.4,0,2.6,0.6,3.3,1.6v-1.4h2.7v10.8H578v-1.5c-0.8,1.1-2,1.7-3.4,1.7 C571.9,386.6,569.4,384.4,569.4,381z M578.1,381c0-1.7-1.3-3-3-3c-1.7,0-3,1.3-3,3s1.3,3,3,3C576.8,384,578.1,382.7,578.1,381z"></path> <path class="st5" d="M582.3,375.6h2v-2.3l2.7-1.6v3.9h2.8v2.4H587v4.4c0,1.1,0.5,1.5,1.2,1.5c0.4,0,0.7-0.1,1-0.4l1.3,2.2 c-0.7,0.5-1.6,0.8-2.6,0.8c-2.3,0-3.6-1.1-3.6-4V378h-2V375.6z"></path> <path class="st5" d="M590.8,381c0-3.1,2.4-5.6,5.7-5.6c3.2,0,5.6,2.3,5.6,5.5v1h-8.6c0.4,1.4,1.5,2.3,3.1,2.3 c1.3,0,2.1-0.6,2.7-1.4l2.3,1.3c-1.1,1.5-2.6,2.5-5,2.5C593,386.6,590.8,384.2,590.8,381z M593.5,379.8h5.8 c-0.4-1.3-1.4-2.1-2.8-2.1C595.1,377.7,594,378.5,593.5,379.8z"></path> <path class="st5" d="M602.6,375.6h2.8l2.2,7l2.6-7h2.5l2.5,7.1l2.3-7.1h2.8l-3.7,10.8h-2.6l-2.6-7l-2.6,7h-2.6L602.6,375.6z"></path> <path class="st5" d="M620.6,381c0-3.4,2.5-5.6,5.2-5.6c1.4,0,2.6,0.6,3.3,1.6v-1.4h2.7v10.8h-2.7v-1.5c-0.8,1.1-2,1.7-3.4,1.7 C623.2,386.6,620.6,384.4,620.6,381z M629.4,381c0-1.7-1.3-3-3-3c-1.7,0-3,1.3-3,3s1.3,3,3,3C628.1,384,629.4,382.7,629.4,381z"></path> <path class="st5" d="M632.3,389.7l1.6-2.2c0.4,0.4,0.8,0.7,1.5,0.7c1,0,1.6-0.4,2.1-1.7l0.2-0.4l-4.3-10.3h2.9l2.8,7l2.7-7h2.9 l-4.7,11.4c-1.1,2.8-2.3,3.7-4.6,3.7C634.2,390.7,633.1,390.3,632.3,389.7z"></path> <path class="st5" d="M645.6,373.4l1.8-2.2c3.2,2.3,5.5,5.5,5.5,10.2c0,4.7-2.3,8-5.6,10.3l-1.7-2.3c2.6-1.8,4.4-4.3,4.4-8 C649.9,377.6,648,375.1,645.6,373.4z"></path> </g> <g> <g> <path class="st5" d="M967.7,347.8h2.7l4.3,6l4.5-6h2.6v14.6h-2.8v-10.2l-4.4,5.9l-4.3-5.8v10.1h-2.8V347.8z"></path> <path class="st5" d="M983.7,357c0-3.1,2.4-5.6,5.7-5.6c3.2,0,5.6,2.3,5.6,5.5v1h-8.6c0.4,1.4,1.5,2.3,3.1,2.3 c1.3,0,2.1-0.6,2.7-1.4l2.3,1.3c-1.1,1.5-2.6,2.5-5,2.5C985.9,362.6,983.7,360.2,983.7,357z M986.4,355.8h5.8 c-0.4-1.3-1.4-2.1-2.8-2.1C988,353.7,986.9,354.5,986.4,355.8z"></path> <path class="st5" d="M996.7,351.6h2.7v1.7c0.5-1.3,1.6-1.9,3-1.9c0.7,0,1.4,0.2,1.8,0.4l-1,2.7c-0.3-0.2-0.8-0.4-1.4-0.4 c-1.4,0-2.3,0.7-2.3,2.5v5.7h-2.7V351.6z"></path> <path class="st5" d="M1004.4,357c0-3.4,2.5-5.6,5.2-5.6c1.4,0,2.6,0.6,3.3,1.6v-1.4h2.7v10.8h-2.7v-1.5c-0.8,1.1-2,1.7-3.4,1.7 C1007,362.6,1004.4,360.4,1004.4,357z M1013.2,357c0-1.7-1.3-3-3-3c-1.7,0-3,1.3-3,3s1.3,3,3,3 C1011.9,360,1013.2,358.7,1013.2,357z"></path> <path class="st5" d="M1022.3,357.9l-1.7,1.9v2.6h-2.7v-15.8h2.7v10l4.4-5h3.3l-4.1,4.6l4.3,6.2h-3.2L1022.3,357.9z"></path> <path class="st5" d="M1031.1,346.8c1.1,0,1.8,0.8,1.8,1.8c0,1-0.7,1.8-1.8,1.8c-1,0-1.8-0.7-1.8-1.8 C1029.4,347.5,1030.1,346.8,1031.1,346.8z M1029.7,351.6h2.8v10.8h-2.8V351.6z"></path> <path class="st5" d="M945.9,371.8h4.7c4.6,0,7.6,3.2,7.6,7.3c0,4.2-3.2,7.3-7.6,7.3h-4.8V371.8z M948.7,374.4v9.3h1.8 c3,0,4.9-2,4.9-4.7c0-2.7-1.8-4.7-5-4.7H948.7z"></path> <path class="st5" d="M959.8,381c0-3.4,2.5-5.6,5.2-5.6c1.4,0,2.6,0.6,3.3,1.6v-1.4h2.7v10.8h-2.7v-1.5c-0.8,1.1-2,1.7-3.4,1.7 C962.4,386.6,959.8,384.4,959.8,381z M968.6,381c0-1.7-1.3-3-3-3c-1.7,0-3,1.3-3,3s1.3,3,3,3C967.3,384,968.6,382.7,968.6,381z"></path> <path class="st5" d="M972.6,383.9l2.7-1c0.5,1,1.3,1.5,2.5,1.5c1.1,0,1.7-0.5,1.7-1.2c0-0.8-1.2-1-2.5-1.2 c-1.8-0.4-3.8-0.9-3.8-3.2c0-1.8,1.8-3.4,4.4-3.4c2.3,0,3.6,0.9,4.6,2.3l-2.5,1c-0.4-0.7-1.1-1.1-2.1-1.1c-1.1,0-1.6,0.4-1.6,1 c0,0.7,0.9,0.9,2.5,1.2c1.8,0.4,3.9,1,3.9,3.3c0,1.7-1.5,3.6-4.6,3.6C975,386.6,973.4,385.7,972.6,383.9z"></path> <path class="st5" d="M983.9,370.6h2.7v6.3c0.7-1,1.8-1.5,3.1-1.5c2.6,0,4.2,1.7,4.2,4.5v6.5h-2.8v-6.1c0-1.5-0.7-2.5-2.2-2.5 c-1.3,0-2.3,1-2.3,2.6v6h-2.7V370.6z"></path> <path class="st5" d="M998.9,384.9v1.5h-2.7v-15.8h2.7v6.5c0.7-1,1.9-1.7,3.4-1.7c2.7,0,5.2,2.2,5.2,5.6c0,3.4-2.5,5.6-5.2,5.6 C1000.8,386.6,999.6,386,998.9,384.9z M1004.7,381c0-1.7-1.3-3-3-3c-1.7,0-3,1.4-3,3c0,1.7,1.3,3,3,3 C1003.4,384,1004.7,382.7,1004.7,381z"></path> <path class="st5" d="M1008.9,381c0-3.1,2.5-5.6,5.7-5.6c3.2,0,5.7,2.5,5.7,5.6c0,3.1-2.5,5.6-5.7,5.6 C1011.4,386.6,1008.9,384.1,1008.9,381z M1017.6,381c0-1.7-1.3-3-3-3c-1.7,0-3,1.3-3,3c0,1.7,1.3,3,3,3 C1016.3,384,1017.6,382.7,1017.6,381z"></path> <path class="st5" d="M1021.8,381c0-3.4,2.5-5.6,5.2-5.6c1.4,0,2.6,0.6,3.3,1.6v-1.4h2.7v10.8h-2.7v-1.5c-0.8,1.1-2,1.7-3.4,1.7 C1024.4,386.6,1021.8,384.4,1021.8,381z M1030.6,381c0-1.7-1.3-3-3-3c-1.7,0-3,1.3-3,3s1.3,3,3,3 C1029.3,384,1030.6,382.7,1030.6,381z"></path> <path class="st5" d="M1035.3,375.6h2.7v1.7c0.5-1.3,1.6-1.9,3-1.9c0.7,0,1.4,0.2,1.8,0.4l-1,2.7c-0.3-0.2-0.8-0.4-1.4-0.4 c-1.4,0-2.3,0.7-2.3,2.5v5.7h-2.7V375.6z"></path> <path class="st5" d="M1043,381c0-3.4,2.5-5.6,5.2-5.6c1.4,0,2.6,0.6,3.3,1.6v-6.4h2.7v15.8h-2.7v-1.5c-0.8,1.1-2,1.7-3.4,1.7 C1045.6,386.6,1043,384.4,1043,381z M1051.8,381c0-1.7-1.3-3-3-3c-1.7,0-3,1.3-3,3s1.3,3,3,3C1050.5,384,1051.8,382.7,1051.8,381z "></path> </g> </g> <g> <path class="st5" d="M186.6,347.8h2.7l4.3,6l4.5-6h2.6v14.6H198v-10.2l-4.4,5.9l-4.3-5.8v10.1h-2.8V347.8z"></path> <path class="st5" d="M207,350.4H203v-2.6h10.9v2.6h-4v12H207V350.4z"></path> <path class="st5" d="M159.9,383.6l2.5-2c1,1.5,2.3,2.3,4,2.3c1.6,0,2.4-0.8,2.4-1.8c0-1.4-1.4-1.6-3.4-2.1 c-2.2-0.5-4.6-1.2-4.6-4.1c0-2.4,2.1-4.3,5.2-4.3c2.6,0,4.2,0.9,5.7,2.5l-2.3,1.8c-0.8-1.1-1.7-1.8-3.4-1.8c-1.6,0-2.3,0.8-2.3,1.7 c0,1.2,1.5,1.4,3.3,1.8c2.2,0.5,4.8,1.2,4.8,4.4c0,2.5-2.1,4.6-5.4,4.6C163.2,386.6,161.3,385.4,159.9,383.6z"></path> <path class="st5" d="M173.3,381c0-3.1,2.4-5.6,5.7-5.6c3.2,0,5.6,2.3,5.6,5.5v1H176c0.4,1.4,1.5,2.3,3.1,2.3c1.3,0,2.1-0.6,2.7-1.4 l2.3,1.3c-1.1,1.5-2.6,2.5-5,2.5C175.6,386.6,173.3,384.2,173.3,381z M176.1,379.8h5.8c-0.4-1.3-1.4-2.1-2.8-2.1 C177.6,377.7,176.5,378.5,176.1,379.8z"></path> <path class="st5" d="M186.4,375.6h2.8v1.4c0.7-1,1.8-1.6,3.2-1.6c2.6,0,4.2,1.7,4.2,4.5v6.5h-2.8v-6.1c0-1.5-0.7-2.5-2.2-2.5 c-1.3,0-2.3,1-2.3,2.6v6h-2.8V375.6z"></path> <path class="st5" d="M197.9,383.9l2.7-1c0.5,1,1.3,1.5,2.5,1.5c1.1,0,1.7-0.5,1.7-1.2c0-0.8-1.2-1-2.5-1.2 c-1.8-0.4-3.8-0.9-3.8-3.2c0-1.8,1.8-3.4,4.4-3.4c2.3,0,3.6,0.9,4.6,2.3l-2.5,1c-0.4-0.7-1.1-1.1-2.1-1.1c-1.1,0-1.6,0.4-1.6,1 c0,0.7,0.9,0.9,2.5,1.2c1.8,0.4,3.9,1,3.9,3.3c0,1.7-1.5,3.6-4.6,3.6C200.3,386.6,198.7,385.7,197.9,383.9z"></path> <path class="st5" d="M208.9,381c0-3.1,2.5-5.6,5.7-5.6c3.2,0,5.7,2.5,5.7,5.6c0,3.1-2.5,5.6-5.7,5.6 C211.4,386.6,208.9,384.1,208.9,381z M217.6,381c0-1.7-1.3-3-3-3c-1.7,0-3,1.3-3,3c0,1.7,1.3,3,3,3 C216.3,384,217.6,382.7,217.6,381z"></path> <path class="st5" d="M222.1,375.6h2.7v1.7c0.5-1.3,1.6-1.9,3-1.9c0.7,0,1.4,0.2,1.8,0.4l-1,2.7c-0.3-0.2-0.8-0.4-1.4-0.4 c-1.4,0-2.3,0.7-2.3,2.5v5.7h-2.7V375.6z"></path> <path class="st5" d="M229.9,383.9l2.7-1c0.5,1,1.3,1.5,2.5,1.5c1.1,0,1.7-0.5,1.7-1.2c0-0.8-1.2-1-2.5-1.2 c-1.8-0.4-3.8-0.9-3.8-3.2c0-1.8,1.8-3.4,4.4-3.4c2.3,0,3.6,0.9,4.6,2.3l-2.5,1c-0.4-0.7-1.1-1.1-2.1-1.1c-1.1,0-1.6,0.4-1.6,1 c0,0.7,0.9,0.9,2.5,1.2c1.8,0.4,3.9,1,3.9,3.3c0,1.7-1.5,3.6-4.6,3.6C232.4,386.6,230.8,385.7,229.9,383.9z"></path> </g> </svg> 