<?xml version="1.0" encoding="UTF-8"?> <!-- Generator: Adobe Illustrator 24.3.0, SVG Export Plug-In . SVG Version: 6.00 Build 0) --> <svg xmlns="http://www.w3.org/2000/svg" xmlns:xlink="http://www.w3.org/1999/xlink" version="1.1" id="screenshot" x="0px" y="0px" viewBox="0 0 616.5 340" style="enable-background:new 0 0 616.5 340;" xml:space="preserve"> <style type="text/css"> .st0{fill:#e07525;} .st1{fill:#F2F2F2;} .st2{fill:#404241;} .st3{fill:#FFFFFF;} .st4{fill:#D85656;} .st5{fill:#FFCD00;} .st6{fill:none;stroke:#D85656;stroke-width:0.7873;stroke-linecap:round;stroke-linejoin:round;stroke-miterlimit:10;} .st7{enable-background:new ;} .st8{fill:#898B8E;} .st9{fill:none;stroke:#404241;stroke-width:0.7335;stroke-miterlimit:10;} .st10{fill:none;stroke:#F2F2F2;stroke-width:0.7335;stroke-miterlimit:10;} .st11{fill:#5576D1;} .st12{fill:none;stroke:#67B346;stroke-width:0.7873;stroke-linecap:round;stroke-linejoin:round;stroke-miterlimit:10;} .st13{fill:none;stroke:#C9C9C9;stroke-width:0.7335;stroke-miterlimit:10;} .st14{fill:none;stroke:#F2F2F2;stroke-width:0.7921;stroke-miterlimit:10;} .st15{fill:none;stroke:#D85656;stroke-width:0.9535;stroke-linecap:round;stroke-linejoin:round;} .st16{fill:none;stroke:#D85656;stroke-width:0.9535;stroke-linecap:round;stroke-linejoin:round;stroke-dasharray:0,3.8152;} .st17{fill:none;stroke:#5576D1;stroke-width:0.8997;stroke-linecap:round;stroke-linejoin:round;stroke-miterlimit:10;} .st18{fill:#EAEAEA;} </style> <path class="st0" d="M601,301.3H49.8c-3.2,0-5.7-2.6-5.7-5.7V15.8c0-3.2,2.6-5.7,5.7-5.7H601c3.2,0,5.7,2.6,5.7,5.7v279.8 C606.7,298.8,604.1,301.3,601,301.3z"></path> <g> <g> <path class="st1" d="M585,317.3H33.8c-3.2,0-5.7-2.6-5.7-5.7V31.8c0-3.2,2.6-5.7,5.7-5.7H585c3.2,0,5.7,2.6,5.7,5.7v279.8 C590.7,314.8,588.1,317.3,585,317.3z"></path> <g> <path class="st2" d="M125.8,317.5h-92c-3.2,0-5.7-2.6-5.7-5.7v-280c0-3.2,2.6-5.7,5.7-5.7h92V317.5z"></path> <g> <g> <g> <rect x="49.8" y="63.5" class="st3" width="1.1" height="4.4"></rect> <path class="st3" d="M59.9,64.7c0,0-0.4-0.2-0.9-0.2c-0.7,0-1.2,0.5-1.2,1.2s0.5,1.2,1.2,1.2c0.5,0,0.9-0.2,0.9-0.2v1.2 c-0.1,0-0.5,0.2-1,0.2c-1.3,0-2.4-0.9-2.4-2.3c0-1.3,1-2.3,2.4-2.3c0.5,0,0.9,0.1,1,0.2V64.7z"></path> <path class="st3" d="M48.2,64.7c0,0-0.4-0.2-0.9-0.2c-0.7,0-1.2,0.5-1.2,1.2s0.5,1.2,1.2,1.2c0.5,0,0.9-0.2,0.9-0.2v1.2 c-0.1,0-0.5,0.2-1,0.2c-1.3,0-2.4-0.9-2.4-2.3c0-1.3,1-2.3,2.4-2.3c0.5,0,0.9,0.1,1,0.2V64.7z"></path> <path class="st3" d="M63.4,64.5c-0.7,0-1.2,0.5-1.2,1.2c0,0.6,0.5,1.2,1.2,1.2c0.7,0,1.2-0.5,1.2-1.2S64.1,64.5,63.4,64.5 M65.8,65.7c0,1.3-1,2.3-2.3,2.3c-1.4,0-2.3-1-2.3-2.3s1-2.3,2.3-2.3C64.8,63.4,65.8,64.4,65.8,65.7"></path> <path class="st3" d="M55.1,64.5c0,0-0.5-0.1-0.9-0.1s-0.7,0.1-0.7,0.4s0.3,0.4,0.5,0.4l0.3,0.1c0.7,0.2,1.1,0.7,1.1,1.3 c0,1.1-1,1.5-1.8,1.5c-0.6,0-1.2-0.1-1.2-0.1v-1c0.1,0,0.6,0.2,1.1,0.2c0.6,0,0.8-0.2,0.8-0.4c0-0.2-0.2-0.4-0.5-0.4 c-0.1,0-0.2-0.1-0.2-0.1c-0.6-0.2-1.1-0.6-1.1-1.3c0-0.8,0.6-1.4,1.7-1.4c0.5,0,1.1,0.1,1.1,0.1v0.8H55.1z"></path> <path class="st3" d="M43.7,58.7c0-0.3-0.2-0.6-0.6-0.6c-0.3,0-0.6,0.2-0.6,0.6v1.2c0,0.3,0.3,0.6,0.6,0.6s0.6-0.2,0.6-0.6 V58.7z"></path> <path class="st3" d="M46.7,57.2c0-0.3-0.2-0.6-0.6-0.6c-0.3,0-0.6,0.2-0.6,0.6v2.7c0,0.3,0.2,0.6,0.6,0.6 c0.3,0,0.6-0.2,0.6-0.6V57.2z"></path> <path class="st3" d="M49.8,55.1c0-0.3-0.2-0.6-0.6-0.6c-0.3,0-0.6,0.2-0.6,0.6V61c0,0.3,0.3,0.6,0.6,0.6s0.6-0.2,0.6-0.6V55.1 z"></path> <path class="st3" d="M52.8,57.2c0-0.3-0.2-0.6-0.6-0.6c-0.3,0-0.6,0.2-0.6,0.6v2.7c0,0.3,0.2,0.6,0.6,0.6 c0.3,0,0.6-0.2,0.6-0.6V57.2z"></path> <path class="st3" d="M55.9,58.7c0-0.3-0.2-0.6-0.6-0.6c-0.3,0-0.6,0.2-0.6,0.6v1.2c0,0.3,0.2,0.6,0.6,0.6 c0.3,0,0.6-0.2,0.6-0.6V58.7z"></path> <path class="st3" d="M58.9,57.2c0-0.3-0.2-0.6-0.6-0.6c-0.3,0-0.6,0.2-0.6,0.6v2.7c0,0.3,0.2,0.6,0.6,0.6 c0.3,0,0.6-0.2,0.6-0.6V57.2z"></path> <path class="st3" d="M62,55.1c0-0.3-0.2-0.6-0.6-0.6c-0.3,0-0.6,0.2-0.6,0.6V61c0,0.3,0.3,0.6,0.6,0.6S62,61.4,62,61V55.1z"></path> <path class="st3" d="M65,57.2c0-0.3-0.2-0.6-0.6-0.6c-0.3,0-0.6,0.2-0.6,0.6v2.7c0,0.3,0.3,0.6,0.6,0.6c0.3,0,0.6-0.2,0.6-0.6 V57.2z"></path> <path class="st3" d="M68.1,58.7c0-0.3-0.2-0.6-0.6-0.6c-0.3,0-0.6,0.2-0.6,0.6v1.2c0,0.3,0.2,0.6,0.6,0.6 c0.3,0,0.6-0.2,0.6-0.6V58.7z"></path> </g> <g> <path class="st3" d="M79.7,67.9l-3.5-8.5v8.5h-0.7v-9.5h1.1l3.5,8.7l3.3-8.7h1.1v9.5h-0.7v-8.5l-3.3,8.5 C80.5,67.9,79.7,67.9,79.7,67.9z"></path> <path class="st3" d="M92.2,66c-0.3,1.3-1.4,2.1-2.9,2.1c-1.9,0-3.3-1.3-3.3-3.6c0-2.4,1.4-3.6,3.1-3.6c1.8,0,3.1,1.2,3.1,3.8 h-5.5c0.1,2,1.2,2.9,2.6,2.9c1,0,1.8-0.6,2.1-1.5h0.8C92.2,66.1,92.2,66,92.2,66z M86.8,64h4.8c-0.1-1.8-1.1-2.6-2.4-2.6 S86.9,62.3,86.8,64z"></path> <path class="st3" d="M93.9,67.9V61h0.6l0.1,1.3c0.4-1,1.1-1.5,1.9-1.5c0.3,0,0.6,0.1,0.7,0.1v0.7c-0.2-0.1-0.5-0.1-0.8-0.1 c-1,0-1.9,1-1.9,2.6v3.8H93.9z"></path> <path class="st3" d="M98.2,62.8c0.1-1.2,1.1-2,2.7-2c1.5,0,2.5,0.9,2.5,2.3v4.8h-0.6l-0.1-1.1c-0.4,0.7-1.2,1.3-2.4,1.3 c-1.3,0-2.3-0.7-2.3-1.9c0-1.2,0.7-1.9,2.6-2.2l2.1-0.3V63c0-1-0.7-1.6-1.9-1.6c-1.1,0-1.8,0.6-1.9,1.4 C98.9,62.8,98.2,62.8,98.2,62.8z M102.7,65.5v-1.3l-1.8,0.3c-1.6,0.3-2.1,0.8-2.1,1.6c0,0.9,0.7,1.4,1.7,1.4 C101.6,67.5,102.7,66.7,102.7,65.5z"></path> <path class="st3" d="M105.2,67.9v-9.5h0.7v5.4l3.3-2.8h1l-3.5,3l4,3.9h-1l-3.7-3.6v3.6H105.2z"></path> <path class="st3" d="M111.5,59.4v-1h0.9v1H111.5z M111.6,67.9V61h0.7v6.9H111.6z"></path> </g> </g> <g> <circle class="st4" cx="39.7" cy="36.4" r="2.5"></circle> <circle class="st5" cx="47.6" cy="36.4" r="2.5"></circle> <circle class="st0" cx="55.6" cy="36.4" r="2.5"></circle> </g> </g> </g> </g> <g> <g> <g> <path class="st3" d="M249.5,157.2H155c-0.8,0-1.5-0.7-1.5-1.5V78.5c0-0.8,0.7-1.5,1.5-1.5h94.5c0.8,0,1.5,0.7,1.5,1.5v77.2 C250.9,156.6,250.3,157.2,249.5,157.2z"></path> </g> <g> <circle class="st6" cx="178.1" cy="117.9" r="7"></circle> <path id="exclamation-mark_12_" class="st4" d="M178.1,120.4L178.1,120.4c-0.3,0-0.5-0.2-0.5-0.5l-0.3-6.2 c0-0.5,0.4-0.8,0.8-0.8c0.5,0,0.8,0.4,0.8,0.8l-0.3,6.2C178.6,120.2,178.3,120.4,178.1,120.4L178.1,120.4z M177.3,122.2 c0,0.4,0.4,0.8,0.8,0.8c0.4,0,0.8-0.4,0.8-0.8s-0.4-0.8-0.8-0.8C177.7,121.4,177.3,121.7,177.3,122.2z"></path> </g> <g> <g class="st7"> <path class="st2" d="M197.4,124.7h-1.9v-12.6l-3.8,1.4v-1.7l5.4-2h0.3V124.7z"></path> </g> </g> <g> <g class="st7"> <path class="st2" d="M179.8,92.4h-1.6v4.3h-1.1v-4.3h-1.6v-0.9h4.2v0.9H179.8z"></path> <path class="st2" d="M182.1,96.8c-0.6,0-1-0.2-1.4-0.5s-0.5-0.8-0.5-1.4v-0.1c0-0.4,0.1-0.7,0.2-1c0.2-0.3,0.4-0.5,0.6-0.7 c0.3-0.2,0.6-0.2,0.9-0.2c0.5,0,0.9,0.2,1.3,0.5c0.3,0.3,0.5,0.8,0.5,1.4v0.4h-2.5c0,0.3,0.1,0.5,0.3,0.6 c0.2,0.2,0.4,0.2,0.6,0.2c0.4,0,0.7-0.1,0.9-0.4l0.5,0.6c-0.2,0.2-0.4,0.4-0.6,0.5C182.7,96.7,182.4,96.8,182.1,96.8z M182,93.6c-0.2,0-0.4,0.1-0.5,0.2s-0.2,0.3-0.2,0.6h1.4v-0.1c0-0.2-0.1-0.4-0.2-0.5C182.4,93.7,182.2,93.6,182,93.6z"></path> <path class="st2" d="M185.3,92.8v0.4c0.3-0.3,0.6-0.5,1.1-0.5s0.8,0.2,1,0.6c0.3-0.4,0.7-0.6,1.2-0.6c0.4,0,0.7,0.1,0.9,0.4 c0.2,0.2,0.3,0.6,0.3,1.1v2.5h-1v-2.5c0-0.2,0-0.4-0.1-0.5s-0.2-0.2-0.5-0.2s-0.5,0.1-0.6,0.4v2.7h-1v-2.5c0-0.2,0-0.4-0.1-0.5 s-0.2-0.2-0.5-0.2s-0.5,0.1-0.6,0.4v2.7h-1v-3.9h0.9V92.8z"></path> <path class="st2" d="M194.1,94.8c0,0.6-0.1,1.1-0.4,1.4s-0.6,0.5-1.1,0.5c-0.4,0-0.7-0.1-0.9-0.4v1.8h-1v-5.4h1v0.4 c0.3-0.3,0.6-0.5,1-0.5c0.5,0,0.8,0.2,1.1,0.5C194,93.6,194.1,94.1,194.1,94.8L194.1,94.8z M193.1,94.7c0-0.4-0.1-0.6-0.2-0.8 c-0.1-0.2-0.3-0.3-0.6-0.3s-0.5,0.1-0.7,0.4v1.6c0.1,0.3,0.4,0.4,0.7,0.4C192.8,95.9,193.1,95.5,193.1,94.7z"></path> <path class="st2" d="M196.6,96.8c-0.6,0-1-0.2-1.4-0.5s-0.5-0.8-0.5-1.4v-0.1c0-0.4,0.1-0.7,0.2-1c0.2-0.3,0.4-0.5,0.6-0.7 c0.3-0.2,0.6-0.2,0.9-0.2c0.5,0,0.9,0.2,1.3,0.5c0.3,0.3,0.5,0.8,0.5,1.4v0.4h-2.5c0,0.3,0.1,0.5,0.3,0.6 c0.2,0.2,0.4,0.2,0.6,0.2c0.4,0,0.7-0.1,0.9-0.4l0.5,0.6c-0.2,0.2-0.4,0.4-0.6,0.5C197.2,96.7,196.9,96.8,196.6,96.8z M196.4,93.6c-0.2,0-0.4,0.1-0.5,0.2s-0.2,0.3-0.2,0.6h1.4v-0.1c0-0.2-0.1-0.4-0.2-0.5S196.7,93.6,196.4,93.6z"></path> <path class="st2" d="M200.9,93.8c-0.1,0-0.3,0-0.4,0c-0.4,0-0.6,0.1-0.8,0.4v2.5h-1v-3.9h1v0.5c0.2-0.4,0.5-0.5,0.9-0.5 c0.1,0,0.2,0,0.3,0V93.8z"></path> <path class="st2" d="M203.5,96.7c0-0.1-0.1-0.2-0.1-0.3c-0.3,0.3-0.6,0.4-1,0.4s-0.7-0.1-0.9-0.3s-0.4-0.5-0.4-0.8 c0-0.4,0.2-0.7,0.5-0.9c0.3-0.2,0.7-0.3,1.3-0.3h0.5v-0.2c0-0.2,0-0.3-0.1-0.4s-0.2-0.2-0.4-0.2s-0.3,0-0.4,0.1 c-0.1,0.1-0.1,0.2-0.1,0.3h-1c0-0.2,0.1-0.4,0.2-0.6c0.1-0.2,0.3-0.3,0.6-0.4s0.5-0.2,0.9-0.2c0.5,0,0.9,0.1,1.1,0.4 s0.4,0.6,0.4,1V96c0,0.4,0.1,0.6,0.2,0.8v0.1h-1.3V96.7z M202.7,96c0.2,0,0.3,0,0.4-0.1c0.1-0.1,0.2-0.2,0.3-0.3v-0.7H203 c-0.5,0-0.8,0.2-0.8,0.5v0.1c0,0.1,0,0.2,0.1,0.3C202.4,95.9,202.5,96,202.7,96z"></path> <path class="st2" d="M206.5,91.9v1h0.7v0.8h-0.7v1.9c0,0.1,0,0.2,0.1,0.3c0.1,0.1,0.2,0.1,0.3,0.1s0.2,0,0.3,0v0.8 c-0.2,0.1-0.4,0.1-0.6,0.1c-0.7,0-1.1-0.4-1.1-1.1v-2.1h-0.6v-0.8h0.6v-1C205.5,91.9,206.5,91.9,206.5,91.9z"></path> <path class="st2" d="M210,96.3c-0.3,0.3-0.6,0.5-1.1,0.5c-0.4,0-0.7-0.1-1-0.4c-0.2-0.2-0.3-0.6-0.3-1v-2.5h1v2.5 c0,0.4,0.2,0.6,0.6,0.6c0.4,0,0.6-0.1,0.7-0.4v-2.7h1v3.9h-1L210,96.3z"></path> <path class="st2" d="M214,93.8c-0.1,0-0.3,0-0.4,0c-0.4,0-0.6,0.1-0.8,0.4v2.5h-1v-3.9h1v0.5c0.2-0.4,0.5-0.5,0.9-0.5 c0.1,0,0.2,0,0.3,0V93.8z"></path> <path class="st2" d="M216.3,96.8c-0.6,0-1-0.2-1.4-0.5s-0.5-0.8-0.5-1.4v-0.1c0-0.4,0.1-0.7,0.2-1c0.2-0.3,0.4-0.5,0.6-0.7 c0.3-0.2,0.6-0.2,0.9-0.2c0.5,0,0.9,0.2,1.3,0.5c0.3,0.3,0.5,0.8,0.5,1.4v0.4h-2.5c0,0.3,0.1,0.5,0.3,0.6 c0.2,0.2,0.4,0.2,0.6,0.2c0.4,0,0.7-0.1,0.9-0.4l0.5,0.6c-0.2,0.2-0.4,0.4-0.6,0.5C216.9,96.7,216.6,96.8,216.3,96.8z M216.2,93.6c-0.2,0-0.4,0.1-0.5,0.2s-0.2,0.3-0.2,0.6h1.4v-0.1c0-0.2-0.1-0.4-0.2-0.5C216.5,93.7,216.4,93.6,216.2,93.6z"></path> </g> </g> <g class="st7"> <path class="st8" d="M206,124.7c0-0.1-0.1-0.2-0.1-0.4c-0.3,0.3-0.7,0.5-1.1,0.5c-0.4,0-0.8-0.1-1.1-0.4 c-0.3-0.2-0.4-0.6-0.4-0.9c0-0.5,0.2-0.8,0.5-1.1c0.3-0.2,0.8-0.4,1.5-0.4h0.6v-0.3c0-0.2-0.1-0.4-0.2-0.5 c-0.1-0.1-0.3-0.2-0.6-0.2c-0.2,0-0.4,0.1-0.5,0.2s-0.2,0.3-0.2,0.4h-1c0-0.2,0.1-0.5,0.2-0.7c0.2-0.2,0.4-0.4,0.6-0.5 s0.6-0.2,0.9-0.2c0.5,0,0.9,0.1,1.2,0.4s0.5,0.6,0.5,1.1v2c0,0.4,0.1,0.7,0.2,0.9v0.1H206z M204.9,124c0.2,0,0.4,0,0.5-0.1 s0.3-0.2,0.4-0.4v-0.8h-0.5c-0.4,0-0.6,0.1-0.8,0.2s-0.3,0.3-0.3,0.5s0.1,0.3,0.2,0.4C204.5,123.9,204.7,124,204.9,124z"></path> <path class="st8" d="M208.9,124.7h-1v-6.2h1V124.7z"></path> <path class="st8" d="M211.9,124.8c-0.6,0-1.1-0.2-1.5-0.6s-0.6-0.9-0.6-1.6v-0.1c0-0.4,0.1-0.8,0.3-1.2c0.2-0.3,0.4-0.6,0.7-0.8 s0.6-0.3,1-0.3c0.6,0,1.1,0.2,1.4,0.6c0.3,0.4,0.5,0.9,0.5,1.6v0.4h-2.8c0,0.4,0.1,0.6,0.4,0.9c0.2,0.2,0.5,0.3,0.8,0.3 c0.4,0,0.8-0.2,1.1-0.5l0.5,0.5c-0.2,0.3-0.4,0.5-0.7,0.6C212.6,124.7,212.2,124.8,211.9,124.8z M211.7,121.1 c-0.3,0-0.5,0.1-0.7,0.3c-0.2,0.2-0.3,0.5-0.3,0.8h1.9V122c0-0.3-0.1-0.6-0.3-0.7C212.2,121.1,212,121.1,211.7,121.1z"></path> <path class="st8" d="M216.6,121.2c-0.1,0-0.3,0-0.4,0c-0.4,0-0.8,0.2-0.9,0.5v3h-1v-4.4h0.9v0.5c0.2-0.4,0.6-0.6,1-0.6 c0.1,0,0.3,0,0.3,0.1L216.6,121.2z"></path> <path class="st8" d="M218.7,119.3v1.1h0.8v0.7h-0.8v2.4c0,0.2,0,0.3,0.1,0.4s0.2,0.1,0.4,0.1c0.1,0,0.2,0,0.3,0v0.8 c-0.2,0.1-0.4,0.1-0.6,0.1c-0.8,0-1.1-0.4-1.1-1.2v-2.5H217v-0.7h0.7v-1.1h1V119.3z"></path> <path class="st8" d="M220.2,119.2c0-0.1,0-0.3,0.1-0.4s0.2-0.1,0.4-0.1s0.3,0,0.4,0.1c0.1,0.1,0.1,0.2,0.1,0.4 c0,0.1,0,0.3-0.1,0.4s-0.2,0.1-0.4,0.1s-0.3,0-0.4-0.1C220.3,119.5,220.2,119.4,220.2,119.2z M221.3,124.7h-1v-4.4h1V124.7z"></path> <path class="st8" d="M223.2,120.3v0.5c0.3-0.4,0.7-0.6,1.3-0.6c0.9,0,1.4,0.5,1.4,1.6v2.9h-1v-2.8c0-0.3-0.1-0.5-0.2-0.6 s-0.3-0.2-0.6-0.2c-0.4,0-0.7,0.2-0.9,0.5v3.1h-1v-4.4H223.2z"></path> <path class="st8" d="M226.7,122.5c0-0.7,0.2-1.2,0.5-1.6s0.7-0.6,1.3-0.6c0.5,0,0.9,0.2,1.2,0.5v-0.4h0.9v4.2 c0,0.6-0.2,1-0.5,1.4s-0.8,0.5-1.4,0.5c-0.3,0-0.6-0.1-0.9-0.2s-0.5-0.3-0.7-0.5l0.5-0.6c0.3,0.4,0.7,0.5,1.1,0.5 c0.3,0,0.6-0.1,0.8-0.3c0.2-0.2,0.3-0.4,0.3-0.8v-0.3c-0.3,0.3-0.7,0.5-1.1,0.5c-0.5,0-0.9-0.2-1.2-0.6 C226.9,123.8,226.7,123.2,226.7,122.5z M227.7,122.6c0,0.4,0.1,0.8,0.3,1s0.4,0.4,0.7,0.4c0.4,0,0.7-0.2,0.9-0.5v-1.9 c-0.2-0.3-0.5-0.5-0.9-0.5c-0.3,0-0.6,0.1-0.8,0.4S227.7,122.1,227.7,122.6z"></path> </g> <path class="st9" d="M164.1,117.6"></path> <line class="st10" x1="153.5" y1="134.2" x2="250.9" y2="134.2"></line> <g> <g> <g class="st7"> <path class="st11" d="M195.9,146.7l1.2-3.9h1.2l-1.8,5.2h-1.1l-1.8-5.2h1.2L195.9,146.7z"></path> <path class="st11" d="M200,148h-1.1v-5.2h1.1V148z"></path> <path class="st11" d="M204.1,145.7H202v1.4h2.4v0.9h-3.5v-5.2h3.5v0.9H202v1.2h2.1V145.7z"></path> <path class="st11" d="M209.1,146.5l0.7-3.7h1.1l-1.2,5.2h-1.1l-0.8-3.5L207,148h-1.1l-1.2-5.2h1.1l0.7,3.7l0.9-3.7h0.9 L209.1,146.5z"></path> </g> </g> </g> </g> <g> <g> <path class="st3" d="M356.4,157.2h-94.5c-0.8,0-1.5-0.7-1.5-1.5V78.5c0-0.8,0.7-1.5,1.5-1.5h94.5c0.8,0,1.5,0.7,1.5,1.5v77.2 C357.9,156.6,357.3,157.2,356.4,157.2z"></path> </g> <g> <g> <circle class="st12" cx="285.1" cy="117.9" r="7"></circle> </g> <g id="icon-check-mark_4_"> <polyline id="check-mark_4_" class="st12" points="281.4,118.9 283.4,121 289.1,115.3 "></polyline> </g> </g> <g> <g class="st7"> <path class="st2" d="M307.5,118.3c0,2.2-0.4,3.9-1.1,4.9c-0.8,1.1-1.9,1.6-3.6,1.6c-1.6,0-2.8-0.5-3.5-1.6 c-0.8-1.1-1.2-2.6-1.2-4.7V116c0-2.2,0.4-3.8,1.1-4.9c0.8-1.1,1.9-1.6,3.6-1.6c1.6,0,2.8,0.5,3.5,1.5c0.8,1,1.1,2.6,1.2,4.8 V118.3z M305.6,115.8c0-1.6-0.2-2.8-0.7-3.5s-1.2-1.1-2.1-1.1c-1,0-1.7,0.4-2.1,1.1s-0.7,1.9-0.7,3.4v3c0,1.6,0.2,2.8,0.7,3.6 s1.2,1.2,2.1,1.2s1.6-0.4,2.1-1.1s0.7-1.9,0.7-3.4V115.8z"></path> </g> </g> <g> <g class="st7"> <path class="st2" d="M296.1,96.7H295v-2.2h-2.1v2.2h-1.1v-5.2h1.1v2.1h2.1v-2.1h1.1V96.7z"></path> <path class="st2" d="M299.3,96.3c-0.3,0.3-0.6,0.5-1.1,0.5c-0.4,0-0.7-0.1-1-0.4c-0.2-0.2-0.3-0.6-0.3-1v-2.5h1v2.5 c0,0.4,0.2,0.6,0.6,0.6s0.6-0.1,0.7-0.4v-2.7h1v3.9h-1L299.3,96.3z"></path> <path class="st2" d="M302.1,92.8v0.4c0.3-0.3,0.6-0.5,1.1-0.5s0.8,0.2,1,0.6c0.3-0.4,0.7-0.6,1.2-0.6c0.4,0,0.7,0.1,0.9,0.4 c0.2,0.2,0.3,0.6,0.3,1.1v2.5h-1v-2.5c0-0.2,0-0.4-0.1-0.5s-0.2-0.2-0.5-0.2s-0.5,0.1-0.6,0.4v2.7h-1v-2.5c0-0.2,0-0.4-0.1-0.5 s-0.2-0.2-0.5-0.2s-0.5,0.1-0.6,0.4v2.7h-1v-3.9h0.9V92.8z"></path> <path class="st2" d="M307.4,91.8c0-0.2,0.1-0.3,0.2-0.4s0.2-0.2,0.4-0.2c0.2,0,0.3,0.1,0.4,0.2s0.2,0.2,0.2,0.4 c0,0.2-0.1,0.3-0.2,0.4s-0.2,0.2-0.4,0.2s-0.3-0.1-0.4-0.2C307.5,92.1,307.4,92,307.4,91.8z M308.5,96.7h-1v-3.9h1V96.7z"></path> <path class="st2" d="M309.2,94.7c0-0.6,0.1-1.1,0.4-1.4c0.3-0.4,0.6-0.5,1.1-0.5c0.4,0,0.7,0.1,0.9,0.4v-2h1v5.5h-0.9l-0.1-0.4 c-0.3,0.3-0.6,0.5-1,0.5c-0.5,0-0.8-0.2-1.1-0.5C309.4,95.9,309.2,95.4,309.2,94.7z M310.3,94.8c0,0.4,0.1,0.6,0.2,0.8 c0.1,0.2,0.3,0.3,0.6,0.3c0.3,0,0.5-0.1,0.7-0.4V94c-0.1-0.3-0.4-0.4-0.7-0.4C310.5,93.6,310.3,94,310.3,94.8z"></path> <path class="st2" d="M313.5,91.8c0-0.2,0.1-0.3,0.2-0.4s0.2-0.2,0.4-0.2c0.2,0,0.3,0.1,0.4,0.2s0.2,0.2,0.2,0.4 c0,0.2-0.1,0.3-0.2,0.4s-0.2,0.2-0.4,0.2c-0.2,0-0.3-0.1-0.4-0.2C313.6,92.1,313.5,92,313.5,91.8z M314.6,96.7h-1v-3.9h1V96.7z "></path> <path class="st2" d="M316.7,91.9v1h0.7v0.8h-0.7v1.9c0,0.1,0,0.2,0.1,0.3c0.1,0.1,0.2,0.1,0.3,0.1c0.1,0,0.2,0,0.3,0v0.8 c-0.2,0.1-0.4,0.1-0.6,0.1c-0.7,0-1.1-0.4-1.1-1.1v-2.1h-0.6v-0.8h0.6v-1C315.7,91.9,316.7,91.9,316.7,91.9z"></path> <path class="st2" d="M319.4,95.2l0.7-2.4h1.1l-1.6,4.5l-0.1,0.2c-0.2,0.5-0.6,0.8-1.1,0.8c-0.2,0-0.3,0-0.5-0.1v-0.8h0.2 c0.2,0,0.3,0,0.4-0.1s0.2-0.2,0.2-0.3l0.1-0.3l-1.4-3.9h1.1L319.4,95.2z"></path> </g> </g> <g class="st7"> <path class="st8" d="M313,124.7c0-0.1-0.1-0.2-0.1-0.4c-0.3,0.3-0.7,0.5-1.1,0.5s-0.8-0.1-1.1-0.4c-0.3-0.2-0.4-0.6-0.4-0.9 c0-0.5,0.2-0.8,0.5-1.1c0.3-0.2,0.8-0.4,1.5-0.4h0.6v-0.3c0-0.2-0.1-0.4-0.2-0.5s-0.3-0.2-0.6-0.2c-0.2,0-0.4,0.1-0.5,0.2 s-0.2,0.3-0.2,0.4h-1c0-0.2,0.1-0.5,0.2-0.7s0.4-0.4,0.6-0.5c0.3-0.1,0.6-0.2,0.9-0.2c0.5,0,0.9,0.1,1.2,0.4 c0.3,0.3,0.5,0.6,0.5,1.1v2c0,0.4,0.1,0.7,0.2,0.9v0.1H313z M311.9,124c0.2,0,0.4,0,0.5-0.1s0.3-0.2,0.4-0.4v-0.8h-0.5 c-0.4,0-0.6,0.1-0.8,0.2c-0.2,0.1-0.3,0.3-0.3,0.5s0.1,0.3,0.2,0.4C311.5,123.9,311.7,124,311.9,124z"></path> <path class="st8" d="M315.9,124.7h-1v-6.2h1V124.7z"></path> <path class="st8" d="M318.8,124.8c-0.6,0-1.1-0.2-1.5-0.6s-0.6-0.9-0.6-1.6v-0.1c0-0.4,0.1-0.8,0.3-1.2c0.2-0.3,0.4-0.6,0.7-0.8 c0.3-0.2,0.6-0.3,1-0.3c0.6,0,1.1,0.2,1.4,0.6s0.5,0.9,0.5,1.6v0.4h-2.8c0,0.4,0.1,0.6,0.4,0.9s0.5,0.3,0.8,0.3 c0.4,0,0.8-0.2,1.1-0.5l0.5,0.5c-0.2,0.3-0.4,0.5-0.7,0.6C319.5,124.7,319.2,124.8,318.8,124.8z M318.7,121.1 c-0.3,0-0.5,0.1-0.7,0.3c-0.2,0.2-0.3,0.5-0.3,0.8h1.9V122c0-0.3-0.1-0.6-0.3-0.7C319.2,121.1,319,121.1,318.7,121.1z"></path> <path class="st8" d="M323.6,121.2c-0.1,0-0.3,0-0.4,0c-0.4,0-0.8,0.2-0.9,0.5v3h-1v-4.4h0.9v0.5c0.2-0.4,0.6-0.6,1-0.6 c0.1,0,0.3,0,0.3,0.1L323.6,121.2z"></path> <path class="st8" d="M325.7,119.3v1.1h0.8v0.7h-0.8v2.4c0,0.2,0,0.3,0.1,0.4s0.2,0.1,0.4,0.1c0.1,0,0.2,0,0.3,0v0.8 c-0.2,0.1-0.4,0.1-0.6,0.1c-0.8,0-1.1-0.4-1.1-1.2v-2.5H324v-0.7h0.7v-1.1h1V119.3z"></path> <path class="st8" d="M327.2,119.2c0-0.1,0-0.3,0.1-0.4s0.2-0.1,0.4-0.1c0.2,0,0.3,0,0.4,0.1s0.1,0.2,0.1,0.4 c0,0.1,0,0.3-0.1,0.4s-0.2,0.1-0.4,0.1c-0.2,0-0.3,0-0.4-0.1S327.2,119.4,327.2,119.2z M328.2,124.7h-1v-4.4h1V124.7z"></path> <path class="st8" d="M330.2,120.3v0.5c0.3-0.4,0.7-0.6,1.3-0.6c0.9,0,1.4,0.5,1.4,1.6v2.9h-1v-2.8c0-0.3-0.1-0.5-0.2-0.6 s-0.3-0.2-0.6-0.2c-0.4,0-0.7,0.2-0.9,0.5v3.1h-1v-4.4H330.2z"></path> <path class="st8" d="M333.7,122.5c0-0.7,0.2-1.2,0.5-1.6s0.7-0.6,1.3-0.6c0.5,0,0.9,0.2,1.2,0.5v-0.4h0.9v4.2 c0,0.6-0.2,1-0.5,1.4s-0.8,0.5-1.4,0.5c-0.3,0-0.6-0.1-0.9-0.2s-0.5-0.3-0.7-0.5l0.5-0.6c0.3,0.4,0.7,0.5,1.1,0.5 c0.3,0,0.6-0.1,0.8-0.3c0.2-0.2,0.3-0.4,0.3-0.8v-0.3c-0.3,0.3-0.7,0.5-1.1,0.5c-0.5,0-0.9-0.2-1.2-0.6 C333.9,123.8,333.7,123.2,333.7,122.5z M334.7,122.6c0,0.4,0.1,0.8,0.3,1c0.2,0.3,0.4,0.4,0.7,0.4c0.4,0,0.7-0.2,0.9-0.5v-1.9 c-0.2-0.3-0.5-0.5-0.9-0.5c-0.3,0-0.6,0.1-0.8,0.4C334.8,121.7,334.7,122.1,334.7,122.6z"></path> </g> <path class="st9" d="M271.1,117.6"></path> <line class="st10" x1="260.5" y1="134.2" x2="357.9" y2="134.2"></line> <g> <g> <g class="st7"> <path class="st11" d="M302.9,146.7l1.2-3.9h1.2l-1.8,5.2h-1.1l-1.8-5.2h1.2L302.9,146.7z"></path> <path class="st11" d="M306.9,148h-1.1v-5.2h1.1V148z"></path> <path class="st11" d="M311.1,145.7H309v1.4h2.4v0.9h-3.5v-5.2h3.5v0.9H309v1.2h2.1V145.7z"></path> <path class="st11" d="M316.1,146.5l0.7-3.7h1.1l-1.2,5.2h-1.1l-0.8-3.5L314,148h-1.1l-1.2-5.2h1.1l0.7,3.7l0.9-3.7h0.9 L316.1,146.5z"></path> </g> </g> </g> </g> <g> <g> <path class="st3" d="M463.4,157.2h-94.5c-0.8,0-1.5-0.7-1.5-1.5V78.5c0-0.8,0.7-1.5,1.5-1.5h94.5c0.8,0,1.5,0.7,1.5,1.5v77.2 C464.9,156.6,464.2,157.2,463.4,157.2z"></path> </g> <g> <circle class="st6" cx="392" cy="117.9" r="7"></circle> <path id="exclamation-mark_11_" class="st4" d="M392,120.4L392,120.4c-0.3,0-0.5-0.2-0.5-0.5l-0.3-6.2c0-0.5,0.4-0.8,0.8-0.8 c0.5,0,0.8,0.4,0.8,0.8l-0.3,6.2C392.5,120.2,392.3,120.4,392,120.4L392,120.4z M391.3,122.2c0,0.4,0.4,0.8,0.8,0.8 s0.8-0.4,0.8-0.8s-0.4-0.8-0.8-0.8S391.3,121.7,391.3,122.2z"></path> </g> <g> <g class="st7"> <path class="st2" d="M411.3,124.7h-1.9v-12.6l-3.8,1.4v-1.7l5.4-2h0.3V124.7z"></path> </g> </g> <g> <g class="st7"> <path class="st2" d="M407.5,95.3l0.5-2.5h1l-1,3.9h-0.9l-0.7-2.4l-0.7,2.4h-0.9l-1-3.9h1l0.5,2.5l0.7-2.5h0.7L407.5,95.3z"></path> <path class="st2" d="M411.8,96.7c0-0.1-0.1-0.2-0.1-0.3c-0.3,0.3-0.6,0.4-1,0.4s-0.7-0.1-0.9-0.3s-0.4-0.5-0.4-0.8 c0-0.4,0.2-0.7,0.5-0.9c0.3-0.2,0.7-0.3,1.3-0.3h0.5v-0.2c0-0.2,0-0.3-0.1-0.4s-0.2-0.2-0.4-0.2c-0.2,0-0.3,0-0.4,0.1 s-0.1,0.2-0.1,0.3h-1c0-0.2,0.1-0.4,0.2-0.6s0.3-0.3,0.6-0.4s0.5-0.2,0.9-0.2c0.5,0,0.9,0.1,1.1,0.4c0.3,0.2,0.4,0.6,0.4,1V96 c0,0.4,0.1,0.6,0.2,0.8v0.1h-1.3V96.7z M410.9,96c0.2,0,0.3,0,0.4-0.1s0.2-0.2,0.3-0.3v-0.7h-0.4c-0.5,0-0.8,0.2-0.8,0.5v0.1 c0,0.1,0,0.2,0.1,0.3C410.6,95.9,410.8,96,410.9,96z"></path> <path class="st2" d="M414.7,91.9v1h0.7v0.8h-0.7v1.9c0,0.1,0,0.2,0.1,0.3c0.1,0.1,0.2,0.1,0.3,0.1c0.1,0,0.2,0,0.3,0v0.8 c-0.2,0.1-0.4,0.1-0.6,0.1c-0.7,0-1.1-0.4-1.1-1.1v-2.1h-0.6v-0.8h0.6v-1C413.7,91.9,414.7,91.9,414.7,91.9z"></path> <path class="st2" d="M417.7,96.8c-0.6,0-1-0.2-1.4-0.5s-0.5-0.8-0.5-1.4v-0.1c0-0.4,0.1-0.7,0.2-1c0.2-0.3,0.4-0.5,0.6-0.7 s0.6-0.2,0.9-0.2c0.5,0,0.9,0.2,1.3,0.5c0.3,0.3,0.5,0.8,0.5,1.4v0.4h-2.5c0,0.3,0.1,0.5,0.3,0.6c0.2,0.2,0.4,0.2,0.6,0.2 c0.4,0,0.7-0.1,0.9-0.4l0.5,0.6c-0.2,0.2-0.4,0.4-0.6,0.5C418.3,96.7,418.1,96.8,417.7,96.8z M417.6,93.6 c-0.2,0-0.4,0.1-0.5,0.2s-0.2,0.3-0.2,0.6h1.4v-0.1c0-0.2-0.1-0.4-0.2-0.5S417.8,93.6,417.6,93.6z"></path> <path class="st2" d="M422.1,93.8c-0.1,0-0.3,0-0.4,0c-0.4,0-0.6,0.1-0.8,0.4v2.5h-1v-3.9h1v0.5c0.2-0.4,0.5-0.5,0.9-0.5 c0.1,0,0.2,0,0.3,0V93.8z"></path> </g> </g> <g class="st7"> <path class="st8" d="M419.9,124.7c0-0.1-0.1-0.2-0.1-0.4c-0.3,0.3-0.7,0.5-1.1,0.5s-0.8-0.1-1.1-0.4s-0.4-0.6-0.4-0.9 c0-0.5,0.2-0.8,0.5-1.1c0.3-0.2,0.8-0.4,1.5-0.4h0.6v-0.3c0-0.2-0.1-0.4-0.2-0.5s-0.3-0.2-0.6-0.2c-0.2,0-0.4,0.1-0.5,0.2 s-0.2,0.3-0.2,0.4h-1c0-0.2,0.1-0.5,0.2-0.7c0.2-0.2,0.4-0.4,0.6-0.5c0.3-0.1,0.6-0.2,0.9-0.2c0.5,0,0.9,0.1,1.2,0.4 c0.3,0.3,0.5,0.6,0.5,1.1v2c0,0.4,0.1,0.7,0.2,0.9v0.1H419.9z M418.9,124c0.2,0,0.4,0,0.5-0.1s0.3-0.2,0.4-0.4v-0.8h-0.5 c-0.4,0-0.6,0.1-0.8,0.2c-0.2,0.1-0.3,0.3-0.3,0.5s0.1,0.3,0.2,0.4S418.7,124,418.9,124z"></path> <path class="st8" d="M422.8,124.7h-1v-6.2h1V124.7z"></path> <path class="st8" d="M425.8,124.8c-0.6,0-1.1-0.2-1.5-0.6s-0.6-0.9-0.6-1.6v-0.1c0-0.4,0.1-0.8,0.3-1.2c0.2-0.3,0.4-0.6,0.7-0.8 c0.3-0.2,0.6-0.3,1-0.3c0.6,0,1.1,0.2,1.4,0.6s0.5,0.9,0.5,1.6v0.4h-2.8c0,0.4,0.2,0.6,0.4,0.9c0.2,0.2,0.5,0.3,0.8,0.3 c0.4,0,0.8-0.2,1.1-0.5l0.5,0.5c-0.2,0.3-0.4,0.5-0.7,0.6S426.2,124.8,425.8,124.8z M425.7,121.1c-0.3,0-0.5,0.1-0.7,0.3 c-0.2,0.2-0.3,0.5-0.3,0.8h1.9V122c0-0.3-0.1-0.6-0.3-0.7C426.2,121.1,426,121.1,425.7,121.1z"></path> <path class="st8" d="M430.6,121.2c-0.1,0-0.3,0-0.4,0c-0.4,0-0.8,0.2-0.9,0.5v3h-1v-4.4h0.9v0.5c0.2-0.4,0.6-0.6,1-0.6 c0.1,0,0.3,0,0.3,0.1L430.6,121.2z"></path> <path class="st8" d="M432.7,119.3v1.1h0.8v0.7h-0.8v2.4c0,0.2,0,0.3,0.1,0.4s0.2,0.1,0.4,0.1c0.1,0,0.2,0,0.3,0v0.8 c-0.2,0.1-0.4,0.1-0.6,0.1c-0.8,0-1.1-0.4-1.1-1.2v-2.5H431v-0.7h0.7v-1.1h1V119.3z"></path> <path class="st8" d="M434.2,119.2c0-0.1,0-0.3,0.1-0.4s0.2-0.1,0.4-0.1c0.2,0,0.3,0,0.4,0.1s0.1,0.2,0.1,0.4 c0,0.1,0,0.3-0.1,0.4s-0.2,0.1-0.4,0.1c-0.2,0-0.3,0-0.4-0.1S434.2,119.4,434.2,119.2z M435.2,124.7h-1v-4.4h1V124.7z"></path> <path class="st8" d="M437.2,120.3v0.5c0.3-0.4,0.7-0.6,1.3-0.6c0.9,0,1.4,0.5,1.4,1.6v2.9h-1v-2.8c0-0.3-0.1-0.5-0.2-0.6 s-0.3-0.2-0.6-0.2c-0.4,0-0.7,0.2-0.9,0.5v3.1h-1v-4.4H437.2z"></path> <path class="st8" d="M440.7,122.5c0-0.7,0.2-1.2,0.5-1.6s0.7-0.6,1.3-0.6c0.5,0,0.9,0.2,1.2,0.5v-0.4h0.9v4.2 c0,0.6-0.2,1-0.5,1.4s-0.8,0.5-1.4,0.5c-0.3,0-0.6-0.1-0.9-0.2s-0.5-0.3-0.7-0.5l0.5-0.6c0.3,0.4,0.7,0.5,1.1,0.5 c0.3,0,0.6-0.1,0.8-0.3s0.3-0.4,0.3-0.8v-0.3c-0.3,0.3-0.7,0.5-1.1,0.5c-0.5,0-0.9-0.2-1.2-0.6 C440.9,123.8,440.7,123.2,440.7,122.5z M441.7,122.6c0,0.4,0.1,0.8,0.3,1c0.2,0.3,0.4,0.4,0.7,0.4c0.4,0,0.7-0.2,0.9-0.5v-1.9 c-0.2-0.3-0.5-0.5-0.9-0.5c-0.3,0-0.6,0.1-0.8,0.4C441.8,121.7,441.7,122.1,441.7,122.6z"></path> </g> <path class="st9" d="M378.1,117.6"></path> <line class="st10" x1="367.4" y1="134.2" x2="464.9" y2="134.2"></line> <g> <g> <g class="st7"> <path class="st11" d="M409.9,146.7l1.2-3.9h1.2l-1.8,5.2h-1.1l-1.8-5.2h1.2L409.9,146.7z"></path> <path class="st11" d="M413.9,148h-1.1v-5.2h1.1V148z"></path> <path class="st11" d="M418,145.7h-2v1.4h2.4v0.9h-3.5v-5.2h3.5v0.9H416v1.2h2.1v0.8H418z"></path> <path class="st11" d="M423.1,146.5l0.7-3.7h1.1l-1.2,5.2h-1.1l-0.8-3.5L421,148h-1.1l-1.2-5.2h1.1l0.7,3.7l0.9-3.7h0.9 L423.1,146.5z"></path> </g> </g> </g> </g> <g> <g> <path class="st3" d="M570.4,157.2h-94.5c-0.8,0-1.5-0.7-1.5-1.5V78.5c0-0.8,0.7-1.5,1.5-1.5h94.5c0.8,0,1.5,0.7,1.5,1.5v77.2 C571.9,156.6,571.2,157.2,570.4,157.2z"></path> </g> <g> <circle class="st6" cx="499" cy="117.9" r="7"></circle> <path id="exclamation-mark_10_" class="st4" d="M499,120.4L499,120.4c-0.3,0-0.5-0.2-0.5-0.5l-0.3-6.2c0-0.5,0.4-0.8,0.8-0.8 s0.8,0.4,0.8,0.8l-0.3,6.2C499.5,120.2,499.3,120.4,499,120.4L499,120.4z M498.2,122.2c0,0.4,0.4,0.8,0.8,0.8s0.8-0.4,0.8-0.8 s-0.4-0.8-0.8-0.8S498.2,121.7,498.2,122.2z"></path> </g> <g> <g class="st7"> <path class="st2" d="M521.8,124.7H512v-1.4l5.2-5.7c0.8-0.9,1.3-1.6,1.6-2.1s0.4-1.1,0.4-1.7c0-0.8-0.2-1.4-0.7-1.9 s-1.1-0.7-1.9-0.7c-0.9,0-1.7,0.3-2.2,0.8s-0.8,1.3-0.8,2.2h-1.9c0-1.4,0.4-2.5,1.3-3.3s2.1-1.3,3.5-1.3s2.5,0.4,3.3,1.1 s1.2,1.7,1.2,2.9c0,1.5-0.9,3.2-2.8,5.2l-4,4.3h7.5L521.8,124.7L521.8,124.7z"></path> </g> </g> <g> <g class="st7"> <path class="st2" d="M504.9,94.2c0,0.5-0.1,1-0.3,1.4s-0.4,0.7-0.8,0.9c-0.3,0.2-0.7,0.3-1.2,0.3c-0.4,0-0.8-0.1-1.2-0.3 c-0.3-0.2-0.6-0.5-0.8-0.9c-0.2-0.4-0.3-0.8-0.3-1.3V94c0-0.5,0.1-1,0.3-1.4s0.4-0.7,0.8-0.9c0.3-0.2,0.7-0.3,1.2-0.3 s0.8,0.1,1.2,0.3c0.3,0.2,0.6,0.5,0.8,0.9c0.2,0.4,0.3,0.8,0.3,1.4V94.2z M503.8,94c0-0.5-0.1-1-0.3-1.2s-0.5-0.4-0.8-0.4 c-0.4,0-0.6,0.1-0.8,0.4c-0.2,0.3-0.3,0.7-0.3,1.2v0.3c0,0.5,0.1,0.9,0.3,1.2c0.2,0.3,0.5,0.4,0.8,0.4c0.4,0,0.6-0.1,0.8-0.4 c0.2-0.3,0.3-0.7,0.3-1.2V94z"></path> <path class="st2" d="M509.1,94.8c0,0.6-0.1,1.1-0.4,1.4c-0.3,0.4-0.6,0.5-1.1,0.5c-0.4,0-0.7-0.1-0.9-0.4v1.8h-1v-5.4h1v0.4 c0.3-0.3,0.6-0.5,1-0.5c0.5,0,0.8,0.2,1.1,0.5S509.1,94.1,509.1,94.8L509.1,94.8z M508.1,94.7c0-0.4-0.1-0.6-0.2-0.8 c-0.1-0.2-0.3-0.3-0.6-0.3c-0.3,0-0.5,0.1-0.7,0.4v1.6c0.1,0.3,0.4,0.4,0.7,0.4C507.9,95.9,508.1,95.5,508.1,94.7z"></path> <path class="st2" d="M511.6,96.8c-0.6,0-1-0.2-1.4-0.5s-0.5-0.8-0.5-1.4v-0.1c0-0.4,0.1-0.7,0.2-1c0.2-0.3,0.4-0.5,0.6-0.7 c0.3-0.2,0.6-0.2,0.9-0.2c0.5,0,0.9,0.2,1.3,0.5c0.3,0.3,0.5,0.8,0.5,1.4v0.4h-2.5c0,0.3,0.1,0.5,0.3,0.6 c0.2,0.2,0.4,0.2,0.6,0.2c0.4,0,0.7-0.1,0.9-0.4l0.5,0.6c-0.2,0.2-0.4,0.4-0.6,0.5C512.2,96.7,511.9,96.8,511.6,96.8z M511.4,93.6c-0.2,0-0.4,0.1-0.5,0.2s-0.2,0.3-0.2,0.6h1.4v-0.1c0-0.2-0.1-0.4-0.2-0.5C511.8,93.7,511.7,93.6,511.4,93.6z"></path> <path class="st2" d="M514.7,92.8v0.4c0.3-0.3,0.6-0.5,1.1-0.5c0.4,0,0.7,0.1,0.9,0.4s0.3,0.6,0.3,1.1v2.5h-1v-2.5 c0-0.2,0-0.4-0.1-0.5s-0.3-0.1-0.5-0.1c-0.3,0-0.5,0.1-0.7,0.4v2.7h-1v-3.9H514.7z"></path> <path class="st2" d="M518.2,97.2h-0.8l1.9-5.7h0.8L518.2,97.2z"></path> <path class="st2" d="M524.8,95c0,0.6-0.2,1-0.6,1.3c-0.4,0.3-0.9,0.5-1.5,0.5c-0.7,0-1.2-0.2-1.6-0.7s-0.6-1.1-0.6-1.9v-0.3 c0-0.5,0.1-0.9,0.3-1.3s0.4-0.7,0.8-0.9s0.7-0.3,1.1-0.3c0.6,0,1.1,0.2,1.5,0.5s0.6,0.8,0.6,1.4h-1.1c0-0.3-0.1-0.6-0.3-0.7 c-0.2-0.2-0.4-0.2-0.7-0.2c-0.4,0-0.6,0.1-0.8,0.4s-0.3,0.7-0.3,1.2v0.4c0,0.6,0.1,1,0.3,1.2c0.2,0.3,0.4,0.4,0.8,0.4 c0.3,0,0.6-0.1,0.7-0.2c0.2-0.2,0.3-0.4,0.3-0.7h1.1V95z"></path> <path class="st2" d="M526.5,96.7h-1v-5.5h1V96.7z"></path> <path class="st2" d="M527.2,94.7c0-0.4,0.1-0.7,0.2-1c0.1-0.3,0.4-0.5,0.6-0.7c0.3-0.2,0.6-0.2,1-0.2c0.5,0,0.9,0.2,1.3,0.5 c0.3,0.3,0.5,0.8,0.6,1.3v0.3c0,0.6-0.2,1.1-0.5,1.4s-0.8,0.5-1.3,0.5s-1-0.2-1.3-0.5C527.3,95.9,527.2,95.4,527.2,94.7 L527.2,94.7z M528.2,94.8c0,0.4,0.1,0.7,0.2,0.8c0.1,0.2,0.3,0.3,0.6,0.3c0.2,0,0.4-0.1,0.6-0.3c0.1-0.2,0.2-0.5,0.2-0.9 s-0.1-0.6-0.2-0.8c-0.1-0.2-0.3-0.3-0.6-0.3s-0.4,0.1-0.6,0.3C528.3,94.1,528.2,94.4,528.2,94.8z"></path> <path class="st2" d="M533.6,95.6c0-0.1-0.1-0.2-0.2-0.3c-0.1-0.1-0.3-0.1-0.6-0.2c-0.9-0.2-1.4-0.6-1.4-1.2 c0-0.3,0.1-0.6,0.4-0.9s0.7-0.3,1.1-0.3c0.5,0,0.9,0.1,1.2,0.3s0.4,0.5,0.4,0.9h-1c0-0.1,0-0.3-0.1-0.4s-0.2-0.1-0.4-0.1 s-0.3,0-0.4,0.1s-0.1,0.2-0.1,0.3c0,0.1,0.1,0.2,0.2,0.3c0.1,0.1,0.3,0.1,0.5,0.2c0.3,0.1,0.5,0.1,0.7,0.2 c0.5,0.2,0.8,0.5,0.8,1c0,0.4-0.2,0.6-0.5,0.9c-0.3,0.2-0.7,0.3-1.2,0.3c-0.3,0-0.6-0.1-0.9-0.2c-0.3-0.1-0.4-0.3-0.6-0.5 c-0.1-0.2-0.2-0.4-0.2-0.7h1c0,0.2,0.1,0.3,0.2,0.4s0.3,0.1,0.5,0.1s0.3,0,0.4-0.1S533.6,95.8,533.6,95.6z"></path> <path class="st2" d="M537,96.8c-0.6,0-1-0.2-1.4-0.5s-0.5-0.8-0.5-1.4v-0.1c0-0.4,0.1-0.7,0.2-1c0.2-0.3,0.4-0.5,0.6-0.7 c0.3-0.2,0.6-0.2,0.9-0.2c0.5,0,0.9,0.2,1.3,0.5c0.3,0.3,0.5,0.8,0.5,1.4v0.4h-2.5c0,0.3,0.1,0.5,0.3,0.6 c0.2,0.2,0.4,0.2,0.6,0.2c0.4,0,0.7-0.1,0.9-0.4l0.5,0.6c-0.2,0.2-0.4,0.4-0.6,0.5C537.7,96.7,537.4,96.8,537,96.8z M536.9,93.6c-0.2,0-0.4,0.1-0.5,0.2s-0.2,0.3-0.2,0.6h1.4v-0.1c0-0.2-0.1-0.4-0.2-0.5S537.1,93.6,536.9,93.6z"></path> </g> </g> <g class="st7"> <path class="st8" d="M526.9,124.7c0-0.1-0.1-0.2-0.1-0.4c-0.3,0.3-0.7,0.5-1.1,0.5c-0.4,0-0.8-0.1-1.1-0.4 c-0.3-0.2-0.4-0.6-0.4-0.9c0-0.5,0.2-0.8,0.5-1.1c0.3-0.2,0.8-0.4,1.5-0.4h0.6v-0.3c0-0.2-0.1-0.4-0.2-0.5 c-0.1-0.1-0.3-0.2-0.6-0.2c-0.2,0-0.4,0.1-0.5,0.2s-0.2,0.3-0.2,0.4h-1c0-0.2,0.1-0.5,0.2-0.7s0.4-0.4,0.6-0.5 c0.3-0.1,0.6-0.2,0.9-0.2c0.5,0,0.9,0.1,1.2,0.4s0.5,0.6,0.5,1.1v2c0,0.4,0.1,0.7,0.2,0.9v0.1H526.9z M525.8,124 c0.2,0,0.4,0,0.5-0.1s0.3-0.2,0.4-0.4v-0.8h-0.5c-0.4,0-0.6,0.1-0.8,0.2s-0.3,0.3-0.3,0.5s0.1,0.3,0.2,0.4 C525.5,123.9,525.6,124,525.8,124z"></path> <path class="st8" d="M529.8,124.7h-1v-6.2h1V124.7z"></path> <path class="st8" d="M532.8,124.8c-0.6,0-1.1-0.2-1.5-0.6s-0.6-0.9-0.6-1.6v-0.1c0-0.4,0.1-0.8,0.3-1.2c0.2-0.3,0.4-0.6,0.7-0.8 c0.3-0.2,0.6-0.3,1-0.3c0.6,0,1.1,0.2,1.4,0.6c0.3,0.4,0.5,0.9,0.5,1.6v0.4h-2.8c0,0.4,0.1,0.6,0.4,0.9s0.5,0.3,0.8,0.3 c0.4,0,0.8-0.2,1.1-0.5l0.5,0.5c-0.2,0.3-0.4,0.5-0.7,0.6C533.5,124.7,533.2,124.8,532.8,124.8z M532.7,121.1 c-0.3,0-0.5,0.1-0.7,0.3c-0.2,0.2-0.3,0.5-0.3,0.8h1.9V122c0-0.3-0.1-0.6-0.3-0.7C533.2,121.1,533,121.1,532.7,121.1z"></path> <path class="st8" d="M537.6,121.2c-0.1,0-0.3,0-0.4,0c-0.4,0-0.8,0.2-0.9,0.5v3h-1v-4.4h0.9v0.5c0.2-0.4,0.6-0.6,1-0.6 c0.1,0,0.3,0,0.3,0.1L537.6,121.2z"></path> <path class="st8" d="M539.6,119.3v1.1h0.8v0.7h-0.8v2.4c0,0.2,0,0.3,0.1,0.4s0.2,0.1,0.4,0.1c0.1,0,0.2,0,0.3,0v0.8 c-0.2,0.1-0.4,0.1-0.6,0.1c-0.8,0-1.1-0.4-1.1-1.2v-2.5H538v-0.7h0.7v-1.1h0.9V119.3z"></path> <path class="st8" d="M541.2,119.2c0-0.1,0-0.3,0.1-0.4s0.2-0.1,0.4-0.1s0.3,0,0.4,0.1s0.1,0.2,0.1,0.4c0,0.1,0,0.3-0.1,0.4 s-0.2,0.1-0.4,0.1s-0.3,0-0.4-0.1C541.2,119.5,541.2,119.4,541.2,119.2z M542.2,124.7h-1v-4.4h1V124.7z"></path> <path class="st8" d="M544.2,120.3v0.5c0.3-0.4,0.7-0.6,1.3-0.6c0.9,0,1.4,0.5,1.4,1.6v2.9h-1v-2.8c0-0.3-0.1-0.5-0.2-0.6 s-0.3-0.2-0.6-0.2c-0.4,0-0.7,0.2-0.9,0.5v3.1h-1v-4.4H544.2z"></path> <path class="st8" d="M547.7,122.5c0-0.7,0.2-1.2,0.5-1.6s0.7-0.6,1.3-0.6c0.5,0,0.9,0.2,1.2,0.5v-0.4h0.9v4.2 c0,0.6-0.2,1-0.5,1.4s-0.8,0.5-1.4,0.5c-0.3,0-0.6-0.1-0.9-0.2s-0.5-0.3-0.7-0.5l0.5-0.6c0.3,0.4,0.7,0.5,1.1,0.5 c0.3,0,0.6-0.1,0.8-0.3c0.2-0.2,0.3-0.4,0.3-0.8v-0.3c-0.3,0.3-0.7,0.5-1.1,0.5c-0.5,0-0.9-0.2-1.2-0.6 C547.8,123.8,547.7,123.2,547.7,122.5z M548.6,122.6c0,0.4,0.1,0.8,0.3,1c0.2,0.3,0.4,0.4,0.7,0.4c0.4,0,0.7-0.2,0.9-0.5v-1.9 c-0.2-0.3-0.5-0.5-0.9-0.5c-0.3,0-0.6,0.1-0.8,0.4C548.7,121.7,548.6,122.1,548.6,122.6z"></path> </g> <path class="st9" d="M485.1,117.6"></path> <line class="st10" x1="474.4" y1="134.2" x2="571.9" y2="134.2"></line> <g> <g> <g class="st7"> <path class="st11" d="M516.9,146.7l1.2-3.9h1.2l-1.8,5.2h-1.1l-1.8-5.2h1.2L516.9,146.7z"></path> <path class="st11" d="M520.9,148h-1.1v-5.2h1.1V148z"></path> <path class="st11" d="M525,145.7h-2v1.4h2.4v0.9h-3.5v-5.2h3.5v0.9H523v1.2h2.1L525,145.7L525,145.7z"></path> <path class="st11" d="M530.1,146.5l0.7-3.7h1.1l-1.2,5.2h-1.1l-0.8-3.5L528,148h-1.1l-1.2-5.2h1.1l0.7,3.7l0.9-3.7h0.9 L530.1,146.5z"></path> </g> </g> </g> </g> <rect x="153.5" y="37.4" class="st3" width="419.1" height="10.1"></rect> <g> <g> <path class="st3" d="M571.1,299.4H155c-0.8,0-1.5-0.7-1.5-1.5V181c0-0.8,0.7-1.5,1.5-1.5h416.2c0.8,0,1.5,0.7,1.5,1.5v116.9 C572.6,298.7,571.9,299.4,571.1,299.4z"></path> </g> <g> <polyline class="st13" points="171.1,193.6 171.1,283.4 464.9,283.4 "></polyline> <line class="st14" x1="240.4" y1="193.6" x2="240.4" y2="283.4"></line> <line class="st14" x1="309.8" y1="193.6" x2="309.8" y2="283.4"></line> <line class="st14" x1="379.1" y1="193.6" x2="379.1" y2="283.4"></line> <line class="st14" x1="448.4" y1="193.6" x2="448.4" y2="283.4"></line> </g> <g> <g> <line class="st15" x1="171.1" y1="238.5" x2="171.1" y2="238.5"></line> <line class="st16" x1="174.9" y1="238.5" x2="463" y2="238.5"></line> <line class="st15" x1="464.9" y1="238.5" x2="464.9" y2="238.5"></line> </g> </g> <path class="st17" d="M171.1,247.6c0,0,46.8-18.2,74.3-18.2c60.2,0,187,27.3,219.4,13.4"></path> <g> <g class="st7"> <path class="st2" d="M518.8,203.8l-6.2,13.8h-2l6.2-13.4h-8.1v-1.6h10.1V203.8z"></path> <path class="st2" d="M530.3,211.3c0,2.2-0.4,3.9-1.1,4.9c-0.8,1.1-1.9,1.6-3.6,1.6c-1.6,0-2.8-0.5-3.5-1.6 c-0.8-1.1-1.2-2.6-1.2-4.7V209c0-2.2,0.4-3.8,1.1-4.9c0.8-1.1,1.9-1.6,3.6-1.6c1.6,0,2.8,0.5,3.5,1.5c0.8,1,1.1,2.6,1.2,4.8 V211.3z M528.4,208.7c0-1.6-0.2-2.8-0.7-3.5s-1.2-1.1-2.1-1.1c-1,0-1.7,0.4-2.1,1.1s-0.7,1.9-0.7,3.4v3c0,1.6,0.2,2.8,0.7,3.6 s1.2,1.2,2.1,1.2c0.9,0,1.6-0.4,2.1-1.1c0.5-0.7,0.7-1.9,0.7-3.4V208.7z"></path> </g> <g class="st7"> <path class="st8" d="M534.7,211.7c0.3,0,0.5,0.1,0.7,0.3s0.3,0.5,0.3,0.8s-0.1,0.5-0.3,0.8s-0.5,0.3-0.7,0.3 c-0.3,0-0.5-0.1-0.8-0.3s-0.3-0.5-0.3-0.8s0.1-0.5,0.3-0.8C534.1,211.8,534.4,211.7,534.7,211.7z M534.7,213.3 c0.1,0,0.3,0,0.4-0.1c0.1-0.1,0.1-0.2,0.1-0.4c0-0.1,0-0.3-0.1-0.4c-0.1-0.1-0.2-0.2-0.4-0.2c-0.1,0-0.3,0.1-0.4,0.2 c-0.1,0.1-0.1,0.2-0.1,0.4c0,0.1,0,0.3,0.1,0.4C534.4,213.2,534.5,213.3,534.7,213.3z"></path> <path class="st8" d="M540.2,215.1h-2.4v2.5h-1v-5.9h3.7v0.8h-2.7v1.7h2.4V215.1z"></path> </g> </g> <g> <g class="st7"> <path class="st8" d="M529.6,241.5l-2.1,4.8h-1.1l2.1-4.6h-2.7v-0.9h3.8V241.5z"></path> <path class="st8" d="M532.9,246.3h-1.1v-4.1l-1.3,0.4v-0.9l2.2-0.8h0.1L532.9,246.3L532.9,246.3z"></path> <path class="st8" d="M536.7,241.8c0-0.3,0.1-0.5,0.3-0.7s0.4-0.3,0.7-0.3s0.5,0.1,0.7,0.3s0.3,0.4,0.3,0.7s-0.1,0.5-0.3,0.7 s-0.4,0.3-0.7,0.3s-0.5-0.1-0.7-0.3S536.7,242.1,536.7,241.8z M537.7,242.3c0.1,0,0.2,0,0.3-0.1s0.1-0.2,0.1-0.3s0-0.2-0.1-0.3 s-0.2-0.1-0.3-0.1s-0.2,0-0.3,0.1s-0.1,0.2-0.1,0.3s0,0.2,0.1,0.3C537.5,242.2,537.6,242.3,537.7,242.3z"></path> <path class="st8" d="M542.9,244.1h-2.1v2.2h-1.1v-5.4h3.5v0.9h-2.4v1.4h2.1V244.1z"></path> </g> <g class="st7"> <path class="st8" d="M529.6,256.4l-2.1,4.8h-1.1l2.1-4.6h-2.7v-0.9h3.8V256.4z"></path> <path class="st8" d="M530.5,258.5l0.3-2.8h3v0.9h-2.2l-0.1,1.2c0.3-0.1,0.5-0.2,0.8-0.2c0.5,0,0.9,0.2,1.2,0.5s0.4,0.8,0.4,1.3 c0,0.3-0.1,0.7-0.2,0.9c-0.1,0.3-0.4,0.5-0.6,0.6c-0.3,0.2-0.6,0.2-1,0.2c-0.3,0-0.6-0.1-0.9-0.2c-0.3-0.1-0.5-0.3-0.7-0.6 c-0.2-0.2-0.2-0.5-0.3-0.8h1.1c0,0.2,0.1,0.4,0.2,0.5c0.1,0.1,0.3,0.2,0.5,0.2s0.4-0.1,0.6-0.3s0.2-0.4,0.2-0.7 c0-0.3-0.1-0.5-0.2-0.7c-0.2-0.2-0.4-0.2-0.6-0.2c-0.3,0-0.5,0.1-0.6,0.2l-0.1,0.1L530.5,258.5z"></path> <path class="st8" d="M536.7,256.7c0-0.3,0.1-0.5,0.3-0.7s0.4-0.3,0.7-0.3s0.5,0.1,0.7,0.3c0.2,0.2,0.3,0.4,0.3,0.7 c0,0.3-0.1,0.5-0.3,0.7s-0.4,0.3-0.7,0.3s-0.5-0.1-0.7-0.3C536.8,257.2,536.7,257,536.7,256.7z M537.7,257.2 c0.1,0,0.2,0,0.3-0.1s0.1-0.2,0.1-0.3c0-0.1,0-0.2-0.1-0.3s-0.2-0.1-0.3-0.1s-0.2,0-0.3,0.1s-0.1,0.2-0.1,0.3 c0,0.1,0,0.2,0.1,0.3C537.5,257.1,537.6,257.2,537.7,257.2z"></path> <path class="st8" d="M542.9,259h-2.1v2.2h-1.1v-5.4h3.5v0.9h-2.4v1.4h2.1V259z"></path> </g> <g class="st7"> <path class="st8" d="M528.8,270.5v0.9h-0.1c-0.5,0-0.9,0.1-1.2,0.4c-0.3,0.2-0.5,0.6-0.5,1c0.3-0.3,0.7-0.4,1.1-0.4 c0.5,0,0.8,0.2,1.1,0.5s0.4,0.8,0.4,1.3c0,0.4-0.1,0.7-0.2,1c-0.2,0.3-0.4,0.5-0.6,0.7c-0.3,0.2-0.6,0.2-0.9,0.2 c-0.6,0-1-0.2-1.4-0.6s-0.5-0.9-0.5-1.6v-0.4c0-0.6,0.1-1.1,0.3-1.6s0.5-0.8,1-1s0.9-0.4,1.4-0.4H528.8z M527.8,273.2 c-0.2,0-0.3,0-0.5,0.1c-0.1,0.1-0.2,0.2-0.3,0.4v0.3c0,0.4,0.1,0.6,0.2,0.8c0.1,0.2,0.3,0.3,0.6,0.3c0.2,0,0.4-0.1,0.6-0.3 c0.1-0.2,0.2-0.4,0.2-0.7c0-0.3-0.1-0.5-0.2-0.7C528.2,273.3,528,273.2,527.8,273.2z"></path> <path class="st8" d="M533.8,272c0,0.3-0.1,0.5-0.2,0.7s-0.3,0.4-0.5,0.5c0.3,0.1,0.5,0.3,0.6,0.5c0.2,0.2,0.2,0.5,0.2,0.8 c0,0.5-0.2,0.9-0.5,1.1s-0.8,0.4-1.3,0.4c-0.6,0-1-0.1-1.3-0.4s-0.5-0.7-0.5-1.1c0-0.3,0.1-0.6,0.2-0.8 c0.2-0.2,0.4-0.4,0.6-0.5c-0.2-0.1-0.4-0.3-0.5-0.5s-0.2-0.4-0.2-0.7c0-0.5,0.2-0.8,0.5-1.1c0.3-0.3,0.7-0.4,1.3-0.4 c0.5,0,0.9,0.1,1.3,0.4C533.7,271.2,533.8,271.5,533.8,272z M532.9,274.4c0-0.2-0.1-0.4-0.2-0.6c-0.1-0.1-0.3-0.2-0.6-0.2 c-0.2,0-0.4,0.1-0.5,0.2s-0.2,0.3-0.2,0.6c0,0.2,0.1,0.4,0.2,0.6c0.1,0.1,0.3,0.2,0.6,0.2c0.2,0,0.4-0.1,0.5-0.2 S532.9,274.7,532.9,274.4z M532.8,272.1c0-0.2-0.1-0.4-0.2-0.5s-0.3-0.2-0.5-0.2s-0.4,0.1-0.5,0.2s-0.2,0.3-0.2,0.5 s0.1,0.4,0.2,0.5c0.1,0.1,0.3,0.2,0.5,0.2s0.4-0.1,0.5-0.2C532.7,272.4,532.8,272.3,532.8,272.1z"></path> <path class="st8" d="M536.7,271.5c0-0.3,0.1-0.5,0.3-0.7s0.4-0.3,0.7-0.3s0.5,0.1,0.7,0.3c0.2,0.2,0.3,0.4,0.3,0.7 c0,0.3-0.1,0.5-0.3,0.7s-0.4,0.3-0.7,0.3s-0.5-0.1-0.7-0.3C536.8,272,536.7,271.8,536.7,271.5z M537.7,272c0.1,0,0.2,0,0.3-0.1 s0.1-0.2,0.1-0.3c0-0.1,0-0.2-0.1-0.3s-0.2-0.1-0.3-0.1s-0.2,0-0.3,0.1s-0.1,0.2-0.1,0.3c0,0.1,0,0.2,0.1,0.3 C537.5,271.9,537.6,272,537.7,272z"></path> <path class="st8" d="M542.9,273.8h-2.1v2.2h-1.1v-5.4h3.5v0.9h-2.4v1.4h2.1V273.8z"></path> </g> </g> <g> <g class="st7"> <path class="st8" d="M502.8,245.2h-2l-0.4,1.1h-1.2l2-5.4h1l2,5.4H503L502.8,245.2z M501.2,244.3h1.4l-0.7-2L501.2,244.3z"></path> <path class="st8" d="M506.2,245l0.7-2.7h1.1l-1.4,4h-1l-1.4-4h1.1L506.2,245z"></path> <path class="st8" d="M508.3,244.2c0-0.6,0.1-1.1,0.4-1.5s0.7-0.6,1.2-0.6c0.4,0,0.8,0.2,1,0.5v-0.4h1v3.9 c0,0.4-0.1,0.7-0.2,0.9s-0.4,0.5-0.7,0.6c-0.3,0.1-0.6,0.2-1,0.2c-0.3,0-0.6-0.1-0.9-0.2c-0.3-0.1-0.5-0.3-0.6-0.5l0.5-0.7 c0.3,0.3,0.6,0.5,1,0.5c0.3,0,0.5-0.1,0.7-0.2c0.2-0.2,0.2-0.4,0.2-0.6v-0.2c-0.2,0.3-0.6,0.4-1,0.4c-0.5,0-0.9-0.2-1.2-0.6 C508.5,245.4,508.3,244.9,508.3,244.2L508.3,244.2z M509.4,244.3c0,0.4,0.1,0.7,0.2,0.9s0.3,0.3,0.6,0.3c0.3,0,0.6-0.1,0.7-0.4 v-1.7c-0.1-0.2-0.4-0.4-0.7-0.4c-0.3,0-0.5,0.1-0.6,0.3C509.5,243.6,509.4,243.9,509.4,244.3z"></path> </g> <g class="st7"> <path class="st8" d="M501.2,261.2h-1.1v-2.3h-2.2v2.3h-1.1v-5.4h1.1v2.2h2.2v-2.2h1.1V261.2z"></path> <path class="st8" d="M502.1,256.1c0-0.2,0.1-0.3,0.2-0.4c0.1-0.1,0.3-0.2,0.4-0.2c0.2,0,0.3,0.1,0.4,0.2 c0.1,0.1,0.2,0.2,0.2,0.4c0,0.2-0.1,0.3-0.2,0.4s-0.3,0.2-0.4,0.2c-0.2,0-0.3-0.1-0.4-0.2C502.1,256.4,502.1,256.3,502.1,256.1 z M503.2,261.2h-1.1v-4h1.1V261.2z"></path> <path class="st8" d="M504,259.1c0-0.6,0.1-1.1,0.4-1.5s0.7-0.6,1.2-0.6c0.4,0,0.8,0.2,1,0.5v-0.4h1v3.9c0,0.4-0.1,0.7-0.2,0.9 s-0.4,0.5-0.7,0.6s-0.6,0.2-1,0.2c-0.3,0-0.6-0.1-0.9-0.2s-0.5-0.3-0.6-0.5l0.5-0.7c0.3,0.3,0.6,0.5,1,0.5 c0.3,0,0.5-0.1,0.7-0.2s0.2-0.4,0.2-0.6v-0.2c-0.2,0.3-0.6,0.4-1,0.4c-0.5,0-0.9-0.2-1.2-0.6C504.1,260.3,504,259.8,504,259.1 L504,259.1z M505,259.2c0,0.4,0.1,0.7,0.2,0.9c0.1,0.2,0.3,0.3,0.6,0.3c0.3,0,0.6-0.1,0.7-0.4v-1.7c-0.1-0.2-0.4-0.4-0.7-0.4 c-0.3,0-0.5,0.1-0.6,0.3C505.1,258.5,505,258.8,505,259.2z"></path> <path class="st8" d="M509.5,257.6c0.3-0.3,0.6-0.5,1.1-0.5c0.9,0,1.3,0.5,1.3,1.5v2.6h-1.1v-2.6c0-0.2,0-0.4-0.1-0.5 s-0.3-0.2-0.5-0.2c-0.3,0-0.5,0.1-0.7,0.4v2.9h-1.1v-5.7h1.1L509.5,257.6L509.5,257.6z"></path> </g> <g class="st7"> <path class="st8" d="M500.2,275.1h2.4v0.9h-3.5v-5.4h1.1V275.1z"></path> <path class="st8" d="M503,273.9c0-0.4,0.1-0.8,0.2-1.1c0.2-0.3,0.4-0.6,0.7-0.7c0.3-0.2,0.6-0.3,1-0.3c0.5,0,1,0.2,1.3,0.5 s0.5,0.8,0.6,1.4v0.3c0,0.6-0.2,1.1-0.5,1.5s-0.8,0.6-1.4,0.6s-1-0.2-1.4-0.6C503.1,275.1,503,274.6,503,273.9L503,273.9z M504,274c0,0.4,0.1,0.7,0.2,0.9c0.1,0.2,0.4,0.3,0.6,0.3c0.3,0,0.5-0.1,0.6-0.3s0.2-0.5,0.2-1c0-0.4-0.1-0.7-0.2-0.9 c-0.1-0.2-0.4-0.3-0.6-0.3c-0.3,0-0.5,0.1-0.6,0.3C504.1,273.3,504,273.6,504,274z"></path> <path class="st8" d="M511,274.5l0.5-2.6h1l-1,4h-0.9l-0.8-2.5l-0.8,2.5h-0.9l-1-4h1l0.5,2.6l0.7-2.6h0.8L511,274.5z"></path> </g> </g> </g> </g> </g> <g> <g> <g> <path class="st3" d="M74.7,330c-29.2,0-46.4-5.1-54-8.1c-4.1-1.6-6.8-5.6-6.8-10v-181c0-5.3,3.8-9.8,9.1-10.6 c9.3-1.5,25.7-3.2,51.7-3.2s42.4,1.7,51.7,3.2c5.3,0.8,9.1,5.3,9.1,10.6v181c0,4.4-2.7,8.4-6.8,10 C121.1,324.9,103.9,330,74.7,330z"></path> <g> <path class="st8" d="M74.7,118.1c26.2,0,42.7,1.8,51.6,3.2c4.7,0.7,8.2,4.8,8.2,9.6v181c0,4-2.4,7.6-6.2,9.1 c-8.2,3.3-25.1,8.1-53.6,8.1s-45.4-4.8-53.6-8.1c-3.7-1.5-6.2-5.1-6.2-9.1v-181c0-4.8,3.5-8.9,8.2-9.6 C32,119.9,48.5,118.1,74.7,118.1 M74.7,116.1c-26,0-42.6,1.7-51.9,3.2c-5.7,0.9-9.9,5.8-9.9,11.6v181c0,4.8,2.9,9.1,7.4,10.9 c17.9,7.1,41.7,8.2,54.4,8.2c12.6,0,36.4-1.1,54.4-8.2c4.5-1.8,7.4-6.1,7.4-10.9v-181c0-5.8-4.2-10.7-9.9-11.6 C117.3,117.9,100.8,116.1,74.7,116.1L74.7,116.1z"></path> </g> </g> <circle id="dot-large_37_" class="st0" cx="115.4" cy="141.1" r="5.2"></circle> <path class="st18" d="M74.7,329c-28.5,0-45.4-4.8-53.6-8.1c-3.7-1.5-6.2-5.1-6.2-9.1v-181c0-4.8,3.5-8.9,8.2-9.6 c8.9-1.4,25.3-3.2,51.6-3.2V329z"></path> </g> </g> </svg> 